<ttFont>
<head>
    <!-- Most of this table will be recalculated by the compiler -->
    <tableVersion value="1.0"/>
    <fontRevision value="2.0"/>
    <checkSumAdjustment value="0xeda65e61"/>
    <magicNumber value="0x5f0f3cf5"/>
    <flags value="00000000 00000101"/>
    <unitsPerEm value="2000"/>
    <created value="Fri Dec 23 10:14:22 2016"/>
    <modified value="Wed Nov 28 21:50:58 2018"/>
    <xMin value="-328"/>
    <yMin value="-466"/>
    <xMax value="2596"/>
    <yMax value="2142"/>
    <macStyle value="00000000 00000000"/>
    <lowestRecPPEM value="6"/>
    <fontDirectionHint value="2"/>
    <indexToLocFormat value="0"/>
    <glyphDataFormat value="0"/>
  </head>
    <TTGlyph name=".notdef" xMin="100" yMin="-440" xMax="900" yMax="1616">
      <contour>
        <pt x="100" y="-440" on="1"/>
        <pt x="900" y="-440" on="1"/>
        <pt x="900" y="1616" on="1"/>
        <pt x="100" y="1616" on="1"/>
      </contour>
      <contour>
        <pt x="200" y="-340" on="1"/>
        <pt x="200" y="1516" on="1"/>
        <pt x="800" y="1516" on="1"/>
        <pt x="800" y="-340" on="1"/>
      </contour>
    </TTGlyph>
    <TTGlyph name="A" xMin="29" yMin="0" xMax="1320" yMax="1480">
      <contour>
        <pt x="29" y="0" on="1"/>
        <pt x="560" y="1480" on="1"/>
        <pt x="789" y="1480" on="1"/>
        <pt x="1320" y="0" on="1"/>
        <pt x="1155" y="0" on="1"/>
        <pt x="986" y="479" on="1"/>
        <pt x="360" y="479" on="1"/>
        <pt x="191" y="0" on="1"/>
      </contour>
      <contour>
        <pt x="409" y="616" on="1"/>
        <pt x="938" y="616" on="1"/>
        <pt x="673" y="1364" on="1"/>
      </contour>
    </TTGlyph>
    <TTGlyph name="AE" xMin="29" yMin="0" xMax="1776" yMax="1480">
      <contour>
        <pt x="29" y="0" on="1"/>
        <pt x="569" y="1480" on="1"/>
        <pt x="1766" y="1480" on="1"/>
        <pt x="1766" y="1343" on="1"/>
        <pt x="1007" y="1343" on="1"/>
        <pt x="1043" y="828" on="1"/>
        <pt x="1668" y="828" on="1"/>
        <pt x="1668" y="691" on="1"/>
        <pt x="1052" y="691" on="1"/>
        <pt x="1091" y="137" on="1"/>
        <pt x="1776" y="137" on="1"/>
        <pt x="1776" y="0" on="1"/>
        <pt x="940" y="0" on="1"/>
        <pt x="907" y="479" on="1"/>
        <pt x="365" y="479" on="1"/>
        <pt x="192" y="0" on="1"/>
      </contour>
      <contour>
        <pt x="677" y="1343" on="1"/>
        <pt x="415" y="616" on="1"/>
        <pt x="898" y="616" on="1"/>
        <pt x="849" y="1343" on="1"/>
      </contour>
    </TTGlyph>
    <TTGlyph name="AEacute" xMin="29" yMin="0" xMax="1776" yMax="1892">
      <component glyphName="AE" x="0" y="0" flags="0x204"/>
      <component glyphName="acutecomb.case" x="395" y="0" flags="0x4"/>
    </TTGlyph>
    <TTGlyph name="Aacute" xMin="29" yMin="0" xMax="1320" yMax="1892">
      <component glyphName="A" x="0" y="0" flags="0x204"/>
      <component glyphName="acutecomb.case" x="149" y="0" flags="0x4"/>
    </TTGlyph>
    <TTGlyph name="Abreve" xMin="29" yMin="0" xMax="1320" yMax="1871">
      <component glyphName="A" x="0" y="0" flags="0x204"/>
      <component glyphName="uni0306.case" x="149" y="0" flags="0x4"/>
    </TTGlyph>
    <TTGlyph name="Acircumflex" xMin="29" yMin="0" xMax="1320" yMax="1892">
      <component glyphName="A" x="0" y="0" flags="0x204"/>
      <component glyphName="uni0302.case" x="149" y="0" flags="0x4"/>
    </TTGlyph>
    <TTGlyph name="Adieresis" xMin="29" yMin="0" xMax="1320" yMax="1845">
      <component glyphName="A" x="0" y="0" flags="0x204"/>
      <component glyphName="uni0308.case" x="149" y="0" flags="0x4"/>
    </TTGlyph>
    <TTGlyph name="Agrave" xMin="29" yMin="0" xMax="1320" yMax="1892">
      <component glyphName="A" x="0" y="0" flags="0x204"/>
      <component glyphName="gravecomb.case" x="149" y="0" flags="0x4"/>
    </TTGlyph>
    <TTGlyph name="Amacron" xMin="29" yMin="0" xMax="1320" yMax="1804">
      <component glyphName="A" x="0" y="0" flags="0x204"/>
      <component glyphName="uni0304.case" x="149" y="0" flags="0x4"/>
    </TTGlyph>
    <TTGlyph name="Aogonek" xMin="29" yMin="-415" xMax="1419" yMax="1480">
      <component glyphName="A" x="0" y="0" flags="0x204"/>
      <component glyphName="uni0328.case" x="816" y="0" flags="0x4"/>
    </TTGlyph>
    <TTGlyph name="Aring" xMin="29" yMin="0" xMax="1320" yMax="1853">
      <component glyphName="A" x="0" y="0" flags="0x204"/>
      <component glyphName="uni030A.case" x="151" y="-134" flags="0x4"/>
    </TTGlyph>
    <TTGlyph name="Aringacute" xMin="29" yMin="0" xMax="1320" yMax="1966">
      <component glyphName="A" x="0" y="0" flags="0x204"/>
      <component glyphName="uni030A0301.case" x="151" y="-134" flags="0x4"/>
    </TTGlyph>
    <TTGlyph name="Atilde" xMin="29" yMin="0" xMax="1320" yMax="1849">
      <component glyphName="A" x="0" y="0" flags="0x204"/>
      <component glyphName="tildecomb.case" x="149" y="0" flags="0x4"/>
    </TTGlyph>
    <TTGlyph name="B" xMin="169" yMin="-13" xMax="1186" yMax="1496">
      <contour>
        <pt x="534" y="-13" on="1"/>
        <pt x="445" y="-13" on="0"/>
        <pt x="263" y="-1" on="0"/>
        <pt x="169" y="11" on="1"/>
        <pt x="169" y="1455" on="1"/>
        <pt x="260" y="1474" on="0"/>
        <pt x="461" y="1496" on="0"/>
        <pt x="576" y="1496" on="1"/>
        <pt x="875" y="1496" on="0"/>
        <pt x="1144" y="1300" on="0"/>
        <pt x="1144" y="1101" on="1"/>
        <pt x="1144" y="981" on="0"/>
        <pt x="1021" y="797" on="0"/>
        <pt x="882" y="764" on="1"/>
        <pt x="1036" y="736" on="0"/>
        <pt x="1186" y="546" on="0"/>
        <pt x="1186" y="402" on="1"/>
        <pt x="1186" y="268" on="0"/>
        <pt x="1057" y="83" on="0"/>
        <pt x="770" y="-13" on="0"/>
      </contour>
      <contour>
        <pt x="590" y="1367" on="1"/>
        <pt x="509" y="1367" on="0"/>
        <pt x="384" y="1356" on="0"/>
        <pt x="329" y="1346" on="1"/>
        <pt x="329" y="825" on="1"/>
        <pt x="619" y="825" on="1"/>
        <pt x="819" y="825" on="0"/>
        <pt x="988" y="960" on="0"/>
        <pt x="988" y="1095" on="1"/>
        <pt x="988" y="1240" on="0"/>
        <pt x="806" y="1367" on="0"/>
      </contour>
      <contour>
        <pt x="567" y="116" on="1"/>
        <pt x="742" y="116" on="0"/>
        <pt x="945" y="180" on="0"/>
        <pt x="1032" y="309" on="0"/>
        <pt x="1032" y="407" on="1"/>
        <pt x="1032" y="554" on="0"/>
        <pt x="846" y="694" on="0"/>
        <pt x="647" y="694" on="1"/>
        <pt x="329" y="694" on="1"/>
        <pt x="329" y="130" on="1"/>
        <pt x="387" y="122" on="0"/>
        <pt x="502" y="116" on="0"/>
      </contour>
    </TTGlyph>
    <TTGlyph name="C" xMin="105" yMin="-19" xMax="1111" yMax="1499">
      <contour>
        <pt x="775" y="-19" on="1"/>
        <pt x="571" y="-19" on="0"/>
        <pt x="270" y="128" on="0"/>
        <pt x="105" y="460" on="0"/>
        <pt x="105" y="737" on="1"/>
        <pt x="105" y="1005" on="0"/>
        <pt x="269" y="1341" on="0"/>
        <pt x="576" y="1499" on="0"/>
        <pt x="791" y="1499" on="1"/>
        <pt x="956" y="1499" on="0"/>
        <pt x="1111" y="1456" on="1"/>
        <pt x="1111" y="1314" on="1"/>
        <pt x="1033" y="1337" on="0"/>
        <pt x="878" y="1358" on="0"/>
        <pt x="797" y="1358" on="1"/>
        <pt x="629" y="1358" on="0"/>
        <pt x="396" y="1238" on="0"/>
        <pt x="276" y="968" on="0"/>
        <pt x="276" y="741" on="1"/>
        <pt x="276" y="507" on="0"/>
        <pt x="398" y="236" on="0"/>
        <pt x="627" y="122" on="0"/>
        <pt x="787" y="122" on="1"/>
        <pt x="869" y="122" on="0"/>
        <pt x="1023" y="148" on="0"/>
        <pt x="1111" y="177" on="1"/>
        <pt x="1111" y="36" on="1"/>
        <pt x="1037" y="10" on="0"/>
        <pt x="868" y="-19" on="0"/>
      </contour>
    </TTGlyph>
    <TTGlyph name="Cacute" xMin="105" yMin="-19" xMax="1111" yMax="1892">
      <component glyphName="C" x="0" y="0" flags="0x204"/>
      <component glyphName="acutecomb.case" x="177" y="0" flags="0x4"/>
    </TTGlyph>
    <TTGlyph name="Ccaron" xMin="105" yMin="-19" xMax="1111" yMax="1892">
      <component glyphName="C" x="0" y="0" flags="0x204"/>
      <component glyphName="uni030C.case" x="177" y="0" flags="0x4"/>
    </TTGlyph>
    <TTGlyph name="Ccedilla" xMin="105" yMin="-415" xMax="1111" yMax="1499">
      <component glyphName="C" x="0" y="0" flags="0x204"/>
      <component glyphName="uni0327.case" x="188" y="0" flags="0x4"/>
    </TTGlyph>
    <TTGlyph name="Ccircumflex" xMin="105" yMin="-19" xMax="1111" yMax="1892">
      <component glyphName="C" x="0" y="0" flags="0x204"/>
      <component glyphName="uni0302.case" x="177" y="0" flags="0x4"/>
    </TTGlyph>
    <TTGlyph name="Cdotaccent" xMin="105" yMin="-19" xMax="1111" yMax="1845">
      <component glyphName="C" x="0" y="0" flags="0x204"/>
      <component glyphName="uni0307.case" x="177" y="0" flags="0x4"/>
    </TTGlyph>
    <TTGlyph name="D" xMin="169" yMin="-12" xMax="1295" yMax="1495">
      <contour>
        <pt x="519" y="-12" on="1"/>
        <pt x="436" y="-12" on="0"/>
        <pt x="268" y="-2" on="0"/>
        <pt x="169" y="9" on="1"/>
        <pt x="169" y="1456" on="1"/>
        <pt x="259" y="1474" on="0"/>
        <pt x="461" y="1495" on="0"/>
        <pt x="556" y="1495" on="1"/>
        <pt x="922" y="1495" on="0"/>
        <pt x="1295" y="1125" on="0"/>
        <pt x="1295" y="740" on="1"/>
        <pt x="1295" y="348" on="0"/>
        <pt x="904" y="-12" on="0"/>
      </contour>
      <contour>
        <pt x="551" y="127" on="1"/>
        <pt x="840" y="127" on="0"/>
        <pt x="1127" y="414" on="0"/>
        <pt x="1127" y="741" on="1"/>
        <pt x="1127" y="1064" on="0"/>
        <pt x="846" y="1357" on="0"/>
        <pt x="561" y="1357" on="1"/>
        <pt x="507" y="1357" on="0"/>
        <pt x="390" y="1346" on="0"/>
        <pt x="331" y="1337" on="1"/>
        <pt x="331" y="139" on="1"/>
        <pt x="428" y="127" on="0"/>
      </contour>
    </TTGlyph>
    <TTGlyph name="Dcaron" xMin="169" yMin="-12" xMax="1295" yMax="1892">
      <component glyphName="D" x="0" y="0" flags="0x204"/>
      <component glyphName="uni030C.case" x="107" y="0" flags="0x4"/>
    </TTGlyph>
    <TTGlyph name="Dcroat" xMin="3" yMin="-12" xMax="1295" yMax="1495">
      <component glyphName="Eth" x="0" y="0" flags="0x204"/>
    </TTGlyph>
    <TTGlyph name="E" xMin="169" yMin="0" xMax="1095" yMax="1480">
      <contour>
        <pt x="169" y="0" on="1"/>
        <pt x="169" y="1480" on="1"/>
        <pt x="1085" y="1480" on="1"/>
        <pt x="1085" y="1343" on="1"/>
        <pt x="330" y="1343" on="1"/>
        <pt x="330" y="828" on="1"/>
        <pt x="987" y="828" on="1"/>
        <pt x="987" y="691" on="1"/>
        <pt x="330" y="691" on="1"/>
        <pt x="330" y="137" on="1"/>
        <pt x="1095" y="137" on="1"/>
        <pt x="1095" y="0" on="1"/>
      </contour>
    </TTGlyph>
    <TTGlyph name="Eacute" xMin="169" yMin="0" xMax="1095" yMax="1892">
      <component glyphName="E" x="0" y="0" flags="0x204"/>
      <component glyphName="acutecomb.case" x="123" y="0" flags="0x4"/>
    </TTGlyph>
    <TTGlyph name="Ebreve" xMin="169" yMin="0" xMax="1095" yMax="1871">
      <component glyphName="E" x="0" y="0" flags="0x204"/>
      <component glyphName="uni0306.case" x="123" y="0" flags="0x4"/>
    </TTGlyph>
    <TTGlyph name="Ecaron" xMin="169" yMin="0" xMax="1095" yMax="1892">
      <component glyphName="E" x="0" y="0" flags="0x204"/>
      <component glyphName="uni030C.case" x="123" y="0" flags="0x4"/>
    </TTGlyph>
    <TTGlyph name="Ecircumflex" xMin="169" yMin="0" xMax="1095" yMax="1892">
      <component glyphName="E" x="0" y="0" flags="0x204"/>
      <component glyphName="uni0302.case" x="123" y="0" flags="0x4"/>
    </TTGlyph>
    <TTGlyph name="Edieresis" xMin="169" yMin="0" xMax="1095" yMax="1845">
      <component glyphName="E" x="0" y="0" flags="0x204"/>
      <component glyphName="uni0308.case" x="123" y="0" flags="0x4"/>
    </TTGlyph>
    <TTGlyph name="Edotaccent" xMin="169" yMin="0" xMax="1095" yMax="1845">
      <component glyphName="E" x="0" y="0" flags="0x204"/>
      <component glyphName="uni0307.case" x="123" y="0" flags="0x4"/>
    </TTGlyph>
    <TTGlyph name="Egrave" xMin="169" yMin="0" xMax="1095" yMax="1892">
      <component glyphName="E" x="0" y="0" flags="0x204"/>
      <component glyphName="gravecomb.case" x="123" y="0" flags="0x4"/>
    </TTGlyph>
    <TTGlyph name="Emacron" xMin="169" yMin="0" xMax="1095" yMax="1804">
      <component glyphName="E" x="0" y="0" flags="0x204"/>
      <component glyphName="uni0304.case" x="123" y="0" flags="0x4"/>
    </TTGlyph>
    <TTGlyph name="Eng" xMin="169" yMin="-464" xMax="1300" yMax="1480">
      <contour>
        <pt x="1068" y="-464" on="1"/>
        <pt x="962" y="-392" on="1"/>
        <pt x="1032" y="-297" on="0"/>
        <pt x="1117" y="-111" on="0"/>
        <pt x="1134" y="-3" on="1"/>
        <pt x="323" y="1232" on="1"/>
        <pt x="323" y="0" on="1"/>
        <pt x="169" y="0" on="1"/>
        <pt x="169" y="1480" on="1"/>
        <pt x="336" y="1480" on="1"/>
        <pt x="1147" y="248" on="1"/>
        <pt x="1147" y="1480" on="1"/>
        <pt x="1300" y="1480" on="1"/>
        <pt x="1300" y="189" on="1"/>
        <pt x="1300" y="55" on="0"/>
        <pt x="1253" y="-165" on="0"/>
        <pt x="1150" y="-363" on="0"/>
      </contour>
    </TTGlyph>
    <TTGlyph name="Eogonek" xMin="169" yMin="-415" xMax="1194" yMax="1480">
      <component glyphName="E" x="0" y="0" flags="0x204"/>
      <component glyphName="uni0328.case" x="591" y="0" flags="0x4"/>
    </TTGlyph>
    <TTGlyph name="Eth" xMin="3" yMin="-12" xMax="1295" yMax="1495">
      <component glyphName="D" x="0" y="0" flags="0x204"/>
      <component glyphName="uni0335.D" x="-250" y="-323" flags="0x4"/>
    </TTGlyph>
    <TTGlyph name="Euro" xMin="75" yMin="-19" xMax="1256" yMax="1499">
      <contour>
        <pt x="75" y="525" on="1"/>
        <pt x="75" y="634" on="1"/>
        <pt x="254" y="634" on="1"/>
        <pt x="250" y="684" on="0"/>
        <pt x="250" y="737" on="1"/>
        <pt x="250" y="804" on="0"/>
        <pt x="256" y="866" on="1"/>
        <pt x="75" y="866" on="1"/>
        <pt x="75" y="975" on="1"/>
        <pt x="271" y="975" on="1"/>
        <pt x="322" y="1249" on="0"/>
        <pt x="668" y="1499" on="0"/>
        <pt x="936" y="1499" on="1"/>
        <pt x="1101" y="1499" on="0"/>
        <pt x="1256" y="1456" on="1"/>
        <pt x="1256" y="1317" on="1"/>
        <pt x="1178" y="1340" on="0"/>
        <pt x="1023" y="1361" on="0"/>
        <pt x="942" y="1361" on="1"/>
        <pt x="738" y="1361" on="0"/>
        <pt x="482" y="1185" on="0"/>
        <pt x="439" y="975" on="1"/>
        <pt x="1078" y="975" on="1"/>
        <pt x="1078" y="866" on="1"/>
        <pt x="423" y="866" on="1"/>
        <pt x="418" y="807" on="0"/>
        <pt x="418" y="741" on="1"/>
        <pt x="418" y="685" on="0"/>
        <pt x="422" y="634" on="1"/>
        <pt x="1078" y="634" on="1"/>
        <pt x="1078" y="525" on="1"/>
        <pt x="435" y="525" on="1"/>
        <pt x="475" y="298" on="0"/>
        <pt x="732" y="119" on="0"/>
        <pt x="932" y="119" on="1"/>
        <pt x="1014" y="119" on="0"/>
        <pt x="1168" y="145" on="0"/>
        <pt x="1256" y="174" on="1"/>
        <pt x="1256" y="36" on="1"/>
        <pt x="1182" y="10" on="0"/>
        <pt x="1013" y="-19" on="0"/>
        <pt x="920" y="-19" on="1"/>
        <pt x="746" y="-19" on="0"/>
        <pt x="473" y="89" on="0"/>
        <pt x="296" y="327" on="0"/>
        <pt x="266" y="525" on="1"/>
      </contour>
    </TTGlyph>
    <TTGlyph name="Euro.tf" xMin="66" yMin="-19" xMax="1128" yMax="1499">
      <contour>
        <pt x="66" y="525" on="1"/>
        <pt x="66" y="634" on="1"/>
        <pt x="244" y="634" on="1"/>
        <pt x="241" y="684" on="0"/>
        <pt x="241" y="737" on="1"/>
        <pt x="241" y="804" on="0"/>
        <pt x="246" y="866" on="1"/>
        <pt x="66" y="866" on="1"/>
        <pt x="66" y="975" on="1"/>
        <pt x="260" y="975" on="1"/>
        <pt x="305" y="1244" on="0"/>
        <pt x="609" y="1499" on="0"/>
        <pt x="852" y="1499" on="1"/>
        <pt x="922" y="1499" on="0"/>
        <pt x="1062" y="1478" on="0"/>
        <pt x="1128" y="1456" on="1"/>
        <pt x="1128" y="1317" on="1"/>
        <pt x="1064" y="1340" on="0"/>
        <pt x="930" y="1361" on="0"/>
        <pt x="863" y="1361" on="1"/>
        <pt x="679" y="1361" on="0"/>
        <pt x="462" y="1180" on="0"/>
        <pt x="426" y="975" on="1"/>
        <pt x="963" y="975" on="1"/>
        <pt x="963" y="866" on="1"/>
        <pt x="413" y="866" on="1"/>
        <pt x="409" y="807" on="0"/>
        <pt x="409" y="741" on="1"/>
        <pt x="409" y="685" on="0"/>
        <pt x="412" y="634" on="1"/>
        <pt x="963" y="634" on="1"/>
        <pt x="963" y="525" on="1"/>
        <pt x="423" y="525" on="1"/>
        <pt x="455" y="309" on="0"/>
        <pt x="669" y="119" on="0"/>
        <pt x="854" y="119" on="1"/>
        <pt x="916" y="119" on="0"/>
        <pt x="1051" y="143" on="0"/>
        <pt x="1128" y="174" on="1"/>
        <pt x="1128" y="35" on="1"/>
        <pt x="1059" y="7" on="0"/>
        <pt x="909" y="-19" on="0"/>
        <pt x="839" y="-19" on="1"/>
        <pt x="594" y="-19" on="0"/>
        <pt x="295" y="242" on="0"/>
        <pt x="255" y="525" on="1"/>
      </contour>
    </TTGlyph>
    <TTGlyph name="F" xMin="169" yMin="0" xMax="1077" yMax="1480">
      <contour>
        <pt x="169" y="0" on="1"/>
        <pt x="169" y="1480" on="1"/>
        <pt x="1077" y="1480" on="1"/>
        <pt x="1077" y="1341" on="1"/>
        <pt x="331" y="1341" on="1"/>
        <pt x="331" y="816" on="1"/>
        <pt x="980" y="816" on="1"/>
        <pt x="980" y="678" on="1"/>
        <pt x="331" y="678" on="1"/>
        <pt x="331" y="0" on="1"/>
      </contour>
    </TTGlyph>
    <TTGlyph name="G" xMin="105" yMin="-13" xMax="1196" yMax="1499">
      <contour>
        <pt x="865" y="-13" on="1"/>
        <pt x="490" y="-13" on="0"/>
        <pt x="105" y="345" on="0"/>
        <pt x="105" y="737" on="1"/>
        <pt x="105" y="1006" on="0"/>
        <pt x="283" y="1342" on="0"/>
        <pt x="609" y="1499" on="0"/>
        <pt x="831" y="1499" on="1"/>
        <pt x="996" y="1499" on="0"/>
        <pt x="1162" y="1455" on="1"/>
        <pt x="1162" y="1314" on="1"/>
        <pt x="1072" y="1339" on="0"/>
        <pt x="916" y="1358" on="0"/>
        <pt x="840" y="1358" on="1"/>
        <pt x="664" y="1358" on="0"/>
        <pt x="411" y="1238" on="0"/>
        <pt x="275" y="966" on="0"/>
        <pt x="275" y="737" on="1"/>
        <pt x="275" y="411" on="0"/>
        <pt x="567" y="127" on="0"/>
        <pt x="855" y="127" on="1"/>
        <pt x="956" y="127" on="0"/>
        <pt x="1042" y="138" on="1"/>
        <pt x="1042" y="720" on="1"/>
        <pt x="1196" y="720" on="1"/>
        <pt x="1196" y="16" on="1"/>
        <pt x="1102" y="1" on="0"/>
        <pt x="946" y="-13" on="0"/>
      </contour>
    </TTGlyph>
    <TTGlyph name="Gbreve" xMin="105" yMin="-13" xMax="1196" yMax="1871">
      <component glyphName="G" x="0" y="0" flags="0x204"/>
      <component glyphName="uni0306.case" x="218" y="0" flags="0x4"/>
    </TTGlyph>
    <TTGlyph name="Gcaron" xMin="105" yMin="-13" xMax="1196" yMax="1892">
      <component glyphName="G" x="0" y="0" flags="0x204"/>
      <component glyphName="uni030C.case" x="218" y="0" flags="0x4"/>
    </TTGlyph>
    <TTGlyph name="Gcircumflex" xMin="105" yMin="-13" xMax="1196" yMax="1892">
      <component glyphName="G" x="0" y="0" flags="0x204"/>
      <component glyphName="uni0302.case" x="218" y="0" flags="0x4"/>
    </TTGlyph>
    <TTGlyph name="Gdotaccent" xMin="105" yMin="-13" xMax="1196" yMax="1845">
      <component glyphName="G" x="0" y="0" flags="0x204"/>
      <component glyphName="uni0307.case" x="218" y="0" flags="0x4"/>
    </TTGlyph>
    <TTGlyph name="H" xMin="169" yMin="0" xMax="1276" yMax="1480">
      <contour>
        <pt x="169" y="0" on="1"/>
        <pt x="169" y="1480" on="1"/>
        <pt x="331" y="1480" on="1"/>
        <pt x="331" y="833" on="1"/>
        <pt x="1113" y="833" on="1"/>
        <pt x="1113" y="1480" on="1"/>
        <pt x="1276" y="1480" on="1"/>
        <pt x="1276" y="0" on="1"/>
        <pt x="1113" y="0" on="1"/>
        <pt x="1113" y="686" on="1"/>
        <pt x="331" y="686" on="1"/>
        <pt x="331" y="0" on="1"/>
      </contour>
    </TTGlyph>
    <TTGlyph name="Hbar" xMin="3" yMin="0" xMax="1443" yMax="1480">
      <component glyphName="H" x="0" y="0" flags="0x204"/>
      <component glyphName="uni0336.case" x="-3" y="56" flags="0x4"/>
    </TTGlyph>
    <TTGlyph name="Hcircumflex" xMin="169" yMin="0" xMax="1276" yMax="1892">
      <component glyphName="H" x="0" y="0" flags="0x204"/>
      <component glyphName="uni0302.case" x="197" y="0" flags="0x4"/>
    </TTGlyph>
    <TTGlyph name="I" xMin="169" yMin="0" xMax="331" yMax="1480">
      <contour>
        <pt x="169" y="0" on="1"/>
        <pt x="169" y="1480" on="1"/>
        <pt x="331" y="1480" on="1"/>
        <pt x="331" y="0" on="1"/>
      </contour>
    </TTGlyph>
    <TTGlyph name="I_J.loclNLD" xMin="169" yMin="-344" xMax="832" yMax="1480">
      <component glyphName="I" x="0" y="0" flags="0x4"/>
      <component glyphName="J" x="501" y="0" flags="0x4"/>
    </TTGlyph>
    <TTGlyph name="Iacute" xMin="169" yMin="0" xMax="527" yMax="1892">
      <component glyphName="I" x="0" y="0" flags="0x204"/>
      <component glyphName="acutecomb.case" x="-275" y="0" flags="0x4"/>
    </TTGlyph>
    <TTGlyph name="Iacute_J.loclNLD" xMin="169" yMin="-344" xMax="1027" yMax="1892">
      <component glyphName="I" x="0" y="0" flags="0x4"/>
      <component glyphName="acutecomb.case" x="-275" y="0" flags="0x4"/>
      <component glyphName="J" x="501" y="0" flags="0x4"/>
      <component glyphName="acutecomb.case" x="225" y="0" flags="0x4"/>
    </TTGlyph>
    <TTGlyph name="Ibreve" xMin="-68" yMin="0" xMax="570" yMax="1871">
      <component glyphName="I" x="0" y="0" flags="0x204"/>
      <component glyphName="uni0306.case" x="-275" y="0" flags="0x4"/>
    </TTGlyph>
    <TTGlyph name="Icircumflex" xMin="-69" yMin="0" xMax="570" yMax="1892">
      <component glyphName="I" x="0" y="0" flags="0x204"/>
      <component glyphName="uni0302.case" x="-275" y="0" flags="0x4"/>
    </TTGlyph>
    <TTGlyph name="Idieresis" xMin="-85" yMin="0" xMax="587" yMax="1845">
      <component glyphName="I" x="0" y="0" flags="0x204"/>
      <component glyphName="uni0308.case" x="-275" y="0" flags="0x4"/>
    </TTGlyph>
    <TTGlyph name="Idotaccent" xMin="140" yMin="0" xMax="362" yMax="1845">
      <component glyphName="I" x="0" y="0" flags="0x204"/>
      <component glyphName="uni0307.case" x="-275" y="0" flags="0x4"/>
    </TTGlyph>
    <TTGlyph name="Igrave" xMin="-26" yMin="0" xMax="331" yMax="1892">
      <component glyphName="I" x="0" y="0" flags="0x204"/>
      <component glyphName="gravecomb.case" x="-275" y="0" flags="0x4"/>
    </TTGlyph>
    <TTGlyph name="Imacron" xMin="-55" yMin="0" xMax="557" yMax="1804">
      <component glyphName="I" x="0" y="0" flags="0x204"/>
      <component glyphName="uni0304.case" x="-275" y="0" flags="0x4"/>
    </TTGlyph>
    <TTGlyph name="Iogonek" xMin="21" yMin="-415" xMax="430" yMax="1480">
      <component glyphName="I" x="0" y="0" flags="0x204"/>
      <component glyphName="uni0328.case" x="-173" y="0" flags="0x4"/>
    </TTGlyph>
    <TTGlyph name="Itilde" xMin="-77" yMin="0" xMax="578" yMax="1849">
      <component glyphName="I" x="0" y="0" flags="0x204"/>
      <component glyphName="tildecomb.case" x="-275" y="0" flags="0x4"/>
    </TTGlyph>
    <TTGlyph name="J" xMin="-9" yMin="-344" xMax="331" yMax="1480">
      <contour>
        <pt x="98" y="-344" on="1"/>
        <pt x="-9" y="-271" on="1"/>
        <pt x="86" y="-141" on="0"/>
        <pt x="170" y="117" on="0"/>
        <pt x="170" y="291" on="1"/>
        <pt x="170" y="1480" on="1"/>
        <pt x="331" y="1480" on="1"/>
        <pt x="331" y="270" on="1"/>
        <pt x="325" y="93" on="0"/>
        <pt x="222" y="-191" on="0"/>
      </contour>
    </TTGlyph>
    <TTGlyph name="Jcircumflex" xMin="-69" yMin="-344" xMax="570" yMax="1892">
      <component glyphName="J" x="0" y="0" flags="0x204"/>
      <component glyphName="uni0302.case" x="-275" y="0" flags="0x4"/>
    </TTGlyph>
    <TTGlyph name="K" xMin="169" yMin="0" xMax="1260" yMax="1480">
      <contour>
        <pt x="169" y="0" on="1"/>
        <pt x="169" y="1480" on="1"/>
        <pt x="331" y="1480" on="1"/>
        <pt x="331" y="832" on="1"/>
        <pt x="551" y="832" on="1"/>
        <pt x="1040" y="1480" on="1"/>
        <pt x="1218" y="1480" on="1"/>
        <pt x="676" y="763" on="1"/>
        <pt x="1260" y="0" on="1"/>
        <pt x="1077" y="0" on="1"/>
        <pt x="549" y="686" on="1"/>
        <pt x="331" y="686" on="1"/>
        <pt x="331" y="0" on="1"/>
      </contour>
    </TTGlyph>
    <TTGlyph name="L" xMin="169" yMin="0" xMax="1060" yMax="1480">
      <contour>
        <pt x="169" y="0" on="1"/>
        <pt x="169" y="1480" on="1"/>
        <pt x="331" y="1480" on="1"/>
        <pt x="331" y="141" on="1"/>
        <pt x="1060" y="141" on="1"/>
        <pt x="1060" y="0" on="1"/>
      </contour>
    </TTGlyph>
    <TTGlyph name="Lacute" xMin="169" yMin="0" xMax="1060" yMax="1892">
      <component glyphName="L" x="0" y="0" flags="0x204"/>
      <component glyphName="acutecomb.case" x="-274" y="0" flags="0x4"/>
    </TTGlyph>
    <TTGlyph name="Lcaron" xMin="169" yMin="0" xMax="1060" yMax="1616">
      <component glyphName="L" x="0" y="0" flags="0x204"/>
      <component glyphName="uni030C.alt.case" x="174" y="0" flags="0x4"/>
    </TTGlyph>
    <TTGlyph name="Ldot" xMin="169" yMin="0" xMax="1060" yMax="1480">
      <component glyphName="L" x="0" y="0" flags="0x204"/>
      <component glyphName="periodcentered.CAT" x="551" y="203" flags="0x4"/>
    </TTGlyph>
    <TTGlyph name="Lslash" xMin="7" yMin="0" xMax="1065" yMax="1480">
      <component glyphName="L" x="5" y="0" flags="0x4"/>
      <component glyphName="uni0337.case" x="-144" y="21" flags="0x4"/>
    </TTGlyph>
    <TTGlyph name="M" xMin="173" yMin="0" xMax="1587" yMax="1480">
      <contour>
        <pt x="173" y="0" on="1"/>
        <pt x="173" y="1480" on="1"/>
        <pt x="366" y="1480" on="1"/>
        <pt x="883" y="368" on="1"/>
        <pt x="1394" y="1480" on="1"/>
        <pt x="1587" y="1480" on="1"/>
        <pt x="1587" y="0" on="1"/>
        <pt x="1434" y="0" on="1"/>
        <pt x="1434" y="1239" on="1"/>
        <pt x="953" y="205" on="1"/>
        <pt x="807" y="205" on="1"/>
        <pt x="326" y="1227" on="1"/>
        <pt x="326" y="0" on="1"/>
      </contour>
    </TTGlyph>
    <TTGlyph name="N" xMin="169" yMin="0" xMax="1300" yMax="1480">
      <contour>
        <pt x="169" y="0" on="1"/>
        <pt x="169" y="1480" on="1"/>
        <pt x="336" y="1480" on="1"/>
        <pt x="1147" y="247" on="1"/>
        <pt x="1147" y="1480" on="1"/>
        <pt x="1300" y="1480" on="1"/>
        <pt x="1300" y="0" on="1"/>
        <pt x="1133" y="0" on="1"/>
        <pt x="323" y="1233" on="1"/>
        <pt x="323" y="0" on="1"/>
      </contour>
    </TTGlyph>
    <TTGlyph name="Nacute" xMin="169" yMin="0" xMax="1300" yMax="1892">
      <component glyphName="N" x="0" y="0" flags="0x204"/>
      <component glyphName="acutecomb.case" x="209" y="0" flags="0x4"/>
    </TTGlyph>
    <TTGlyph name="Ncaron" xMin="169" yMin="0" xMax="1300" yMax="1892">
      <component glyphName="N" x="0" y="0" flags="0x204"/>
      <component glyphName="uni030C.case" x="209" y="0" flags="0x4"/>
    </TTGlyph>
    <TTGlyph name="Ntilde" xMin="169" yMin="0" xMax="1300" yMax="1849">
      <component glyphName="N" x="0" y="0" flags="0x204"/>
      <component glyphName="tildecomb.case" x="209" y="0" flags="0x4"/>
    </TTGlyph>
    <TTGlyph name="O" xMin="105" yMin="-19" xMax="1334" yMax="1499">
      <contour>
        <pt x="720" y="-19" on="1"/>
        <pt x="535" y="-19" on="0"/>
        <pt x="259" y="138" on="0"/>
        <pt x="105" y="473" on="0"/>
        <pt x="105" y="740" on="1"/>
        <pt x="105" y="1007" on="0"/>
        <pt x="259" y="1342" on="0"/>
        <pt x="536" y="1499" on="0"/>
        <pt x="720" y="1499" on="1"/>
        <pt x="904" y="1499" on="0"/>
        <pt x="1181" y="1342" on="0"/>
        <pt x="1334" y="1007" on="0"/>
        <pt x="1334" y="740" on="1"/>
        <pt x="1334" y="473" on="0"/>
        <pt x="1180" y="138" on="0"/>
        <pt x="903" y="-19" on="0"/>
      </contour>
      <contour>
        <pt x="720" y="120" on="1"/>
        <pt x="854" y="120" on="0"/>
        <pt x="1055" y="239" on="0"/>
        <pt x="1166" y="509" on="0"/>
        <pt x="1166" y="735" on="1"/>
        <pt x="1166" y="966" on="0"/>
        <pt x="1055" y="1240" on="0"/>
        <pt x="854" y="1360" on="0"/>
        <pt x="720" y="1360" on="1"/>
        <pt x="585" y="1360" on="0"/>
        <pt x="384" y="1241" on="0"/>
        <pt x="273" y="972" on="0"/>
        <pt x="273" y="745" on="1"/>
        <pt x="273" y="513" on="0"/>
        <pt x="384" y="240" on="0"/>
        <pt x="585" y="120" on="0"/>
      </contour>
    </TTGlyph>
    <TTGlyph name="OE" xMin="105" yMin="-11" xMax="1936" yMax="1493">
      <contour>
        <pt x="859" y="-11" on="1"/>
        <pt x="488" y="-11" on="0"/>
        <pt x="105" y="350" on="0"/>
        <pt x="105" y="740" on="1"/>
        <pt x="105" y="1124" on="0"/>
        <pt x="485" y="1493" on="0"/>
        <pt x="846" y="1493" on="1"/>
        <pt x="928" y="1493" on="0"/>
        <pt x="1087" y="1480" on="0"/>
        <pt x="1155" y="1480" on="1"/>
        <pt x="1926" y="1480" on="1"/>
        <pt x="1926" y="1343" on="1"/>
        <pt x="1203" y="1343" on="1"/>
        <pt x="1203" y="828" on="1"/>
        <pt x="1829" y="828" on="1"/>
        <pt x="1829" y="691" on="1"/>
        <pt x="1203" y="691" on="1"/>
        <pt x="1203" y="137" on="1"/>
        <pt x="1936" y="137" on="1"/>
        <pt x="1936" y="0" on="1"/>
        <pt x="1164" y="0" on="1"/>
        <pt x="1100" y="0" on="0"/>
        <pt x="938" y="-11" on="0"/>
      </contour>
      <contour>
        <pt x="834" y="128" on="1"/>
        <pt x="897" y="128" on="0"/>
        <pt x="1000" y="132" on="0"/>
        <pt x="1043" y="137" on="1"/>
        <pt x="1043" y="1343" on="1"/>
        <pt x="937" y="1355" on="0"/>
        <pt x="826" y="1355" on="1"/>
        <pt x="550" y="1355" on="0"/>
        <pt x="273" y="1062" on="0"/>
        <pt x="273" y="739" on="1"/>
        <pt x="273" y="414" on="0"/>
        <pt x="557" y="128" on="0"/>
      </contour>
    </TTGlyph>
    <TTGlyph name="Oacute" xMin="105" yMin="-19" xMax="1334" yMax="1892">
      <component glyphName="O" x="0" y="0" flags="0x204"/>
      <component glyphName="acutecomb.case" x="194" y="0" flags="0x4"/>
    </TTGlyph>
    <TTGlyph name="Obreve" xMin="105" yMin="-19" xMax="1334" yMax="1871">
      <component glyphName="O" x="0" y="0" flags="0x204"/>
      <component glyphName="uni0306.case" x="194" y="0" flags="0x4"/>
    </TTGlyph>
    <TTGlyph name="Ocircumflex" xMin="105" yMin="-19" xMax="1334" yMax="1892">
      <component glyphName="O" x="0" y="0" flags="0x204"/>
      <component glyphName="uni0302.case" x="194" y="0" flags="0x4"/>
    </TTGlyph>
    <TTGlyph name="Odieresis" xMin="105" yMin="-19" xMax="1334" yMax="1845">
      <component glyphName="O" x="0" y="0" flags="0x204"/>
      <component glyphName="uni0308.case" x="194" y="0" flags="0x4"/>
    </TTGlyph>
    <TTGlyph name="Ograve" xMin="105" yMin="-19" xMax="1334" yMax="1892">
      <component glyphName="O" x="0" y="0" flags="0x204"/>
      <component glyphName="gravecomb.case" x="194" y="0" flags="0x4"/>
    </TTGlyph>
    <TTGlyph name="Ohorn" xMin="105" yMin="-19" xMax="1338" yMax="1776">
      <contour>
        <pt x="720" y="-19" on="1"/>
        <pt x="535" y="-19" on="0"/>
        <pt x="259" y="138" on="0"/>
        <pt x="105" y="473" on="0"/>
        <pt x="105" y="740" on="1"/>
        <pt x="105" y="1007" on="0"/>
        <pt x="259" y="1342" on="0"/>
        <pt x="536" y="1499" on="0"/>
        <pt x="720" y="1499" on="1"/>
        <pt x="804" y="1499" on="0"/>
        <pt x="939" y="1476" on="0"/>
        <pt x="1022" y="1476" on="1"/>
        <pt x="1113" y="1476" on="0"/>
        <pt x="1216" y="1551" on="0"/>
        <pt x="1216" y="1635" on="1"/>
        <pt x="1216" y="1673" on="0"/>
        <pt x="1205" y="1739" on="0"/>
        <pt x="1194" y="1776" on="1"/>
        <pt x="1315" y="1776" on="1"/>
        <pt x="1338" y="1708" on="0"/>
        <pt x="1338" y="1628" on="1"/>
        <pt x="1338" y="1518" on="0"/>
        <pt x="1212" y="1392" on="0"/>
        <pt x="1102" y="1380" on="1"/>
        <pt x="1211" y="1295" on="0"/>
        <pt x="1334" y="979" on="0"/>
        <pt x="1334" y="740" on="1"/>
        <pt x="1334" y="471" on="0"/>
        <pt x="1180" y="137" on="0"/>
        <pt x="904" y="-19" on="0"/>
      </contour>
      <contour>
        <pt x="720" y="120" on="1"/>
        <pt x="854" y="120" on="0"/>
        <pt x="1055" y="239" on="0"/>
        <pt x="1166" y="509" on="0"/>
        <pt x="1166" y="735" on="1"/>
        <pt x="1166" y="966" on="0"/>
        <pt x="1055" y="1240" on="0"/>
        <pt x="854" y="1360" on="0"/>
        <pt x="720" y="1360" on="1"/>
        <pt x="585" y="1360" on="0"/>
        <pt x="384" y="1241" on="0"/>
        <pt x="273" y="972" on="0"/>
        <pt x="273" y="745" on="1"/>
        <pt x="273" y="513" on="0"/>
        <pt x="384" y="240" on="0"/>
        <pt x="585" y="120" on="0"/>
      </contour>
    </TTGlyph>
    <TTGlyph name="Ohungarumlaut" xMin="105" yMin="-19" xMax="1334" yMax="1892">
      <component glyphName="O" x="0" y="0" flags="0x204"/>
      <component glyphName="uni030B.case" x="194" y="0" flags="0x4"/>
    </TTGlyph>
    <TTGlyph name="Omacron" xMin="105" yMin="-19" xMax="1334" yMax="1804">
      <component glyphName="O" x="0" y="0" flags="0x204"/>
      <component glyphName="uni0304.case" x="194" y="0" flags="0x4"/>
    </TTGlyph>
    <TTGlyph name="Oslash" xMin="104" yMin="-19" xMax="1334" yMax="1499">
      <component glyphName="O" x="0" y="0" flags="0x204"/>
      <component glyphName="slashcomb.case" x="7" y="0" flags="0x4"/>
    </TTGlyph>
    <TTGlyph name="Oslashacute" xMin="104" yMin="-19" xMax="1334" yMax="1892">
      <component glyphName="Oslash" x="0" y="0" flags="0x204"/>
      <component glyphName="acutecomb.case" x="191" y="0" flags="0x4"/>
    </TTGlyph>
    <TTGlyph name="Otilde" xMin="105" yMin="-19" xMax="1334" yMax="1849">
      <component glyphName="O" x="0" y="0" flags="0x204"/>
      <component glyphName="tildecomb.case" x="194" y="0" flags="0x4"/>
    </TTGlyph>
    <TTGlyph name="P" xMin="169" yMin="0" xMax="1143" yMax="1496">
      <contour>
        <pt x="169" y="0" on="1"/>
        <pt x="169" y="1458" on="1"/>
        <pt x="261" y="1476" on="0"/>
        <pt x="446" y="1496" on="0"/>
        <pt x="549" y="1496" on="1"/>
        <pt x="842" y="1496" on="0"/>
        <pt x="1143" y="1252" on="0"/>
        <pt x="1143" y="991" on="1"/>
        <pt x="1143" y="744" on="0"/>
        <pt x="843" y="485" on="0"/>
        <pt x="526" y="485" on="1"/>
        <pt x="474" y="485" on="0"/>
        <pt x="382" y="490" on="0"/>
        <pt x="331" y="494" on="1"/>
        <pt x="331" y="0" on="1"/>
      </contour>
      <contour>
        <pt x="529" y="617" on="1"/>
        <pt x="767" y="617" on="0"/>
        <pt x="982" y="799" on="0"/>
        <pt x="982" y="988" on="1"/>
        <pt x="982" y="1185" on="0"/>
        <pt x="773" y="1364" on="0"/>
        <pt x="560" y="1364" on="1"/>
        <pt x="495" y="1364" on="0"/>
        <pt x="384" y="1355" on="0"/>
        <pt x="331" y="1346" on="1"/>
        <pt x="331" y="629" on="1"/>
        <pt x="421" y="617" on="0"/>
      </contour>
    </TTGlyph>
    <TTGlyph name="Q" xMin="105" yMin="-230" xMax="1334" yMax="1499">
      <contour>
        <pt x="1284" y="-230" on="1"/>
        <pt x="942" y="-188" on="0"/>
        <pt x="486" y="-41" on="0"/>
        <pt x="219" y="189" on="0"/>
        <pt x="105" y="516" on="0"/>
        <pt x="105" y="737" on="1"/>
        <pt x="105" y="1006" on="0"/>
        <pt x="259" y="1342" on="0"/>
        <pt x="536" y="1499" on="0"/>
        <pt x="720" y="1499" on="1"/>
        <pt x="903" y="1499" on="0"/>
        <pt x="1180" y="1343" on="0"/>
        <pt x="1334" y="1009" on="0"/>
        <pt x="1334" y="740" on="1"/>
        <pt x="1334" y="397" on="0"/>
        <pt x="1064" y="15" on="0"/>
        <pt x="800" y="-4" on="1"/>
        <pt x="920" y="-40" on="0"/>
        <pt x="1183" y="-83" on="0"/>
        <pt x="1310" y="-95" on="1"/>
      </contour>
      <contour>
        <pt x="720" y="120" on="1"/>
        <pt x="854" y="120" on="0"/>
        <pt x="1055" y="239" on="0"/>
        <pt x="1166" y="509" on="0"/>
        <pt x="1166" y="735" on="1"/>
        <pt x="1166" y="966" on="0"/>
        <pt x="1055" y="1240" on="0"/>
        <pt x="854" y="1360" on="0"/>
        <pt x="720" y="1360" on="1"/>
        <pt x="585" y="1360" on="0"/>
        <pt x="384" y="1241" on="0"/>
        <pt x="273" y="972" on="0"/>
        <pt x="273" y="745" on="1"/>
        <pt x="273" y="513" on="0"/>
        <pt x="384" y="239" on="0"/>
        <pt x="584" y="120" on="0"/>
      </contour>
    </TTGlyph>
    <TTGlyph name="R" xMin="169" yMin="0" xMax="1257" yMax="1496">
      <contour>
        <pt x="169" y="0" on="1"/>
        <pt x="169" y="1456" on="1"/>
        <pt x="254" y="1472" on="0"/>
        <pt x="448" y="1496" on="0"/>
        <pt x="564" y="1496" on="1"/>
        <pt x="856" y="1496" on="0"/>
        <pt x="1142" y="1283" on="0"/>
        <pt x="1142" y="1058" on="1"/>
        <pt x="1143" y="886" on="0"/>
        <pt x="957" y="674" on="0"/>
        <pt x="777" y="635" on="1"/>
        <pt x="1257" y="0" on="1"/>
        <pt x="1071" y="0" on="1"/>
        <pt x="611" y="613" on="1"/>
        <pt x="574" y="611" on="0"/>
        <pt x="534" y="611" on="1"/>
        <pt x="472" y="611" on="0"/>
        <pt x="379" y="616" on="0"/>
        <pt x="329" y="620" on="1"/>
        <pt x="329" y="0" on="1"/>
      </contour>
      <contour>
        <pt x="535" y="741" on="1"/>
        <pt x="773" y="741" on="0"/>
        <pt x="987" y="895" on="0"/>
        <pt x="987" y="1055" on="1"/>
        <pt x="987" y="1221" on="0"/>
        <pt x="791" y="1366" on="0"/>
        <pt x="573" y="1366" on="1"/>
        <pt x="498" y="1366" on="0"/>
        <pt x="386" y="1355" on="0"/>
        <pt x="329" y="1345" on="1"/>
        <pt x="329" y="751" on="1"/>
        <pt x="387" y="746" on="0"/>
        <pt x="474" y="741" on="0"/>
      </contour>
    </TTGlyph>
    <TTGlyph name="Racute" xMin="169" yMin="0" xMax="1257" yMax="1892">
      <component glyphName="R" x="0" y="0" flags="0x204"/>
      <component glyphName="acutecomb.case" x="104" y="0" flags="0x4"/>
    </TTGlyph>
    <TTGlyph name="Rcaron" xMin="169" yMin="0" xMax="1257" yMax="1892">
      <component glyphName="R" x="0" y="0" flags="0x204"/>
      <component glyphName="uni030C.case" x="104" y="0" flags="0x4"/>
    </TTGlyph>
    <TTGlyph name="S" xMin="74" yMin="-19" xMax="989" yMax="1499">
      <contour>
        <pt x="462" y="-19" on="1"/>
        <pt x="374" y="-19" on="0"/>
        <pt x="183" y="11" on="0"/>
        <pt x="97" y="41" on="1"/>
        <pt x="97" y="181" on="1"/>
        <pt x="190" y="149" on="0"/>
        <pt x="380" y="119" on="0"/>
        <pt x="464" y="119" on="1"/>
        <pt x="648" y="119" on="0"/>
        <pt x="824" y="258" on="0"/>
        <pt x="824" y="391" on="1"/>
        <pt x="824" y="504" on="0"/>
        <pt x="690" y="623" on="0"/>
        <pt x="531" y="665" on="1"/>
        <pt x="451" y="686" on="1"/>
        <pt x="262" y="734" on="0"/>
        <pt x="74" y="929" on="0"/>
        <pt x="74" y="1089" on="1"/>
        <pt x="74" y="1279" on="0"/>
        <pt x="339" y="1499" on="0"/>
        <pt x="601" y="1499" on="1"/>
        <pt x="686" y="1499" on="0"/>
        <pt x="855" y="1476" on="0"/>
        <pt x="924" y="1454" on="1"/>
        <pt x="924" y="1314" on="1"/>
        <pt x="848" y="1338" on="0"/>
        <pt x="687" y="1361" on="0"/>
        <pt x="605" y="1361" on="1"/>
        <pt x="415" y="1361" on="0"/>
        <pt x="238" y="1222" on="0"/>
        <pt x="238" y="1098" on="1"/>
        <pt x="238" y="989" on="0"/>
        <pt x="360" y="869" on="0"/>
        <pt x="510" y="829" on="1"/>
        <pt x="591" y="809" on="1"/>
        <pt x="796" y="757" on="0"/>
        <pt x="989" y="562" on="0"/>
        <pt x="989" y="401" on="1"/>
        <pt x="989" y="201" on="0"/>
        <pt x="713" y="-19" on="0"/>
      </contour>
    </TTGlyph>
    <TTGlyph name="Sacute" xMin="74" yMin="-19" xMax="989" yMax="1892">
      <component glyphName="S" x="0" y="0" flags="0x204"/>
      <component glyphName="acutecomb.case" x="14" y="0" flags="0x4"/>
    </TTGlyph>
    <TTGlyph name="Scaron" xMin="74" yMin="-19" xMax="989" yMax="1892">
      <component glyphName="S" x="0" y="0" flags="0x204"/>
      <component glyphName="uni030C.case" x="14" y="0" flags="0x4"/>
    </TTGlyph>
    <TTGlyph name="Scedilla" xMin="74" yMin="-415" xMax="989" yMax="1499">
      <component glyphName="S" x="0" y="0" flags="0x204"/>
      <component glyphName="uni0327.case" x="14" y="0" flags="0x4"/>
    </TTGlyph>
    <TTGlyph name="Scircumflex" xMin="74" yMin="-19" xMax="989" yMax="1892">
      <component glyphName="S" x="0" y="0" flags="0x204"/>
      <component glyphName="uni0302.case" x="14" y="0" flags="0x4"/>
    </TTGlyph>
    <TTGlyph name="T" xMin="14" yMin="0" xMax="1162" yMax="1480">
      <contour>
        <pt x="507" y="0" on="1"/>
        <pt x="507" y="1339" on="1"/>
        <pt x="14" y="1339" on="1"/>
        <pt x="14" y="1480" on="1"/>
        <pt x="1162" y="1480" on="1"/>
        <pt x="1162" y="1339" on="1"/>
        <pt x="669" y="1339" on="1"/>
        <pt x="669" y="0" on="1"/>
      </contour>
    </TTGlyph>
    <TTGlyph name="Tbar" xMin="14" yMin="0" xMax="1162" yMax="1480">
      <component glyphName="T" x="0" y="0" flags="0x204"/>
      <component glyphName="uni0335.case" x="89" y="-306" flags="0x4"/>
    </TTGlyph>
    <TTGlyph name="Tcaron" xMin="14" yMin="0" xMax="1162" yMax="1892">
      <component glyphName="T" x="0" y="0" flags="0x204"/>
      <component glyphName="uni030C.case" x="62" y="0" flags="0x4"/>
    </TTGlyph>
    <TTGlyph name="Thorn" xMin="169" yMin="0" xMax="1143" yMax="1481">
      <contour>
        <pt x="169" y="0" on="1"/>
        <pt x="169" y="1481" on="1"/>
        <pt x="331" y="1481" on="1"/>
        <pt x="331" y="1248" on="1"/>
        <pt x="374" y="1255" on="0"/>
        <pt x="484" y="1265" on="0"/>
        <pt x="551" y="1265" on="1"/>
        <pt x="843" y="1265" on="0"/>
        <pt x="1143" y="1022" on="0"/>
        <pt x="1143" y="761" on="1"/>
        <pt x="1143" y="514" on="0"/>
        <pt x="844" y="255" on="0"/>
        <pt x="527" y="255" on="1"/>
        <pt x="431" y="255" on="0"/>
        <pt x="331" y="264" on="1"/>
        <pt x="331" y="0" on="1"/>
      </contour>
      <contour>
        <pt x="529" y="386" on="1"/>
        <pt x="767" y="386" on="0"/>
        <pt x="982" y="569" on="0"/>
        <pt x="982" y="758" on="1"/>
        <pt x="982" y="955" on="0"/>
        <pt x="773" y="1134" on="0"/>
        <pt x="560" y="1134" on="1"/>
        <pt x="495" y="1134" on="0"/>
        <pt x="384" y="1124" on="0"/>
        <pt x="331" y="1115" on="1"/>
        <pt x="331" y="398" on="1"/>
        <pt x="422" y="386" on="0"/>
      </contour>
    </TTGlyph>
    <TTGlyph name="U" xMin="162" yMin="-19" xMax="1255" yMax="1480">
      <contour>
        <pt x="710" y="-19" on="1"/>
        <pt x="427" y="-19" on="0"/>
        <pt x="162" y="263" on="0"/>
        <pt x="162" y="560" on="1"/>
        <pt x="162" y="1480" on="1"/>
        <pt x="324" y="1480" on="1"/>
        <pt x="324" y="542" on="1"/>
        <pt x="324" y="323" on="0"/>
        <pt x="510" y="121" on="0"/>
        <pt x="710" y="121" on="1"/>
        <pt x="910" y="121" on="0"/>
        <pt x="1097" y="323" on="0"/>
        <pt x="1097" y="542" on="1"/>
        <pt x="1097" y="1480" on="1"/>
        <pt x="1255" y="1480" on="1"/>
        <pt x="1255" y="560" on="1"/>
        <pt x="1255" y="263" on="0"/>
        <pt x="993" y="-19" on="0"/>
      </contour>
    </TTGlyph>
    <TTGlyph name="Uacute" xMin="162" yMin="-19" xMax="1255" yMax="1892">
      <component glyphName="U" x="0" y="0" flags="0x204"/>
      <component glyphName="acutecomb.case" x="185" y="0" flags="0x4"/>
    </TTGlyph>
    <TTGlyph name="Ubreve" xMin="162" yMin="-19" xMax="1255" yMax="1871">
      <component glyphName="U" x="0" y="0" flags="0x204"/>
      <component glyphName="uni0306.case" x="185" y="0" flags="0x4"/>
    </TTGlyph>
    <TTGlyph name="Ucircumflex" xMin="162" yMin="-19" xMax="1255" yMax="1892">
      <component glyphName="U" x="0" y="0" flags="0x204"/>
      <component glyphName="uni0302.case" x="185" y="0" flags="0x4"/>
    </TTGlyph>
    <TTGlyph name="Udieresis" xMin="162" yMin="-19" xMax="1255" yMax="1845">
      <component glyphName="U" x="0" y="0" flags="0x204"/>
      <component glyphName="uni0308.case" x="185" y="0" flags="0x4"/>
    </TTGlyph>
    <TTGlyph name="Ugrave" xMin="162" yMin="-19" xMax="1255" yMax="1892">
      <component glyphName="U" x="0" y="0" flags="0x204"/>
      <component glyphName="gravecomb.case" x="185" y="0" flags="0x4"/>
    </TTGlyph>
    <TTGlyph name="Uhorn" xMin="162" yMin="-19" xMax="1472" yMax="1776">
      <contour>
        <pt x="710" y="-19" on="1"/>
        <pt x="427" y="-19" on="0"/>
        <pt x="162" y="263" on="0"/>
        <pt x="162" y="560" on="1"/>
        <pt x="162" y="1480" on="1"/>
        <pt x="324" y="1480" on="1"/>
        <pt x="324" y="542" on="1"/>
        <pt x="324" y="323" on="0"/>
        <pt x="510" y="121" on="0"/>
        <pt x="710" y="121" on="1"/>
        <pt x="910" y="121" on="0"/>
        <pt x="1097" y="323" on="0"/>
        <pt x="1097" y="542" on="1"/>
        <pt x="1097" y="1480" on="1"/>
        <pt x="1156" y="1480" on="1"/>
        <pt x="1247" y="1480" on="0"/>
        <pt x="1351" y="1551" on="0"/>
        <pt x="1351" y="1635" on="1"/>
        <pt x="1351" y="1673" on="0"/>
        <pt x="1339" y="1739" on="0"/>
        <pt x="1328" y="1776" on="1"/>
        <pt x="1449" y="1776" on="1"/>
        <pt x="1472" y="1708" on="0"/>
        <pt x="1472" y="1628" on="1"/>
        <pt x="1472" y="1524" on="0"/>
        <pt x="1355" y="1404" on="0"/>
        <pt x="1255" y="1393" on="1"/>
        <pt x="1255" y="560" on="1"/>
        <pt x="1255" y="263" on="0"/>
        <pt x="993" y="-19" on="0"/>
      </contour>
    </TTGlyph>
    <TTGlyph name="Uhungarumlaut" xMin="162" yMin="-19" xMax="1255" yMax="1892">
      <component glyphName="U" x="0" y="0" flags="0x204"/>
      <component glyphName="uni030B.case" x="185" y="0" flags="0x4"/>
    </TTGlyph>
    <TTGlyph name="Umacron" xMin="162" yMin="-19" xMax="1255" yMax="1804">
      <component glyphName="U" x="0" y="0" flags="0x204"/>
      <component glyphName="uni0304.case" x="185" y="0" flags="0x4"/>
    </TTGlyph>
    <TTGlyph name="Uogonek" xMin="162" yMin="-414" xMax="1255" yMax="1480">
      <contour>
        <pt x="801" y="-414" on="1"/>
        <pt x="685" y="-414" on="0"/>
        <pt x="566" y="-316" on="0"/>
        <pt x="566" y="-228" on="1"/>
        <pt x="566" y="-170" on="0"/>
        <pt x="626" y="-62" on="0"/>
        <pt x="699" y="-18" on="1"/>
        <pt x="421" y="-16" on="0"/>
        <pt x="162" y="266" on="0"/>
        <pt x="162" y="560" on="1"/>
        <pt x="162" y="1480" on="1"/>
        <pt x="324" y="1480" on="1"/>
        <pt x="324" y="542" on="1"/>
        <pt x="324" y="323" on="0"/>
        <pt x="510" y="121" on="0"/>
        <pt x="710" y="121" on="1"/>
        <pt x="910" y="121" on="0"/>
        <pt x="1097" y="323" on="0"/>
        <pt x="1097" y="542" on="1"/>
        <pt x="1097" y="1480" on="1"/>
        <pt x="1255" y="1480" on="1"/>
        <pt x="1255" y="560" on="1"/>
        <pt x="1255" y="337" on="0"/>
        <pt x="1103" y="60" on="0"/>
        <pt x="932" y="9" on="1"/>
        <pt x="778" y="-37" on="0"/>
        <pt x="668" y="-156" on="0"/>
        <pt x="668" y="-219" on="1"/>
        <pt x="668" y="-334" on="0"/>
        <pt x="815" y="-334" on="1"/>
        <pt x="883" y="-334" on="0"/>
        <pt x="975" y="-297" on="1"/>
        <pt x="975" y="-377" on="1"/>
        <pt x="890" y="-414" on="0"/>
      </contour>
    </TTGlyph>
    <TTGlyph name="Uring" xMin="162" yMin="-19" xMax="1255" yMax="1987">
      <component glyphName="U" x="0" y="0" flags="0x204"/>
      <component glyphName="uni030A.case" x="185" y="0" flags="0x4"/>
    </TTGlyph>
    <TTGlyph name="Utilde" xMin="162" yMin="-19" xMax="1255" yMax="1849">
      <component glyphName="U" x="0" y="0" flags="0x204"/>
      <component glyphName="tildecomb.case" x="185" y="0" flags="0x4"/>
    </TTGlyph>
    <TTGlyph name="V" xMin="11" yMin="0" xMax="1303" yMax="1480">
      <contour>
        <pt x="539" y="0" on="1"/>
        <pt x="11" y="1480" on="1"/>
        <pt x="183" y="1480" on="1"/>
        <pt x="661" y="125" on="1"/>
        <pt x="1142" y="1480" on="1"/>
        <pt x="1303" y="1480" on="1"/>
        <pt x="775" y="0" on="1"/>
      </contour>
    </TTGlyph>
    <TTGlyph name="W" xMin="55" yMin="0" xMax="2060" yMax="1480">
      <contour>
        <pt x="472" y="0" on="1"/>
        <pt x="55" y="1480" on="1"/>
        <pt x="222" y="1480" on="1"/>
        <pt x="588" y="150" on="1"/>
        <pt x="966" y="1480" on="1"/>
        <pt x="1157" y="1480" on="1"/>
        <pt x="1533" y="145" on="1"/>
        <pt x="1903" y="1480" on="1"/>
        <pt x="2060" y="1480" on="1"/>
        <pt x="1643" y="0" on="1"/>
        <pt x="1431" y="0" on="1"/>
        <pt x="1060" y="1303" on="1"/>
        <pt x="685" y="0" on="1"/>
      </contour>
    </TTGlyph>
    <TTGlyph name="Wacute" xMin="55" yMin="0" xMax="2060" yMax="1892">
      <component glyphName="W" x="0" y="0" flags="0x204"/>
      <component glyphName="acutecomb.case" x="533" y="0" flags="0x4"/>
    </TTGlyph>
    <TTGlyph name="Wcircumflex" xMin="55" yMin="0" xMax="2060" yMax="1892">
      <component glyphName="W" x="0" y="0" flags="0x204"/>
      <component glyphName="uni0302.case" x="533" y="0" flags="0x4"/>
    </TTGlyph>
    <TTGlyph name="Wdieresis" xMin="55" yMin="0" xMax="2060" yMax="1845">
      <component glyphName="W" x="0" y="0" flags="0x204"/>
      <component glyphName="uni0308.case" x="533" y="0" flags="0x4"/>
    </TTGlyph>
    <TTGlyph name="Wgrave" xMin="55" yMin="0" xMax="2060" yMax="1892">
      <component glyphName="W" x="0" y="0" flags="0x204"/>
      <component glyphName="gravecomb.case" x="533" y="0" flags="0x4"/>
    </TTGlyph>
    <TTGlyph name="X" xMin="11" yMin="0" xMax="1266" yMax="1480">
      <contour>
        <pt x="11" y="0" on="1"/>
        <pt x="542" y="754" on="1"/>
        <pt x="30" y="1480" on="1"/>
        <pt x="216" y="1480" on="1"/>
        <pt x="639" y="879" on="1"/>
        <pt x="1063" y="1480" on="1"/>
        <pt x="1245" y="1480" on="1"/>
        <pt x="734" y="756" on="1"/>
        <pt x="1266" y="0" on="1"/>
        <pt x="1080" y="0" on="1"/>
        <pt x="637" y="631" on="1"/>
        <pt x="194" y="0" on="1"/>
      </contour>
    </TTGlyph>
    <TTGlyph name="Y" xMin="-31" yMin="0" xMax="1197" yMax="1480">
      <contour>
        <pt x="507" y="0" on="1"/>
        <pt x="507" y="658" on="1"/>
        <pt x="-31" y="1480" on="1"/>
        <pt x="148" y="1480" on="1"/>
        <pt x="592" y="801" on="1"/>
        <pt x="1029" y="1480" on="1"/>
        <pt x="1197" y="1480" on="1"/>
        <pt x="670" y="659" on="1"/>
        <pt x="670" y="0" on="1"/>
      </contour>
    </TTGlyph>
    <TTGlyph name="Yacute" xMin="-31" yMin="0" xMax="1197" yMax="1892">
      <component glyphName="Y" x="0" y="0" flags="0x204"/>
      <component glyphName="acutecomb.case" x="62" y="0" flags="0x4"/>
    </TTGlyph>
    <TTGlyph name="Ycircumflex" xMin="-31" yMin="0" xMax="1197" yMax="1892">
      <component glyphName="Y" x="0" y="0" flags="0x204"/>
      <component glyphName="uni0302.case" x="62" y="0" flags="0x4"/>
    </TTGlyph>
    <TTGlyph name="Ydieresis" xMin="-31" yMin="0" xMax="1197" yMax="1845">
      <component glyphName="Y" x="0" y="0" flags="0x204"/>
      <component glyphName="uni0308.case" x="62" y="0" flags="0x4"/>
    </TTGlyph>
    <TTGlyph name="Ygrave" xMin="-31" yMin="0" xMax="1197" yMax="1892">
      <component glyphName="Y" x="0" y="0" flags="0x204"/>
      <component glyphName="gravecomb.case" x="62" y="0" flags="0x4"/>
    </TTGlyph>
    <TTGlyph name="Z" xMin="62" yMin="0" xMax="1091" yMax="1480">
      <contour>
        <pt x="62" y="0" on="1"/>
        <pt x="62" y="91" on="1"/>
        <pt x="867" y="1341" on="1"/>
        <pt x="73" y="1341" on="1"/>
        <pt x="73" y="1480" on="1"/>
        <pt x="1080" y="1480" on="1"/>
        <pt x="1080" y="1389" on="1"/>
        <pt x="275" y="139" on="1"/>
        <pt x="1091" y="139" on="1"/>
        <pt x="1091" y="0" on="1"/>
      </contour>
    </TTGlyph>
    <TTGlyph name="Zacute" xMin="62" yMin="0" xMax="1091" yMax="1892">
      <component glyphName="Z" x="0" y="0" flags="0x204"/>
      <component glyphName="acutecomb.case" x="51" y="0" flags="0x4"/>
    </TTGlyph>
    <TTGlyph name="Zcaron" xMin="62" yMin="0" xMax="1091" yMax="1892">
      <component glyphName="Z" x="0" y="0" flags="0x204"/>
      <component glyphName="uni030C.case" x="51" y="0" flags="0x4"/>
    </TTGlyph>
    <TTGlyph name="Zdotaccent" xMin="62" yMin="0" xMax="1091" yMax="1845">
      <component glyphName="Z" x="0" y="0" flags="0x204"/>
      <component glyphName="uni0307.case" x="51" y="0" flags="0x4"/>
    </TTGlyph>
    <TTGlyph name="a" xMin="92" yMin="-18" xMax="890" yMax="1102">
      <contour>
        <pt x="420" y="-18" on="1"/>
        <pt x="267" y="-18" on="0"/>
        <pt x="92" y="140" on="0"/>
        <pt x="92" y="278" on="1"/>
        <pt x="92" y="420" on="0"/>
        <pt x="279" y="579" on="0"/>
        <pt x="486" y="599" on="1"/>
        <pt x="733" y="626" on="1"/>
        <pt x="733" y="718" on="1"/>
        <pt x="733" y="867" on="0"/>
        <pt x="593" y="971" on="0"/>
        <pt x="453" y="971" on="1"/>
        <pt x="391" y="971" on="0"/>
        <pt x="237" y="948" on="0"/>
        <pt x="160" y="923" on="1"/>
        <pt x="160" y="1054" on="1"/>
        <pt x="229" y="1077" on="0"/>
        <pt x="399" y="1102" on="0"/>
        <pt x="474" y="1102" on="1"/>
        <pt x="680" y="1102" on="0"/>
        <pt x="890" y="932" on="0"/>
        <pt x="890" y="711" on="1"/>
        <pt x="890" y="0" on="1"/>
        <pt x="756" y="0" on="1"/>
        <pt x="744" y="121" on="1"/>
        <pt x="734" y="121" on="1"/>
        <pt x="681" y="54" on="0"/>
        <pt x="516" y="-18" on="0"/>
      </contour>
      <contour>
        <pt x="254" y="293" on="1"/>
        <pt x="254" y="106" on="0"/>
        <pt x="461" y="106" on="1"/>
        <pt x="532" y="106" on="0"/>
        <pt x="676" y="167" on="0"/>
        <pt x="733" y="239" on="1"/>
        <pt x="733" y="518" on="1"/>
        <pt x="496" y="492" on="1"/>
        <pt x="367" y="479" on="0"/>
        <pt x="254" y="380" on="0"/>
      </contour>
    </TTGlyph>
    <TTGlyph name="a.sc" xMin="31" yMin="0" xMax="1153" yMax="1190">
      <contour>
        <pt x="31" y="0" on="1"/>
        <pt x="476" y="1190" on="1"/>
        <pt x="706" y="1190" on="1"/>
        <pt x="1153" y="0" on="1"/>
        <pt x="989" y="0" on="1"/>
        <pt x="853" y="371" on="1"/>
        <pt x="327" y="371" on="1"/>
        <pt x="190" y="0" on="1"/>
      </contour>
      <contour>
        <pt x="373" y="499" on="1"/>
        <pt x="806" y="499" on="1"/>
        <pt x="590" y="1087" on="1"/>
      </contour>
    </TTGlyph>
    <TTGlyph name="aacute" xMin="92" yMin="-18" xMax="890" yMax="1616">
      <component glyphName="a" x="0" y="0" flags="0x204"/>
      <component glyphName="acutecomb" x="-15" y="0" flags="0x4"/>
    </TTGlyph>
    <TTGlyph name="aacute.sc" xMin="31" yMin="0" xMax="1153" yMax="1602">
      <component glyphName="a.sc" x="0" y="0" flags="0x204"/>
      <component glyphName="acutecomb.sc" x="66" y="-290" flags="0x4"/>
    </TTGlyph>
    <TTGlyph name="abreve" xMin="92" yMin="-18" xMax="890" yMax="1590">
      <component glyphName="a" x="0" y="0" flags="0x204"/>
      <component glyphName="uni0306" x="-15" y="0" flags="0x4"/>
    </TTGlyph>
    <TTGlyph name="abreve.sc" xMin="31" yMin="0" xMax="1153" yMax="1581">
      <component glyphName="a.sc" x="0" y="0" flags="0x204"/>
      <component glyphName="uni0306.sc" x="66" y="-290" flags="0x4"/>
    </TTGlyph>
    <TTGlyph name="acircumflex" xMin="92" yMin="-18" xMax="890" yMax="1616">
      <component glyphName="a" x="0" y="0" flags="0x204"/>
      <component glyphName="uni0302" x="-15" y="0" flags="0x4"/>
    </TTGlyph>
    <TTGlyph name="acircumflex.sc" xMin="31" yMin="0" xMax="1153" yMax="1602">
      <component glyphName="a.sc" x="0" y="0" flags="0x204"/>
      <component glyphName="uni0302.sc" x="66" y="-290" flags="0x4"/>
    </TTGlyph>
    <TTGlyph name="acute" xMin="452" yMin="1253" xMax="840" yMax="1616">
      <component glyphName="acutecomb" x="0" y="0" flags="0x4"/>
    </TTGlyph>
    <TTGlyph name="acutecomb" xMin="452" yMin="1253" xMax="840" yMax="1616">
      <contour>
        <pt x="452" y="1253" on="1"/>
        <pt x="666" y="1616" on="1"/>
        <pt x="840" y="1616" on="1"/>
        <pt x="599" y="1253" on="1"/>
      </contour>
    </TTGlyph>
    <TTGlyph name="acutecomb.case" xMin="452" yMin="1608" xMax="802" yMax="1892">
      <contour>
        <pt x="452" y="1608" on="1"/>
        <pt x="629" y="1892" on="1"/>
        <pt x="802" y="1892" on="1"/>
        <pt x="598" y="1608" on="1"/>
      </contour>
    </TTGlyph>
    <TTGlyph name="acutecomb.sc" xMin="452" yMin="1608" xMax="802" yMax="1892">
      <component glyphName="acutecomb.case" x="0" y="0" flags="0x204"/>
    </TTGlyph>
    <TTGlyph name="adieresis" xMin="92" yMin="-18" xMax="890" yMax="1521">
      <component glyphName="a" x="0" y="0" flags="0x204"/>
      <component glyphName="uni0308" x="-15" y="0" flags="0x4"/>
    </TTGlyph>
    <TTGlyph name="adieresis.sc" xMin="31" yMin="0" xMax="1153" yMax="1555">
      <component glyphName="a.sc" x="0" y="0" flags="0x204"/>
      <component glyphName="uni0308.sc" x="66" y="-290" flags="0x4"/>
    </TTGlyph>
    <TTGlyph name="ae" xMin="92" yMin="-19" xMax="1578" yMax="1102">
      <contour>
        <pt x="432" y="-18" on="1"/>
        <pt x="273" y="-18" on="0"/>
        <pt x="92" y="139" on="0"/>
        <pt x="92" y="278" on="1"/>
        <pt x="92" y="419" on="0"/>
        <pt x="284" y="599" on="0"/>
        <pt x="510" y="599" on="1"/>
        <pt x="734" y="599" on="1"/>
        <pt x="734" y="720" on="1"/>
        <pt x="734" y="868" on="0"/>
        <pt x="592" y="971" on="0"/>
        <pt x="453" y="971" on="1"/>
        <pt x="391" y="971" on="0"/>
        <pt x="237" y="948" on="0"/>
        <pt x="161" y="923" on="1"/>
        <pt x="161" y="1054" on="1"/>
        <pt x="231" y="1078" on="0"/>
        <pt x="395" y="1102" on="0"/>
        <pt x="469" y="1102" on="1"/>
        <pt x="609" y="1102" on="0"/>
        <pt x="792" y="1019" on="0"/>
        <pt x="834" y="922" on="1"/>
        <pt x="887" y="1013" on="0"/>
        <pt x="1056" y="1102" on="0"/>
        <pt x="1167" y="1102" on="1"/>
        <pt x="1359" y="1102" on="0"/>
        <pt x="1578" y="832" on="0"/>
        <pt x="1578" y="541" on="1"/>
        <pt x="1578" y="490" on="1"/>
        <pt x="891" y="490" on="1"/>
        <pt x="897" y="281" on="0"/>
        <pt x="1077" y="111" on="0"/>
        <pt x="1256" y="111" on="1"/>
        <pt x="1374" y="111" on="0"/>
        <pt x="1524" y="155" on="1"/>
        <pt x="1524" y="24" on="1"/>
        <pt x="1446" y="1" on="0"/>
        <pt x="1306" y="-19" on="0"/>
        <pt x="1238" y="-19" on="1"/>
        <pt x="1088" y="-19" on="0"/>
        <pt x="877" y="73" on="0"/>
        <pt x="816" y="173" on="1"/>
        <pt x="728" y="63" on="0"/>
        <pt x="533" y="-18" on="0"/>
      </contour>
      <contour>
        <pt x="1160" y="986" on="1"/>
        <pt x="1039" y="986" on="0"/>
        <pt x="895" y="814" on="0"/>
        <pt x="891" y="599" on="1"/>
        <pt x="1424" y="599" on="1"/>
        <pt x="1419" y="816" on="0"/>
        <pt x="1281" y="986" on="0"/>
      </contour>
      <contour>
        <pt x="463" y="106" on="1"/>
        <pt x="543" y="106" on="0"/>
        <pt x="704" y="181" on="0"/>
        <pt x="769" y="279" on="1"/>
        <pt x="740" y="370" on="0"/>
        <pt x="735" y="492" on="1"/>
        <pt x="518" y="492" on="1"/>
        <pt x="371" y="492" on="0"/>
        <pt x="254" y="378" on="0"/>
        <pt x="254" y="291" on="1"/>
        <pt x="254" y="106" on="0"/>
      </contour>
    </TTGlyph>
    <TTGlyph name="ae.sc" xMin="31" yMin="0" xMax="1546" yMax="1190">
      <contour>
        <pt x="31" y="0" on="1"/>
        <pt x="482" y="1190" on="1"/>
        <pt x="1538" y="1190" on="1"/>
        <pt x="1538" y="1063" on="1"/>
        <pt x="892" y="1063" on="1"/>
        <pt x="921" y="672" on="1"/>
        <pt x="1453" y="672" on="1"/>
        <pt x="1453" y="546" on="1"/>
        <pt x="931" y="546" on="1"/>
        <pt x="962" y="127" on="1"/>
        <pt x="1546" y="127" on="1"/>
        <pt x="1546" y="0" on="1"/>
        <pt x="815" y="0" on="1"/>
        <pt x="788" y="372" on="1"/>
        <pt x="331" y="372" on="1"/>
        <pt x="191" y="0" on="1"/>
      </contour>
      <contour>
        <pt x="591" y="1063" on="1"/>
        <pt x="379" y="499" on="1"/>
        <pt x="778" y="499" on="1"/>
        <pt x="737" y="1063" on="1"/>
      </contour>
    </TTGlyph>
    <TTGlyph name="aeacute" xMin="92" yMin="-19" xMax="1578" yMax="1616">
      <component glyphName="ae" x="0" y="0" flags="0x204"/>
      <component glyphName="acutecomb" x="288" y="0" flags="0x4"/>
    </TTGlyph>
    <TTGlyph name="aeacute.sc" xMin="31" yMin="0" xMax="1546" yMax="1602">
      <component glyphName="ae.sc" x="0" y="0" flags="0x204"/>
      <component glyphName="acutecomb.sc" x="282" y="-290" flags="0x4"/>
    </TTGlyph>
    <TTGlyph name="agrave" xMin="92" yMin="-18" xMax="890" yMax="1616">
      <component glyphName="a" x="0" y="0" flags="0x204"/>
      <component glyphName="gravecomb" x="-15" y="0" flags="0x4"/>
    </TTGlyph>
    <TTGlyph name="agrave.sc" xMin="31" yMin="0" xMax="1153" yMax="1602">
      <component glyphName="a.sc" x="0" y="0" flags="0x204"/>
      <component glyphName="gravecomb.sc" x="66" y="-290" flags="0x4"/>
    </TTGlyph>
    <TTGlyph name="amacron" xMin="92" yMin="-18" xMax="890" yMax="1476">
      <component glyphName="a" x="0" y="0" flags="0x204"/>
      <component glyphName="uni0304" x="-15" y="0" flags="0x4"/>
    </TTGlyph>
    <TTGlyph name="amacron.sc" xMin="31" yMin="0" xMax="1153" yMax="1514">
      <component glyphName="a.sc" x="0" y="0" flags="0x204"/>
      <component glyphName="uni0304.sc" x="66" y="-290" flags="0x4"/>
    </TTGlyph>
    <TTGlyph name="ampersand" xMin="138" yMin="-20" xMax="1496" yMax="1499">
      <contour>
        <pt x="678" y="-18" on="1"/>
        <pt x="409" y="-18" on="0"/>
        <pt x="138" y="215" on="0"/>
        <pt x="138" y="403" on="1"/>
        <pt x="138" y="538" on="0"/>
        <pt x="271" y="741" on="0"/>
        <pt x="389" y="799" on="1"/>
        <pt x="335" y="868" on="0"/>
        <pt x="292" y="1001" on="0"/>
        <pt x="292" y="1076" on="1"/>
        <pt x="292" y="1276" on="0"/>
        <pt x="553" y="1499" on="0"/>
        <pt x="819" y="1499" on="1"/>
        <pt x="888" y="1499" on="0"/>
        <pt x="1010" y="1484" on="0"/>
        <pt x="1062" y="1471" on="1"/>
        <pt x="1062" y="1331" on="1"/>
        <pt x="952" y="1361" on="0"/>
        <pt x="826" y="1361" on="1"/>
        <pt x="629" y="1361" on="0"/>
        <pt x="456" y="1212" on="0"/>
        <pt x="456" y="1074" on="1"/>
        <pt x="456" y="1010" on="0"/>
        <pt x="497" y="899" on="0"/>
        <pt x="603" y="781" on="0"/>
        <pt x="700" y="704" on="1"/>
        <pt x="1110" y="392" on="1"/>
        <pt x="1124" y="454" on="0"/>
        <pt x="1124" y="528" on="1"/>
        <pt x="1124" y="662" on="0"/>
        <pt x="1082" y="798" on="1"/>
        <pt x="1220" y="798" on="1"/>
        <pt x="1240" y="732" on="0"/>
        <pt x="1259" y="593" on="0"/>
        <pt x="1259" y="529" on="1"/>
        <pt x="1259" y="404" on="0"/>
        <pt x="1225" y="305" on="1"/>
        <pt x="1496" y="100" on="1"/>
        <pt x="1416" y="-20" on="1"/>
        <pt x="1157" y="177" on="1"/>
        <pt x="1009" y="-18" on="0"/>
      </contour>
      <contour>
        <pt x="302" y="420" on="1"/>
        <pt x="302" y="280" on="0"/>
        <pt x="492" y="108" on="0"/>
        <pt x="693" y="108" on="1"/>
        <pt x="815" y="108" on="0"/>
        <pt x="997" y="179" on="0"/>
        <pt x="1052" y="256" on="1"/>
        <pt x="620" y="584" on="1"/>
        <pt x="529" y="653" on="0"/>
        <pt x="468" y="712" on="1"/>
        <pt x="302" y="612" on="0"/>
      </contour>
    </TTGlyph>
    <TTGlyph name="ampersand.sc" xMin="93" yMin="-17" xMax="1273" yMax="1205">
      <contour>
        <pt x="561" y="-14" on="1"/>
        <pt x="329" y="-14" on="0"/>
        <pt x="93" y="171" on="0"/>
        <pt x="93" y="324" on="1"/>
        <pt x="93" y="431" on="0"/>
        <pt x="205" y="593" on="0"/>
        <pt x="304" y="638" on="1"/>
        <pt x="260" y="692" on="0"/>
        <pt x="222" y="799" on="0"/>
        <pt x="222" y="860" on="1"/>
        <pt x="222" y="1025" on="0"/>
        <pt x="453" y="1205" on="0"/>
        <pt x="686" y="1205" on="1"/>
        <pt x="802" y="1205" on="0"/>
        <pt x="897" y="1183" on="1"/>
        <pt x="897" y="1050" on="1"/>
        <pt x="796" y="1073" on="0"/>
        <pt x="694" y="1073" on="1"/>
        <pt x="528" y="1073" on="0"/>
        <pt x="386" y="961" on="0"/>
        <pt x="386" y="857" on="1"/>
        <pt x="386" y="786" on="0"/>
        <pt x="462" y="671" on="0"/>
        <pt x="572" y="588" on="1"/>
        <pt x="931" y="338" on="1"/>
        <pt x="941" y="383" on="0"/>
        <pt x="941" y="438" on="1"/>
        <pt x="941" y="543" on="0"/>
        <pt x="906" y="652" on="1"/>
        <pt x="1037" y="652" on="1"/>
        <pt x="1054" y="600" on="0"/>
        <pt x="1070" y="490" on="0"/>
        <pt x="1070" y="439" on="1"/>
        <pt x="1070" y="340" on="0"/>
        <pt x="1042" y="260" on="1"/>
        <pt x="1273" y="99" on="1"/>
        <pt x="1196" y="-17" on="1"/>
        <pt x="973" y="139" on="1"/>
        <pt x="843" y="-14" on="0"/>
      </contour>
      <contour>
        <pt x="250" y="341" on="1"/>
        <pt x="250" y="234" on="0"/>
        <pt x="406" y="102" on="0"/>
        <pt x="578" y="102" on="1"/>
        <pt x="677" y="102" on="0"/>
        <pt x="825" y="155" on="0"/>
        <pt x="872" y="210" on="1"/>
        <pt x="495" y="473" on="1"/>
        <pt x="428" y="519" on="0"/>
        <pt x="381" y="561" on="1"/>
        <pt x="250" y="482" on="0"/>
      </contour>
    </TTGlyph>
    <TTGlyph name="aogonek" xMin="92" yMin="-415" xMax="973" yMax="1102">
      <contour>
        <pt x="420" y="-18" on="1"/>
        <pt x="267" y="-18" on="0"/>
        <pt x="92" y="140" on="0"/>
        <pt x="92" y="278" on="1"/>
        <pt x="92" y="420" on="0"/>
        <pt x="279" y="579" on="0"/>
        <pt x="486" y="599" on="1"/>
        <pt x="733" y="626" on="1"/>
        <pt x="733" y="718" on="1"/>
        <pt x="733" y="867" on="0"/>
        <pt x="593" y="971" on="0"/>
        <pt x="453" y="971" on="1"/>
        <pt x="391" y="971" on="0"/>
        <pt x="237" y="948" on="0"/>
        <pt x="160" y="923" on="1"/>
        <pt x="160" y="1054" on="1"/>
        <pt x="229" y="1077" on="0"/>
        <pt x="399" y="1102" on="0"/>
        <pt x="474" y="1102" on="1"/>
        <pt x="680" y="1102" on="0"/>
        <pt x="890" y="932" on="0"/>
        <pt x="890" y="711" on="1"/>
        <pt x="890" y="0" on="1"/>
        <pt x="786" y="-56" on="0"/>
        <pt x="702" y="-162" on="0"/>
        <pt x="702" y="-223" on="1"/>
        <pt x="702" y="-276" on="0"/>
        <pt x="769" y="-336" on="0"/>
        <pt x="829" y="-336" on="1"/>
        <pt x="901" y="-336" on="0"/>
        <pt x="973" y="-296" on="1"/>
        <pt x="973" y="-377" on="1"/>
        <pt x="901" y="-415" on="0"/>
        <pt x="816" y="-415" on="1"/>
        <pt x="712" y="-415" on="0"/>
        <pt x="600" y="-317" on="0"/>
        <pt x="600" y="-232" on="1"/>
        <pt x="600" y="-163" on="0"/>
        <pt x="675" y="-43" on="0"/>
        <pt x="760" y="11" on="1"/>
        <pt x="744" y="121" on="1"/>
        <pt x="734" y="121" on="1"/>
        <pt x="681" y="54" on="0"/>
        <pt x="516" y="-18" on="0"/>
      </contour>
      <contour>
        <pt x="254" y="293" on="1"/>
        <pt x="254" y="106" on="0"/>
        <pt x="461" y="106" on="1"/>
        <pt x="532" y="106" on="0"/>
        <pt x="676" y="167" on="0"/>
        <pt x="733" y="239" on="1"/>
        <pt x="733" y="518" on="1"/>
        <pt x="496" y="492" on="1"/>
        <pt x="367" y="479" on="0"/>
        <pt x="254" y="380" on="0"/>
      </contour>
    </TTGlyph>
    <TTGlyph name="aogonek.sc" xMin="31" yMin="-415" xMax="1251" yMax="1190">
      <component glyphName="a.sc" x="0" y="0" flags="0x204"/>
      <component glyphName="uni0328.sc" x="648" y="0" flags="0x4"/>
    </TTGlyph>
    <TTGlyph name="approxequal" xMin="149" yMin="442" xMax="927" yMax="1078">
      <contour>
        <pt x="719" y="833" on="1"/>
        <pt x="649" y="833" on="0"/>
        <pt x="526" y="892" on="0"/>
        <pt x="413" y="950" on="0"/>
        <pt x="358" y="950" on="1"/>
        <pt x="239" y="950" on="0"/>
        <pt x="149" y="841" on="1"/>
        <pt x="149" y="985" on="1"/>
        <pt x="225" y="1078" on="0"/>
        <pt x="357" y="1078" on="1"/>
        <pt x="427" y="1078" on="0"/>
        <pt x="550" y="1019" on="0"/>
        <pt x="663" y="961" on="0"/>
        <pt x="718" y="961" on="1"/>
        <pt x="837" y="961" on="0"/>
        <pt x="927" y="1070" on="1"/>
        <pt x="927" y="927" on="1"/>
        <pt x="851" y="833" on="0"/>
      </contour>
      <contour>
        <pt x="719" y="442" on="1"/>
        <pt x="649" y="442" on="0"/>
        <pt x="526" y="501" on="0"/>
        <pt x="413" y="559" on="0"/>
        <pt x="358" y="559" on="1"/>
        <pt x="239" y="559" on="0"/>
        <pt x="149" y="450" on="1"/>
        <pt x="149" y="593" on="1"/>
        <pt x="225" y="687" on="0"/>
        <pt x="357" y="687" on="1"/>
        <pt x="427" y="687" on="0"/>
        <pt x="550" y="628" on="0"/>
        <pt x="663" y="570" on="0"/>
        <pt x="718" y="570" on="1"/>
        <pt x="837" y="570" on="0"/>
        <pt x="927" y="679" on="1"/>
        <pt x="927" y="535" on="1"/>
        <pt x="851" y="442" on="0"/>
      </contour>
    </TTGlyph>
    <TTGlyph name="approxequal.osf" xMin="149" yMin="242" xMax="927" yMax="878">
      <contour>
        <pt x="719" y="633" on="1"/>
        <pt x="649" y="633" on="0"/>
        <pt x="526" y="692" on="0"/>
        <pt x="413" y="750" on="0"/>
        <pt x="358" y="750" on="1"/>
        <pt x="239" y="750" on="0"/>
        <pt x="149" y="641" on="1"/>
        <pt x="149" y="785" on="1"/>
        <pt x="225" y="878" on="0"/>
        <pt x="357" y="878" on="1"/>
        <pt x="427" y="878" on="0"/>
        <pt x="550" y="819" on="0"/>
        <pt x="663" y="761" on="0"/>
        <pt x="718" y="761" on="1"/>
        <pt x="837" y="761" on="0"/>
        <pt x="927" y="870" on="1"/>
        <pt x="927" y="727" on="1"/>
        <pt x="851" y="633" on="0"/>
      </contour>
      <contour>
        <pt x="719" y="242" on="1"/>
        <pt x="649" y="242" on="0"/>
        <pt x="526" y="301" on="0"/>
        <pt x="413" y="359" on="0"/>
        <pt x="358" y="359" on="1"/>
        <pt x="239" y="359" on="0"/>
        <pt x="149" y="250" on="1"/>
        <pt x="149" y="393" on="1"/>
        <pt x="225" y="487" on="0"/>
        <pt x="357" y="487" on="1"/>
        <pt x="427" y="487" on="0"/>
        <pt x="550" y="428" on="0"/>
        <pt x="663" y="370" on="0"/>
        <pt x="718" y="370" on="1"/>
        <pt x="837" y="370" on="0"/>
        <pt x="927" y="479" on="1"/>
        <pt x="927" y="335" on="1"/>
        <pt x="851" y="242" on="0"/>
      </contour>
    </TTGlyph>
    <TTGlyph name="approxequal.tf" xMin="189" yMin="442" xMax="968" yMax="1078">
      <contour>
        <pt x="759" y="833" on="1"/>
        <pt x="689" y="833" on="0"/>
        <pt x="566" y="892" on="0"/>
        <pt x="454" y="950" on="0"/>
        <pt x="398" y="950" on="1"/>
        <pt x="279" y="950" on="0"/>
        <pt x="189" y="841" on="1"/>
        <pt x="189" y="985" on="1"/>
        <pt x="265" y="1078" on="0"/>
        <pt x="398" y="1078" on="1"/>
        <pt x="468" y="1078" on="0"/>
        <pt x="590" y="1019" on="0"/>
        <pt x="703" y="961" on="0"/>
        <pt x="759" y="961" on="1"/>
        <pt x="877" y="961" on="0"/>
        <pt x="968" y="1070" on="1"/>
        <pt x="968" y="927" on="1"/>
        <pt x="891" y="833" on="0"/>
      </contour>
      <contour>
        <pt x="759" y="442" on="1"/>
        <pt x="689" y="442" on="0"/>
        <pt x="566" y="501" on="0"/>
        <pt x="454" y="559" on="0"/>
        <pt x="398" y="559" on="1"/>
        <pt x="279" y="559" on="0"/>
        <pt x="189" y="450" on="1"/>
        <pt x="189" y="593" on="1"/>
        <pt x="265" y="687" on="0"/>
        <pt x="398" y="687" on="1"/>
        <pt x="468" y="687" on="0"/>
        <pt x="590" y="628" on="0"/>
        <pt x="703" y="570" on="0"/>
        <pt x="759" y="570" on="1"/>
        <pt x="877" y="570" on="0"/>
        <pt x="968" y="679" on="1"/>
        <pt x="968" y="535" on="1"/>
        <pt x="891" y="442" on="0"/>
      </contour>
    </TTGlyph>
    <TTGlyph name="approxequal.tosf" xMin="189" yMin="242" xMax="968" yMax="878">
      <contour>
        <pt x="759" y="633" on="1"/>
        <pt x="689" y="633" on="0"/>
        <pt x="566" y="692" on="0"/>
        <pt x="454" y="750" on="0"/>
        <pt x="398" y="750" on="1"/>
        <pt x="279" y="750" on="0"/>
        <pt x="189" y="641" on="1"/>
        <pt x="189" y="785" on="1"/>
        <pt x="265" y="878" on="0"/>
        <pt x="398" y="878" on="1"/>
        <pt x="468" y="878" on="0"/>
        <pt x="590" y="819" on="0"/>
        <pt x="703" y="761" on="0"/>
        <pt x="759" y="761" on="1"/>
        <pt x="877" y="761" on="0"/>
        <pt x="968" y="870" on="1"/>
        <pt x="968" y="727" on="1"/>
        <pt x="891" y="633" on="0"/>
      </contour>
      <contour>
        <pt x="759" y="242" on="1"/>
        <pt x="689" y="242" on="0"/>
        <pt x="566" y="301" on="0"/>
        <pt x="454" y="359" on="0"/>
        <pt x="398" y="359" on="1"/>
        <pt x="279" y="359" on="0"/>
        <pt x="189" y="250" on="1"/>
        <pt x="189" y="393" on="1"/>
        <pt x="265" y="487" on="0"/>
        <pt x="398" y="487" on="1"/>
        <pt x="468" y="487" on="0"/>
        <pt x="590" y="428" on="0"/>
        <pt x="703" y="370" on="0"/>
        <pt x="759" y="370" on="1"/>
        <pt x="877" y="370" on="0"/>
        <pt x="968" y="479" on="1"/>
        <pt x="968" y="335" on="1"/>
        <pt x="891" y="242" on="0"/>
      </contour>
    </TTGlyph>
    <TTGlyph name="aring" xMin="92" yMin="-18" xMax="890" yMax="1635">
      <component glyphName="a" x="0" y="0" flags="0x204"/>
      <component glyphName="uni030A" x="-15" y="0" flags="0x4"/>
    </TTGlyph>
    <TTGlyph name="aring.sc" xMin="31" yMin="0" xMax="1153" yMax="1697">
      <component glyphName="a.sc" x="0" y="0" flags="0x204"/>
      <component glyphName="uni030A.sc" x="66" y="-290" flags="0x4"/>
    </TTGlyph>
    <TTGlyph name="aringacute" xMin="92" yMin="-18" xMax="890" yMax="1780">
      <component glyphName="a" x="0" y="0" flags="0x204"/>
      <component glyphName="uni030A0301" x="-15" y="0" flags="0x4"/>
    </TTGlyph>
    <TTGlyph name="aringacute.sc" xMin="31" yMin="0" xMax="1153" yMax="1810">
      <component glyphName="a.sc" x="0" y="0" flags="0x204"/>
      <component glyphName="uni030A0301.case.sc" x="66" y="-290" flags="0x4"/>
    </TTGlyph>
    <TTGlyph name="arrowdown" xMin="149" yMin="180" xMax="1222" yMax="1341">
      <contour>
        <pt x="685" y="180" on="1"/>
        <pt x="149" y="717" on="1"/>
        <pt x="232" y="800" on="1"/>
        <pt x="619" y="414" on="1"/>
        <pt x="619" y="1341" on="1"/>
        <pt x="752" y="1341" on="1"/>
        <pt x="752" y="414" on="1"/>
        <pt x="1138" y="800" on="1"/>
        <pt x="1222" y="717" on="1"/>
      </contour>
    </TTGlyph>
    <TTGlyph name="arrowleft" xMin="149" yMin="224" xMax="1309" yMax="1296">
      <contour>
        <pt x="685" y="224" on="1"/>
        <pt x="149" y="760" on="1"/>
        <pt x="685" y="1296" on="1"/>
        <pt x="769" y="1213" on="1"/>
        <pt x="382" y="826" on="1"/>
        <pt x="1309" y="826" on="1"/>
        <pt x="1309" y="694" on="1"/>
        <pt x="382" y="694" on="1"/>
        <pt x="769" y="307" on="1"/>
      </contour>
    </TTGlyph>
    <TTGlyph name="arrowright" xMin="149" yMin="224" xMax="1309" yMax="1296">
      <contour>
        <pt x="773" y="224" on="1"/>
        <pt x="690" y="307" on="1"/>
        <pt x="1076" y="694" on="1"/>
        <pt x="149" y="694" on="1"/>
        <pt x="149" y="826" on="1"/>
        <pt x="1076" y="826" on="1"/>
        <pt x="690" y="1213" on="1"/>
        <pt x="773" y="1296" on="1"/>
        <pt x="1309" y="760" on="1"/>
      </contour>
    </TTGlyph>
    <TTGlyph name="arrowup" xMin="149" yMin="180" xMax="1222" yMax="1341">
      <contour>
        <pt x="619" y="180" on="1"/>
        <pt x="619" y="1108" on="1"/>
        <pt x="232" y="721" on="1"/>
        <pt x="149" y="805" on="1"/>
        <pt x="685" y="1341" on="1"/>
        <pt x="1222" y="805" on="1"/>
        <pt x="1138" y="721" on="1"/>
        <pt x="752" y="1108" on="1"/>
        <pt x="752" y="180" on="1"/>
      </contour>
    </TTGlyph>
    <TTGlyph name="asciicircum" xMin="96" yMin="740" xMax="1061" yMax="1480">
      <contour>
        <pt x="96" y="740" on="1"/>
        <pt x="492" y="1480" on="1"/>
        <pt x="663" y="1480" on="1"/>
        <pt x="1061" y="740" on="1"/>
        <pt x="897" y="740" on="1"/>
        <pt x="578" y="1345" on="1"/>
        <pt x="260" y="740" on="1"/>
      </contour>
    </TTGlyph>
    <TTGlyph name="asciicircum.osf" xMin="96" yMin="345" xMax="1061" yMax="1085">
      <contour>
        <pt x="96" y="345" on="1"/>
        <pt x="492" y="1085" on="1"/>
        <pt x="663" y="1085" on="1"/>
        <pt x="1061" y="345" on="1"/>
        <pt x="897" y="345" on="1"/>
        <pt x="578" y="950" on="1"/>
        <pt x="260" y="345" on="1"/>
      </contour>
    </TTGlyph>
    <TTGlyph name="asciicircum.tf" xMin="96" yMin="740" xMax="1061" yMax="1480">
      <contour>
        <pt x="96" y="740" on="1"/>
        <pt x="492" y="1480" on="1"/>
        <pt x="663" y="1480" on="1"/>
        <pt x="1061" y="740" on="1"/>
        <pt x="897" y="740" on="1"/>
        <pt x="578" y="1345" on="1"/>
        <pt x="260" y="740" on="1"/>
      </contour>
    </TTGlyph>
    <TTGlyph name="asciicircum.tosf" xMin="96" yMin="345" xMax="1061" yMax="1085">
      <contour>
        <pt x="96" y="345" on="1"/>
        <pt x="492" y="1085" on="1"/>
        <pt x="663" y="1085" on="1"/>
        <pt x="1061" y="345" on="1"/>
        <pt x="897" y="345" on="1"/>
        <pt x="578" y="950" on="1"/>
        <pt x="260" y="345" on="1"/>
      </contour>
    </TTGlyph>
    <TTGlyph name="asciitilde" xMin="149" yMin="633" xMax="927" yMax="878">
      <contour>
        <pt x="719" y="633" on="1"/>
        <pt x="649" y="633" on="0"/>
        <pt x="526" y="691" on="0"/>
        <pt x="413" y="750" on="0"/>
        <pt x="358" y="750" on="1"/>
        <pt x="239" y="750" on="0"/>
        <pt x="149" y="641" on="1"/>
        <pt x="149" y="785" on="1"/>
        <pt x="225" y="878" on="0"/>
        <pt x="357" y="878" on="1"/>
        <pt x="427" y="878" on="0"/>
        <pt x="550" y="820" on="0"/>
        <pt x="663" y="761" on="0"/>
        <pt x="718" y="761" on="1"/>
        <pt x="837" y="761" on="0"/>
        <pt x="927" y="870" on="1"/>
        <pt x="927" y="726" on="1"/>
        <pt x="851" y="633" on="0"/>
      </contour>
    </TTGlyph>
    <TTGlyph name="asciitilde.osf" xMin="149" yMin="433" xMax="927" yMax="678">
      <contour>
        <pt x="719" y="433" on="1"/>
        <pt x="649" y="433" on="0"/>
        <pt x="526" y="491" on="0"/>
        <pt x="413" y="550" on="0"/>
        <pt x="358" y="550" on="1"/>
        <pt x="239" y="550" on="0"/>
        <pt x="149" y="441" on="1"/>
        <pt x="149" y="585" on="1"/>
        <pt x="225" y="678" on="0"/>
        <pt x="357" y="678" on="1"/>
        <pt x="427" y="678" on="0"/>
        <pt x="550" y="620" on="0"/>
        <pt x="663" y="561" on="0"/>
        <pt x="718" y="561" on="1"/>
        <pt x="837" y="561" on="0"/>
        <pt x="927" y="670" on="1"/>
        <pt x="927" y="526" on="1"/>
        <pt x="851" y="433" on="0"/>
      </contour>
    </TTGlyph>
    <TTGlyph name="asciitilde.tf" xMin="189" yMin="633" xMax="968" yMax="878">
      <contour>
        <pt x="759" y="633" on="1"/>
        <pt x="689" y="633" on="0"/>
        <pt x="566" y="691" on="0"/>
        <pt x="454" y="750" on="0"/>
        <pt x="398" y="750" on="1"/>
        <pt x="279" y="750" on="0"/>
        <pt x="189" y="641" on="1"/>
        <pt x="189" y="785" on="1"/>
        <pt x="265" y="878" on="0"/>
        <pt x="398" y="878" on="1"/>
        <pt x="468" y="878" on="0"/>
        <pt x="590" y="820" on="0"/>
        <pt x="703" y="761" on="0"/>
        <pt x="759" y="761" on="1"/>
        <pt x="877" y="761" on="0"/>
        <pt x="968" y="870" on="1"/>
        <pt x="968" y="726" on="1"/>
        <pt x="891" y="633" on="0"/>
      </contour>
    </TTGlyph>
    <TTGlyph name="asciitilde.tosf" xMin="189" yMin="433" xMax="968" yMax="678">
      <contour>
        <pt x="759" y="433" on="1"/>
        <pt x="689" y="433" on="0"/>
        <pt x="566" y="491" on="0"/>
        <pt x="454" y="550" on="0"/>
        <pt x="398" y="550" on="1"/>
        <pt x="279" y="550" on="0"/>
        <pt x="189" y="441" on="1"/>
        <pt x="189" y="585" on="1"/>
        <pt x="265" y="678" on="0"/>
        <pt x="398" y="678" on="1"/>
        <pt x="468" y="678" on="0"/>
        <pt x="590" y="620" on="0"/>
        <pt x="703" y="561" on="0"/>
        <pt x="759" y="561" on="1"/>
        <pt x="877" y="561" on="0"/>
        <pt x="968" y="670" on="1"/>
        <pt x="968" y="526" on="1"/>
        <pt x="891" y="433" on="0"/>
      </contour>
    </TTGlyph>
    <TTGlyph name="asterisk" xMin="30" yMin="827" xMax="888" yMax="1616">
      <contour>
        <pt x="519" y="1183" on="1"/>
        <pt x="654" y="1035" on="1"/>
        <pt x="755" y="897" on="1"/>
        <pt x="660" y="827" on="1"/>
        <pt x="558" y="965" on="1"/>
        <pt x="459" y="1143" on="1"/>
        <pt x="360" y="965" on="1"/>
        <pt x="259" y="827" on="1"/>
        <pt x="163" y="897" on="1"/>
        <pt x="265" y="1035" on="1"/>
        <pt x="399" y="1183" on="1"/>
        <pt x="205" y="1222" on="1"/>
        <pt x="30" y="1279" on="1"/>
        <pt x="67" y="1390" on="1"/>
        <pt x="240" y="1334" on="1"/>
        <pt x="423" y="1250" on="1"/>
        <pt x="400" y="1450" on="1"/>
        <pt x="400" y="1616" on="1"/>
        <pt x="518" y="1616" on="1"/>
        <pt x="518" y="1450" on="1"/>
        <pt x="495" y="1250" on="1"/>
        <pt x="678" y="1334" on="1"/>
        <pt x="852" y="1390" on="1"/>
        <pt x="888" y="1279" on="1"/>
        <pt x="713" y="1222" on="1"/>
      </contour>
    </TTGlyph>
    <TTGlyph name="at" xMin="105" yMin="-460" xMax="1811" yMax="1498">
      <contour>
        <pt x="1005" y="-460" on="1"/>
        <pt x="569" y="-459" on="0"/>
        <pt x="105" y="7" on="0"/>
        <pt x="105" y="520" on="1"/>
        <pt x="105" y="860" on="0"/>
        <pt x="308" y="1292" on="0"/>
        <pt x="693" y="1498" on="0"/>
        <pt x="965" y="1498" on="1"/>
        <pt x="1372" y="1498" on="0"/>
        <pt x="1811" y="1041" on="0"/>
        <pt x="1811" y="567" on="1"/>
        <pt x="1810" y="357" on="0"/>
        <pt x="1716" y="99" on="0"/>
        <pt x="1554" y="-18" on="0"/>
        <pt x="1453" y="-18" on="1"/>
        <pt x="1360" y="-18" on="0"/>
        <pt x="1242" y="60" on="0"/>
        <pt x="1217" y="128" on="1"/>
        <pt x="1205" y="128" on="1"/>
        <pt x="1155" y="56" on="0"/>
        <pt x="986" y="-18" on="0"/>
        <pt x="890" y="-18" on="1"/>
        <pt x="737" y="-18" on="0"/>
        <pt x="561" y="139" on="0"/>
        <pt x="561" y="278" on="1"/>
        <pt x="561" y="420" on="0"/>
        <pt x="746" y="577" on="0"/>
        <pt x="947" y="597" on="1"/>
        <pt x="1202" y="626" on="1"/>
        <pt x="1202" y="717" on="1"/>
        <pt x="1202" y="863" on="0"/>
        <pt x="1064" y="966" on="0"/>
        <pt x="927" y="966" on="1"/>
        <pt x="866" y="966" on="0"/>
        <pt x="713" y="942" on="0"/>
        <pt x="637" y="915" on="1"/>
        <pt x="638" y="1046" on="1"/>
        <pt x="706" y="1070" on="0"/>
        <pt x="873" y="1097" on="0"/>
        <pt x="948" y="1097" on="1"/>
        <pt x="1150" y="1097" on="0"/>
        <pt x="1360" y="929" on="0"/>
        <pt x="1360" y="712" on="1"/>
        <pt x="1360" y="256" on="1"/>
        <pt x="1360" y="172" on="0"/>
        <pt x="1420" y="99" on="0"/>
        <pt x="1482" y="99" on="1"/>
        <pt x="1536" y="99" on="0"/>
        <pt x="1629" y="184" on="0"/>
        <pt x="1687" y="386" on="0"/>
        <pt x="1686" y="561" on="1"/>
        <pt x="1686" y="852" on="0"/>
        <pt x="1521" y="1213" on="0"/>
        <pt x="1200" y="1380" on="0"/>
        <pt x="965" y="1380" on="1"/>
        <pt x="728" y="1380" on="0"/>
        <pt x="405" y="1208" on="0"/>
        <pt x="239" y="830" on="0"/>
        <pt x="239" y="523" on="1"/>
        <pt x="239" y="210" on="0"/>
        <pt x="409" y="-170" on="0"/>
        <pt x="750" y="-342" on="0"/>
        <pt x="1005" y="-342" on="1"/>
        <pt x="1107" y="-342" on="0"/>
        <pt x="1300" y="-314" on="0"/>
        <pt x="1401" y="-286" on="1"/>
        <pt x="1401" y="-405" on="1"/>
        <pt x="1312" y="-430" on="0"/>
        <pt x="1110" y="-460" on="0"/>
      </contour>
      <contour>
        <pt x="723" y="294" on="1"/>
        <pt x="723" y="107" on="0"/>
        <pt x="930" y="107" on="1"/>
        <pt x="1000" y="107" on="0"/>
        <pt x="1146" y="168" on="0"/>
        <pt x="1202" y="240" on="1"/>
        <pt x="1202" y="520" on="1"/>
        <pt x="958" y="493" on="1"/>
        <pt x="835" y="479" on="0"/>
        <pt x="723" y="383" on="0"/>
      </contour>
    </TTGlyph>
    <TTGlyph name="atilde" xMin="92" yMin="-18" xMax="890" yMax="1534">
      <component glyphName="a" x="0" y="0" flags="0x204"/>
      <component glyphName="tildecomb" x="-15" y="0" flags="0x4"/>
    </TTGlyph>
    <TTGlyph name="atilde.sc" xMin="31" yMin="0" xMax="1153" yMax="1559">
      <component glyphName="a.sc" x="0" y="0" flags="0x204"/>
      <component glyphName="tildecomb.sc" x="66" y="-290" flags="0x4"/>
    </TTGlyph>
    <TTGlyph name="b" xMin="151" yMin="-19" xMax="1035" yMax="1616">
      <contour>
        <pt x="486" y="-19" on="1"/>
        <pt x="401" y="-19" on="0"/>
        <pt x="227" y="6" on="0"/>
        <pt x="151" y="30" on="1"/>
        <pt x="151" y="1616" on="1"/>
        <pt x="311" y="1616" on="1"/>
        <pt x="311" y="973" on="1"/>
        <pt x="321" y="973" on="1"/>
        <pt x="370" y="1030" on="0"/>
        <pt x="522" y="1102" on="0"/>
        <pt x="621" y="1102" on="1"/>
        <pt x="734" y="1102" on="0"/>
        <pt x="922" y="997" on="0"/>
        <pt x="1035" y="760" on="0"/>
        <pt x="1035" y="563" on="1"/>
        <pt x="1035" y="269" on="0"/>
        <pt x="756" y="-19" on="0"/>
      </contour>
      <contour>
        <pt x="498" y="112" on="1"/>
        <pt x="682" y="112" on="0"/>
        <pt x="872" y="316" on="0"/>
        <pt x="872" y="549" on="1"/>
        <pt x="872" y="711" on="0"/>
        <pt x="794" y="891" on="0"/>
        <pt x="659" y="964" on="0"/>
        <pt x="574" y="964" on="1"/>
        <pt x="500" y="964" on="0"/>
        <pt x="359" y="903" on="0"/>
        <pt x="311" y="838" on="1"/>
        <pt x="311" y="136" on="1"/>
        <pt x="347" y="126" on="0"/>
        <pt x="445" y="112" on="0"/>
      </contour>
    </TTGlyph>
    <TTGlyph name="b.sc" xMin="171" yMin="-11" xMax="1058" yMax="1203">
      <contour>
        <pt x="497" y="-11" on="1"/>
        <pt x="416" y="-11" on="0"/>
        <pt x="251" y="-1" on="0"/>
        <pt x="171" y="9" on="1"/>
        <pt x="171" y="1169" on="1"/>
        <pt x="250" y="1185" on="0"/>
        <pt x="434" y="1203" on="0"/>
        <pt x="527" y="1203" on="1"/>
        <pt x="787" y="1203" on="0"/>
        <pt x="1022" y="1043" on="0"/>
        <pt x="1022" y="883" on="1"/>
        <pt x="1022" y="788" on="0"/>
        <pt x="917" y="641" on="0"/>
        <pt x="803" y="616" on="1"/>
        <pt x="927" y="593" on="0"/>
        <pt x="1058" y="444" on="0"/>
        <pt x="1058" y="325" on="1"/>
        <pt x="1058" y="162" on="0"/>
        <pt x="800" y="-11" on="0"/>
      </contour>
      <contour>
        <pt x="542" y="1085" on="1"/>
        <pt x="424" y="1085" on="0"/>
        <pt x="327" y="1068" on="1"/>
        <pt x="327" y="671" on="1"/>
        <pt x="566" y="671" on="1"/>
        <pt x="736" y="671" on="0"/>
        <pt x="869" y="778" on="0"/>
        <pt x="869" y="876" on="1"/>
        <pt x="869" y="987" on="0"/>
        <pt x="719" y="1085" on="0"/>
      </contour>
      <contour>
        <pt x="524" y="106" on="1"/>
        <pt x="739" y="106" on="0"/>
        <pt x="906" y="219" on="0"/>
        <pt x="906" y="331" on="1"/>
        <pt x="906" y="441" on="0"/>
        <pt x="757" y="551" on="0"/>
        <pt x="591" y="551" on="1"/>
        <pt x="327" y="551" on="1"/>
        <pt x="327" y="117" on="1"/>
        <pt x="419" y="106" on="0"/>
      </contour>
    </TTGlyph>
    <TTGlyph name="backslash" xMin="0" yMin="-240" xMax="619" yMax="1616">
      <contour>
        <pt x="459" y="-240" on="1"/>
        <pt x="0" y="1616" on="1"/>
        <pt x="160" y="1616" on="1"/>
        <pt x="619" y="-240" on="1"/>
      </contour>
    </TTGlyph>
    <TTGlyph name="bar" xMin="169" yMin="-440" xMax="318" yMax="1616">
      <contour>
        <pt x="169" y="-440" on="1"/>
        <pt x="169" y="1616" on="1"/>
        <pt x="318" y="1616" on="1"/>
        <pt x="318" y="-440" on="1"/>
      </contour>
    </TTGlyph>
    <TTGlyph name="bar.tf" xMin="504" yMin="-440" xMax="653" yMax="1616">
      <contour>
        <pt x="504" y="-440" on="1"/>
        <pt x="504" y="1616" on="1"/>
        <pt x="653" y="1616" on="1"/>
        <pt x="653" y="-440" on="1"/>
      </contour>
    </TTGlyph>
    <TTGlyph name="braceleft" xMin="36" yMin="-460" xMax="735" yMax="1636">
      <contour>
        <pt x="596" y="-460" on="1"/>
        <pt x="229" y="-460" on="0"/>
        <pt x="229" y="-111" on="1"/>
        <pt x="229" y="392" on="1"/>
        <pt x="229" y="558" on="0"/>
        <pt x="64" y="558" on="1"/>
        <pt x="36" y="558" on="1"/>
        <pt x="36" y="691" on="1"/>
        <pt x="64" y="691" on="1"/>
        <pt x="229" y="691" on="0"/>
        <pt x="229" y="857" on="1"/>
        <pt x="229" y="1287" on="1"/>
        <pt x="229" y="1636" on="0"/>
        <pt x="596" y="1636" on="1"/>
        <pt x="635" y="1636" on="0"/>
        <pt x="708" y="1630" on="0"/>
        <pt x="735" y="1625" on="1"/>
        <pt x="735" y="1500" on="1"/>
        <pt x="613" y="1500" on="1"/>
        <pt x="501" y="1500" on="0"/>
        <pt x="389" y="1401" on="0"/>
        <pt x="389" y="1288" on="1"/>
        <pt x="389" y="866" on="1"/>
        <pt x="389" y="767" on="0"/>
        <pt x="315" y="648" on="0"/>
        <pt x="233" y="625" on="1"/>
        <pt x="315" y="601" on="0"/>
        <pt x="389" y="482" on="0"/>
        <pt x="389" y="383" on="1"/>
        <pt x="389" y="-112" on="1"/>
        <pt x="389" y="-225" on="0"/>
        <pt x="501" y="-324" on="0"/>
        <pt x="613" y="-324" on="1"/>
        <pt x="735" y="-324" on="1"/>
        <pt x="735" y="-449" on="1"/>
        <pt x="708" y="-454" on="0"/>
        <pt x="635" y="-460" on="0"/>
      </contour>
    </TTGlyph>
    <TTGlyph name="braceleft.sc" xMin="36" yMin="-260" xMax="713" yMax="1500">
      <contour>
        <pt x="573" y="-260" on="1"/>
        <pt x="408" y="-260" on="0"/>
        <pt x="229" y="-90" on="0"/>
        <pt x="229" y="70" on="1"/>
        <pt x="229" y="414" on="1"/>
        <pt x="229" y="581" on="0"/>
        <pt x="64" y="581" on="1"/>
        <pt x="36" y="581" on="1"/>
        <pt x="36" y="713" on="1"/>
        <pt x="64" y="713" on="1"/>
        <pt x="229" y="713" on="0"/>
        <pt x="229" y="879" on="1"/>
        <pt x="229" y="1170" on="1"/>
        <pt x="229" y="1330" on="0"/>
        <pt x="408" y="1500" on="0"/>
        <pt x="573" y="1500" on="1"/>
        <pt x="613" y="1500" on="0"/>
        <pt x="685" y="1494" on="0"/>
        <pt x="713" y="1489" on="1"/>
        <pt x="713" y="1364" on="1"/>
        <pt x="589" y="1364" on="1"/>
        <pt x="494" y="1364" on="0"/>
        <pt x="388" y="1269" on="0"/>
        <pt x="388" y="1171" on="1"/>
        <pt x="388" y="888" on="1"/>
        <pt x="388" y="789" on="0"/>
        <pt x="314" y="670" on="0"/>
        <pt x="233" y="647" on="1"/>
        <pt x="314" y="624" on="0"/>
        <pt x="388" y="504" on="0"/>
        <pt x="388" y="405" on="1"/>
        <pt x="388" y="69" on="1"/>
        <pt x="388" y="-29" on="0"/>
        <pt x="494" y="-124" on="0"/>
        <pt x="589" y="-124" on="1"/>
        <pt x="713" y="-124" on="1"/>
        <pt x="713" y="-249" on="1"/>
        <pt x="685" y="-254" on="0"/>
        <pt x="613" y="-260" on="0"/>
      </contour>
    </TTGlyph>
    <TTGlyph name="braceright" xMin="-36" yMin="-460" xMax="663" yMax="1636">
      <contour>
        <pt x="103" y="-460" on="1"/>
        <pt x="64" y="-460" on="0"/>
        <pt x="-9" y="-454" on="0"/>
        <pt x="-36" y="-449" on="1"/>
        <pt x="-36" y="-324" on="1"/>
        <pt x="86" y="-324" on="1"/>
        <pt x="198" y="-324" on="0"/>
        <pt x="310" y="-225" on="0"/>
        <pt x="310" y="-112" on="1"/>
        <pt x="310" y="383" on="1"/>
        <pt x="310" y="482" on="0"/>
        <pt x="385" y="601" on="0"/>
        <pt x="466" y="625" on="1"/>
        <pt x="385" y="648" on="0"/>
        <pt x="310" y="767" on="0"/>
        <pt x="310" y="866" on="1"/>
        <pt x="310" y="1288" on="1"/>
        <pt x="310" y="1401" on="0"/>
        <pt x="198" y="1500" on="0"/>
        <pt x="86" y="1500" on="1"/>
        <pt x="-36" y="1500" on="1"/>
        <pt x="-36" y="1625" on="1"/>
        <pt x="-9" y="1630" on="0"/>
        <pt x="64" y="1636" on="0"/>
        <pt x="103" y="1636" on="1"/>
        <pt x="470" y="1636" on="0"/>
        <pt x="470" y="1287" on="1"/>
        <pt x="470" y="857" on="1"/>
        <pt x="470" y="691" on="0"/>
        <pt x="635" y="691" on="1"/>
        <pt x="663" y="691" on="1"/>
        <pt x="663" y="558" on="1"/>
        <pt x="635" y="558" on="1"/>
        <pt x="470" y="558" on="0"/>
        <pt x="470" y="392" on="1"/>
        <pt x="470" y="-111" on="1"/>
        <pt x="470" y="-460" on="0"/>
      </contour>
    </TTGlyph>
    <TTGlyph name="braceright.sc" xMin="-36" yMin="-260" xMax="641" yMax="1500">
      <contour>
        <pt x="103" y="-260" on="1"/>
        <pt x="64" y="-260" on="0"/>
        <pt x="-9" y="-254" on="0"/>
        <pt x="-36" y="-249" on="1"/>
        <pt x="-36" y="-124" on="1"/>
        <pt x="88" y="-124" on="1"/>
        <pt x="183" y="-124" on="0"/>
        <pt x="289" y="-29" on="0"/>
        <pt x="289" y="69" on="1"/>
        <pt x="289" y="405" on="1"/>
        <pt x="289" y="504" on="0"/>
        <pt x="363" y="624" on="0"/>
        <pt x="444" y="647" on="1"/>
        <pt x="363" y="670" on="0"/>
        <pt x="289" y="789" on="0"/>
        <pt x="289" y="888" on="1"/>
        <pt x="289" y="1171" on="1"/>
        <pt x="289" y="1269" on="0"/>
        <pt x="183" y="1364" on="0"/>
        <pt x="88" y="1364" on="1"/>
        <pt x="-36" y="1364" on="1"/>
        <pt x="-36" y="1489" on="1"/>
        <pt x="-9" y="1494" on="0"/>
        <pt x="64" y="1500" on="0"/>
        <pt x="103" y="1500" on="1"/>
        <pt x="268" y="1500" on="0"/>
        <pt x="448" y="1330" on="0"/>
        <pt x="448" y="1170" on="1"/>
        <pt x="448" y="879" on="1"/>
        <pt x="448" y="713" on="0"/>
        <pt x="612" y="713" on="1"/>
        <pt x="641" y="713" on="1"/>
        <pt x="641" y="581" on="1"/>
        <pt x="612" y="581" on="1"/>
        <pt x="448" y="581" on="0"/>
        <pt x="448" y="414" on="1"/>
        <pt x="448" y="70" on="1"/>
        <pt x="448" y="-90" on="0"/>
        <pt x="268" y="-260" on="0"/>
      </contour>
    </TTGlyph>
    <TTGlyph name="bracketleft" xMin="189" yMin="-440" xMax="695" yMax="1616">
      <contour>
        <pt x="189" y="-440" on="1"/>
        <pt x="189" y="1616" on="1"/>
        <pt x="695" y="1616" on="1"/>
        <pt x="695" y="1483" on="1"/>
        <pt x="349" y="1483" on="1"/>
        <pt x="349" y="-307" on="1"/>
        <pt x="693" y="-307" on="1"/>
        <pt x="693" y="-440" on="1"/>
      </contour>
    </TTGlyph>
    <TTGlyph name="bracketleft.sc" xMin="189" yMin="-247" xMax="640" yMax="1487">
      <contour>
        <pt x="189" y="-247" on="1"/>
        <pt x="189" y="1487" on="1"/>
        <pt x="640" y="1487" on="1"/>
        <pt x="640" y="1355" on="1"/>
        <pt x="348" y="1355" on="1"/>
        <pt x="348" y="-115" on="1"/>
        <pt x="637" y="-115" on="1"/>
        <pt x="637" y="-247" on="1"/>
      </contour>
    </TTGlyph>
    <TTGlyph name="bracketright" xMin="-36" yMin="-440" xMax="470" yMax="1616">
      <contour>
        <pt x="-34" y="-440" on="1"/>
        <pt x="-34" y="-307" on="1"/>
        <pt x="310" y="-307" on="1"/>
        <pt x="310" y="1483" on="1"/>
        <pt x="-36" y="1483" on="1"/>
        <pt x="-36" y="1616" on="1"/>
        <pt x="470" y="1616" on="1"/>
        <pt x="470" y="-440" on="1"/>
      </contour>
    </TTGlyph>
    <TTGlyph name="bracketright.sc" xMin="-36" yMin="-240" xMax="414" yMax="1480">
      <contour>
        <pt x="-34" y="-240" on="1"/>
        <pt x="-34" y="-107" on="1"/>
        <pt x="255" y="-107" on="1"/>
        <pt x="255" y="1347" on="1"/>
        <pt x="-36" y="1347" on="1"/>
        <pt x="-36" y="1480" on="1"/>
        <pt x="414" y="1480" on="1"/>
        <pt x="414" y="-240" on="1"/>
      </contour>
    </TTGlyph>
    <TTGlyph name="breve" xMin="226" yMin="1264" xMax="825" yMax="1590">
      <component glyphName="uni0306" x="0" y="0" flags="0x4"/>
    </TTGlyph>
    <TTGlyph name="brokenbar" xMin="169" yMin="-440" xMax="318" yMax="1616">
      <contour>
        <pt x="169" y="836" on="1"/>
        <pt x="169" y="1616" on="1"/>
        <pt x="318" y="1616" on="1"/>
        <pt x="318" y="836" on="1"/>
      </contour>
      <contour>
        <pt x="169" y="-440" on="1"/>
        <pt x="169" y="340" on="1"/>
        <pt x="318" y="340" on="1"/>
        <pt x="318" y="-440" on="1"/>
      </contour>
    </TTGlyph>
    <TTGlyph name="brokenbar.tf" xMin="504" yMin="-440" xMax="653" yMax="1616">
      <contour>
        <pt x="504" y="836" on="1"/>
        <pt x="504" y="1616" on="1"/>
        <pt x="653" y="1616" on="1"/>
        <pt x="653" y="836" on="1"/>
      </contour>
      <contour>
        <pt x="504" y="-440" on="1"/>
        <pt x="504" y="340" on="1"/>
        <pt x="653" y="340" on="1"/>
        <pt x="653" y="-440" on="1"/>
      </contour>
    </TTGlyph>
    <TTGlyph name="bullet" xMin="115" yMin="320" xMax="595" yMax="800">
      <contour>
        <pt x="355" y="320" on="1"/>
        <pt x="255" y="320" on="0"/>
        <pt x="115" y="456" on="0"/>
        <pt x="115" y="560" on="1"/>
        <pt x="115" y="665" on="0"/>
        <pt x="255" y="800" on="0"/>
        <pt x="355" y="800" on="1"/>
        <pt x="456" y="800" on="0"/>
        <pt x="595" y="665" on="0"/>
        <pt x="595" y="560" on="1"/>
        <pt x="595" y="456" on="0"/>
        <pt x="456" y="320" on="0"/>
      </contour>
    </TTGlyph>
    <TTGlyph name="c" xMin="94" yMin="-19" xMax="838" yMax="1102">
      <contour>
        <pt x="574" y="-19" on="1"/>
        <pt x="344" y="-19" on="0"/>
        <pt x="94" y="247" on="0"/>
        <pt x="94" y="542" on="1"/>
        <pt x="94" y="837" on="0"/>
        <pt x="363" y="1102" on="0"/>
        <pt x="615" y="1102" on="1"/>
        <pt x="672" y="1102" on="0"/>
        <pt x="786" y="1088" on="0"/>
        <pt x="838" y="1074" on="1"/>
        <pt x="838" y="938" on="1"/>
        <pt x="731" y="966" on="0"/>
        <pt x="632" y="966" on="1"/>
        <pt x="444" y="966" on="0"/>
        <pt x="260" y="777" on="0"/>
        <pt x="260" y="546" on="1"/>
        <pt x="260" y="309" on="0"/>
        <pt x="431" y="117" on="0"/>
        <pt x="597" y="117" on="1"/>
        <pt x="649" y="117" on="0"/>
        <pt x="766" y="138" on="0"/>
        <pt x="838" y="161" on="1"/>
        <pt x="838" y="26" on="1"/>
        <pt x="710" y="-19" on="0"/>
      </contour>
    </TTGlyph>
    <TTGlyph name="c.sc" xMin="96" yMin="-15" xMax="968" yMax="1205">
      <contour>
        <pt x="682" y="-15" on="1"/>
        <pt x="502" y="-15" on="0"/>
        <pt x="239" y="105" on="0"/>
        <pt x="96" y="372" on="0"/>
        <pt x="96" y="593" on="1"/>
        <pt x="96" y="911" on="0"/>
        <pt x="413" y="1205" on="0"/>
        <pt x="696" y="1205" on="1"/>
        <pt x="768" y="1205" on="0"/>
        <pt x="905" y="1189" on="0"/>
        <pt x="968" y="1172" on="1"/>
        <pt x="968" y="1037" on="1"/>
        <pt x="840" y="1070" on="0"/>
        <pt x="705" y="1070" on="1"/>
        <pt x="490" y="1070" on="0"/>
        <pt x="266" y="855" on="0"/>
        <pt x="266" y="595" on="1"/>
        <pt x="266" y="416" on="0"/>
        <pt x="367" y="208" on="0"/>
        <pt x="559" y="120" on="0"/>
        <pt x="695" y="120" on="1"/>
        <pt x="828" y="120" on="0"/>
        <pt x="968" y="163" on="1"/>
        <pt x="968" y="28" on="1"/>
        <pt x="838" y="-15" on="0"/>
      </contour>
    </TTGlyph>
    <TTGlyph name="cacute" xMin="94" yMin="-19" xMax="838" yMax="1616">
      <component glyphName="c" x="0" y="0" flags="0x204"/>
      <component glyphName="acutecomb" x="-12" y="0" flags="0x4"/>
    </TTGlyph>
    <TTGlyph name="cacute.sc" xMin="96" yMin="-15" xMax="968" yMax="1602">
      <component glyphName="c.sc" x="0" y="0" flags="0x204"/>
      <component glyphName="acutecomb.sc" x="90" y="-290" flags="0x4"/>
    </TTGlyph>
    <TTGlyph name="caron" xMin="227" yMin="1253" xMax="824" yMax="1616">
      <component glyphName="uni030C" x="0" y="0" flags="0x4"/>
    </TTGlyph>
    <TTGlyph name="caron.alt" xMin="504" yMin="1180" xMax="644" yMax="1616">
      <component glyphName="uni030C.alt" x="0" y="0" flags="0x4"/>
    </TTGlyph>
    <TTGlyph name="ccaron" xMin="94" yMin="-19" xMax="838" yMax="1616">
      <component glyphName="c" x="0" y="0" flags="0x204"/>
      <component glyphName="uni030C" x="-12" y="0" flags="0x4"/>
    </TTGlyph>
    <TTGlyph name="ccaron.sc" xMin="96" yMin="-15" xMax="968" yMax="1602">
      <component glyphName="c.sc" x="0" y="0" flags="0x204"/>
      <component glyphName="uni030C.sc" x="90" y="-290" flags="0x4"/>
    </TTGlyph>
    <TTGlyph name="ccedilla" xMin="94" yMin="-415" xMax="838" yMax="1102">
      <component glyphName="c" x="0" y="0" flags="0x204"/>
      <component glyphName="uni0327" x="-8" y="0" flags="0x4"/>
    </TTGlyph>
    <TTGlyph name="ccedilla.sc" xMin="96" yMin="-415" xMax="968" yMax="1205">
      <component glyphName="c.sc" x="0" y="0" flags="0x204"/>
      <component glyphName="uni0327.sc" x="98" y="0" flags="0x4"/>
    </TTGlyph>
    <TTGlyph name="ccircumflex" xMin="94" yMin="-19" xMax="838" yMax="1616">
      <component glyphName="c" x="0" y="0" flags="0x204"/>
      <component glyphName="uni0302" x="-12" y="0" flags="0x4"/>
    </TTGlyph>
    <TTGlyph name="ccircumflex.sc" xMin="96" yMin="-15" xMax="968" yMax="1602">
      <component glyphName="c.sc" x="0" y="0" flags="0x204"/>
      <component glyphName="uni0302.sc" x="90" y="-290" flags="0x4"/>
    </TTGlyph>
    <TTGlyph name="cdotaccent" xMin="94" yMin="-19" xMax="838" yMax="1523">
      <component glyphName="c" x="0" y="0" flags="0x204"/>
      <component glyphName="uni0307" x="-12" y="0" flags="0x4"/>
    </TTGlyph>
    <TTGlyph name="cdotaccent.sc" xMin="96" yMin="-15" xMax="968" yMax="1555">
      <component glyphName="c.sc" x="0" y="0" flags="0x204"/>
      <component glyphName="uni0307.sc" x="90" y="-290" flags="0x4"/>
    </TTGlyph>
    <TTGlyph name="cedilla" xMin="357" yMin="-415" xMax="732" yMax="20">
      <component glyphName="uni0327" x="0" y="0" flags="0x4"/>
    </TTGlyph>
    <TTGlyph name="cent" xMin="94" yMin="-240" xMax="838" yMax="1325">
      <contour>
        <pt x="493" y="-240" on="1"/>
        <pt x="493" y="-15" on="1"/>
        <pt x="300" y="7" on="0"/>
        <pt x="94" y="274" on="0"/>
        <pt x="94" y="542" on="1"/>
        <pt x="94" y="799" on="0"/>
        <pt x="299" y="1065" on="0"/>
        <pt x="493" y="1093" on="1"/>
        <pt x="493" y="1325" on="1"/>
        <pt x="633" y="1325" on="1"/>
        <pt x="633" y="1102" on="1"/>
        <pt x="740" y="1100" on="0"/>
        <pt x="838" y="1074" on="1"/>
        <pt x="838" y="938" on="1"/>
        <pt x="729" y="966" on="0"/>
        <pt x="629" y="966" on="1"/>
        <pt x="441" y="966" on="0"/>
        <pt x="260" y="777" on="0"/>
        <pt x="260" y="546" on="1"/>
        <pt x="260" y="309" on="0"/>
        <pt x="431" y="117" on="0"/>
        <pt x="597" y="117" on="1"/>
        <pt x="649" y="117" on="0"/>
        <pt x="766" y="138" on="0"/>
        <pt x="838" y="161" on="1"/>
        <pt x="838" y="26" on="1"/>
        <pt x="739" y="-9" on="0"/>
        <pt x="633" y="-17" on="1"/>
        <pt x="633" y="-240" on="1"/>
      </contour>
    </TTGlyph>
    <TTGlyph name="cent.tf" xMin="140" yMin="-240" xMax="1067" yMax="1310">
      <contour>
        <pt x="639" y="-240" on="1"/>
        <pt x="639" y="-15" on="1"/>
        <pt x="398" y="6" on="0"/>
        <pt x="140" y="282" on="0"/>
        <pt x="140" y="542" on="1"/>
        <pt x="140" y="793" on="0"/>
        <pt x="396" y="1067" on="0"/>
        <pt x="639" y="1095" on="1"/>
        <pt x="639" y="1310" on="1"/>
        <pt x="779" y="1310" on="1"/>
        <pt x="779" y="1102" on="1"/>
        <pt x="860" y="1101" on="0"/>
        <pt x="999" y="1083" on="0"/>
        <pt x="1067" y="1066" on="1"/>
        <pt x="1067" y="930" on="1"/>
        <pt x="994" y="947" on="0"/>
        <pt x="858" y="966" on="0"/>
        <pt x="780" y="966" on="1"/>
        <pt x="540" y="966" on="0"/>
        <pt x="306" y="765" on="0"/>
        <pt x="306" y="545" on="1"/>
        <pt x="306" y="320" on="0"/>
        <pt x="533" y="117" on="0"/>
        <pt x="744" y="117" on="1"/>
        <pt x="815" y="117" on="0"/>
        <pt x="970" y="141" on="0"/>
        <pt x="1067" y="169" on="1"/>
        <pt x="1067" y="33" on="1"/>
        <pt x="932" y="-12" on="0"/>
        <pt x="779" y="-18" on="1"/>
        <pt x="779" y="-240" on="1"/>
      </contour>
    </TTGlyph>
    <TTGlyph name="circumflex" xMin="230" yMin="1253" xMax="821" yMax="1616">
      <component glyphName="uni0302" x="0" y="0" flags="0x4"/>
    </TTGlyph>
    <TTGlyph name="colon" xMin="115" yMin="-13" xMax="346" yMax="1097">
      <component glyphName="period" x="0" y="0" flags="0x204"/>
      <component glyphName="period" x="0" y="888" flags="0x4"/>
    </TTGlyph>
    <TTGlyph name="colon.tf" xMin="174" yMin="-13" xMax="404" yMax="1098">
      <contour>
        <pt x="289" y="876" on="1"/>
        <pt x="238" y="876" on="0"/>
        <pt x="174" y="935" on="0"/>
        <pt x="174" y="986" on="1"/>
        <pt x="174" y="1037" on="0"/>
        <pt x="237" y="1098" on="0"/>
        <pt x="289" y="1098" on="1"/>
        <pt x="341" y="1098" on="0"/>
        <pt x="404" y="1036" on="0"/>
        <pt x="404" y="986" on="1"/>
        <pt x="404" y="936" on="0"/>
        <pt x="341" y="876" on="0"/>
      </contour>
      <contour>
        <pt x="289" y="-13" on="1"/>
        <pt x="238" y="-13" on="0"/>
        <pt x="174" y="47" on="0"/>
        <pt x="174" y="98" on="1"/>
        <pt x="174" y="149" on="0"/>
        <pt x="237" y="209" on="0"/>
        <pt x="289" y="209" on="1"/>
        <pt x="341" y="209" on="0"/>
        <pt x="404" y="148" on="0"/>
        <pt x="404" y="98" on="1"/>
        <pt x="404" y="47" on="0"/>
        <pt x="341" y="-13" on="0"/>
      </contour>
    </TTGlyph>
    <TTGlyph name="colonmonetary" xMin="105" yMin="-240" xMax="1111" yMax="1720">
      <contour>
        <pt x="775" y="-19" on="1"/>
        <pt x="669" y="-19" on="0"/>
        <pt x="580" y="0" on="1"/>
        <pt x="507" y="-240" on="1"/>
        <pt x="396" y="-240" on="1"/>
        <pt x="478" y="29" on="1"/>
        <pt x="396" y="59" on="0"/>
        <pt x="332" y="110" on="1"/>
        <pt x="224" y="-240" on="1"/>
        <pt x="113" y="-240" on="1"/>
        <pt x="247" y="198" on="1"/>
        <pt x="178" y="289" on="0"/>
        <pt x="105" y="557" on="0"/>
        <pt x="105" y="737" on="1"/>
        <pt x="105" y="1091" on="0"/>
        <pt x="387" y="1453" on="0"/>
        <pt x="645" y="1489" on="1"/>
        <pt x="717" y="1720" on="1"/>
        <pt x="828" y="1720" on="1"/>
        <pt x="759" y="1498" on="1"/>
        <pt x="774" y="1499" on="0"/>
        <pt x="790" y="1499" on="1"/>
        <pt x="861" y="1499" on="0"/>
        <pt x="928" y="1491" on="1"/>
        <pt x="999" y="1720" on="1"/>
        <pt x="1111" y="1720" on="1"/>
        <pt x="1034" y="1474" on="1"/>
        <pt x="1072" y="1466" on="0"/>
        <pt x="1111" y="1456" on="1"/>
        <pt x="1111" y="1314" on="1"/>
        <pt x="1030" y="1338" on="0"/>
        <pt x="875" y="1358" on="0"/>
        <pt x="797" y="1358" on="1"/>
        <pt x="630" y="1358" on="0"/>
        <pt x="397" y="1239" on="0"/>
        <pt x="276" y="968" on="0"/>
        <pt x="276" y="741" on="1"/>
        <pt x="276" y="513" on="0"/>
        <pt x="394" y="241" on="0"/>
        <pt x="622" y="122" on="0"/>
        <pt x="787" y="122" on="1"/>
        <pt x="864" y="122" on="0"/>
        <pt x="1019" y="147" on="0"/>
        <pt x="1111" y="176" on="1"/>
        <pt x="1111" y="35" on="1"/>
        <pt x="955" y="-19" on="0"/>
      </contour>
    </TTGlyph>
    <TTGlyph name="colonmonetary.tf" xMin="115" yMin="-240" xMax="1102" yMax="1720">
      <contour>
        <pt x="123" y="-240" on="1"/>
        <pt x="254" y="200" on="1"/>
        <pt x="186" y="291" on="0"/>
        <pt x="115" y="558" on="0"/>
        <pt x="115" y="737" on="1"/>
        <pt x="115" y="1089" on="0"/>
        <pt x="393" y="1451" on="0"/>
        <pt x="642" y="1488" on="1"/>
        <pt x="712" y="1720" on="1"/>
        <pt x="823" y="1720" on="1"/>
        <pt x="755" y="1498" on="1"/>
        <pt x="771" y="1499" on="0"/>
        <pt x="787" y="1499" on="1"/>
        <pt x="856" y="1499" on="0"/>
        <pt x="922" y="1491" on="1"/>
        <pt x="991" y="1720" on="1"/>
        <pt x="1102" y="1720" on="1"/>
        <pt x="1027" y="1474" on="1"/>
        <pt x="1064" y="1466" on="0"/>
        <pt x="1102" y="1456" on="1"/>
        <pt x="1102" y="1314" on="1"/>
        <pt x="1021" y="1338" on="0"/>
        <pt x="871" y="1358" on="0"/>
        <pt x="795" y="1358" on="1"/>
        <pt x="634" y="1358" on="0"/>
        <pt x="406" y="1239" on="0"/>
        <pt x="286" y="968" on="0"/>
        <pt x="286" y="741" on="1"/>
        <pt x="286" y="513" on="0"/>
        <pt x="403" y="241" on="0"/>
        <pt x="626" y="122" on="0"/>
        <pt x="784" y="122" on="1"/>
        <pt x="860" y="122" on="0"/>
        <pt x="1011" y="147" on="0"/>
        <pt x="1102" y="176" on="1"/>
        <pt x="1102" y="35" on="1"/>
        <pt x="947" y="-19" on="0"/>
        <pt x="773" y="-19" on="1"/>
        <pt x="670" y="-19" on="0"/>
        <pt x="585" y="-1" on="1"/>
        <pt x="513" y="-240" on="1"/>
        <pt x="402" y="-240" on="1"/>
        <pt x="482" y="29" on="1"/>
        <pt x="402" y="60" on="0"/>
        <pt x="339" y="111" on="1"/>
        <pt x="234" y="-240" on="1"/>
      </contour>
    </TTGlyph>
    <TTGlyph name="comma" xMin="115" yMin="-315" xMax="345" yMax="209">
      <contour>
        <pt x="150" y="-315" on="1"/>
        <pt x="182" y="-232" on="0"/>
        <pt x="220" y="-86" on="0"/>
        <pt x="224" y="-12" on="1"/>
        <pt x="176" y="-10" on="0"/>
        <pt x="115" y="50" on="0"/>
        <pt x="115" y="99" on="1"/>
        <pt x="115" y="149" on="0"/>
        <pt x="176" y="209" on="0"/>
        <pt x="228" y="209" on="1"/>
        <pt x="283" y="209" on="0"/>
        <pt x="345" y="138" on="0"/>
        <pt x="345" y="64" on="1"/>
        <pt x="345" y="-40" on="0"/>
        <pt x="289" y="-236" on="0"/>
        <pt x="245" y="-315" on="1"/>
      </contour>
    </TTGlyph>
    <TTGlyph name="comma.tf" xMin="174" yMin="-301" xMax="404" yMax="209">
      <contour>
        <pt x="210" y="-301" on="1"/>
        <pt x="240" y="-223" on="0"/>
        <pt x="278" y="-81" on="0"/>
        <pt x="282" y="-12" on="1"/>
        <pt x="234" y="-10" on="0"/>
        <pt x="174" y="50" on="0"/>
        <pt x="174" y="99" on="1"/>
        <pt x="174" y="149" on="0"/>
        <pt x="235" y="209" on="0"/>
        <pt x="286" y="209" on="1"/>
        <pt x="342" y="209" on="0"/>
        <pt x="404" y="138" on="0"/>
        <pt x="404" y="64" on="1"/>
        <pt x="404" y="-34" on="0"/>
        <pt x="347" y="-226" on="0"/>
        <pt x="304" y="-301" on="1"/>
      </contour>
    </TTGlyph>
    <TTGlyph name="copyright" xMin="105" yMin="-22" xMax="1596" yMax="1502">
      <contour>
        <pt x="851" y="-22" on="1"/>
        <pt x="627" y="-22" on="0"/>
        <pt x="292" y="168" on="0"/>
        <pt x="105" y="511" on="0"/>
        <pt x="105" y="740" on="1"/>
        <pt x="105" y="969" on="0"/>
        <pt x="292" y="1312" on="0"/>
        <pt x="627" y="1502" on="0"/>
        <pt x="851" y="1502" on="1"/>
        <pt x="1075" y="1502" on="0"/>
        <pt x="1410" y="1312" on="0"/>
        <pt x="1596" y="969" on="0"/>
        <pt x="1596" y="740" on="1"/>
        <pt x="1596" y="511" on="0"/>
        <pt x="1410" y="168" on="0"/>
        <pt x="1075" y="-22" on="0"/>
      </contour>
      <contour>
        <pt x="851" y="83" on="1"/>
        <pt x="1045" y="83" on="0"/>
        <pt x="1332" y="246" on="0"/>
        <pt x="1489" y="541" on="0"/>
        <pt x="1489" y="740" on="1"/>
        <pt x="1489" y="939" on="0"/>
        <pt x="1332" y="1234" on="0"/>
        <pt x="1045" y="1397" on="0"/>
        <pt x="851" y="1397" on="1"/>
        <pt x="657" y="1397" on="0"/>
        <pt x="370" y="1234" on="0"/>
        <pt x="213" y="939" on="0"/>
        <pt x="213" y="740" on="1"/>
        <pt x="213" y="541" on="0"/>
        <pt x="370" y="246" on="0"/>
        <pt x="657" y="83" on="0"/>
      </contour>
      <contour>
        <pt x="894" y="324" on="1"/>
        <pt x="714" y="324" on="0"/>
        <pt x="494" y="532" on="0"/>
        <pt x="494" y="733" on="1"/>
        <pt x="494" y="930" on="0"/>
        <pt x="716" y="1144" on="0"/>
        <pt x="917" y="1144" on="1"/>
        <pt x="1020" y="1144" on="0"/>
        <pt x="1109" y="1118" on="1"/>
        <pt x="1109" y="1004" on="1"/>
        <pt x="1062" y="1016" on="0"/>
        <pt x="975" y="1029" on="0"/>
        <pt x="925" y="1029" on="1"/>
        <pt x="779" y="1029" on="0"/>
        <pt x="625" y="885" on="0"/>
        <pt x="625" y="736" on="1"/>
        <pt x="625" y="585" on="0"/>
        <pt x="775" y="439" on="0"/>
        <pt x="906" y="439" on="1"/>
        <pt x="949" y="439" on="0"/>
        <pt x="1048" y="455" on="0"/>
        <pt x="1109" y="476" on="1"/>
        <pt x="1109" y="363" on="1"/>
        <pt x="1017" y="324" on="0"/>
      </contour>
    </TTGlyph>
    <TTGlyph name="currency" xMin="101" yMin="264" xMax="1056" yMax="1216">
      <contour>
        <pt x="195" y="264" on="1"/>
        <pt x="102" y="357" on="1"/>
        <pt x="207" y="458" on="1"/>
        <pt x="304" y="535" on="1"/>
        <pt x="247" y="621" on="0"/>
        <pt x="247" y="740" on="1"/>
        <pt x="247" y="858" on="0"/>
        <pt x="304" y="944" on="1"/>
        <pt x="207" y="1022" on="1"/>
        <pt x="101" y="1123" on="1"/>
        <pt x="193" y="1216" on="1"/>
        <pt x="295" y="1111" on="1"/>
        <pt x="371" y="1016" on="1"/>
        <pt x="457" y="1081" on="0"/>
        <pt x="578" y="1081" on="1"/>
        <pt x="699" y="1081" on="0"/>
        <pt x="785" y="1016" on="1"/>
        <pt x="862" y="1111" on="1"/>
        <pt x="963" y="1216" on="1"/>
        <pt x="1056" y="1123" on="1"/>
        <pt x="949" y="1022" on="1"/>
        <pt x="852" y="944" on="1"/>
        <pt x="910" y="858" on="0"/>
        <pt x="910" y="740" on="1"/>
        <pt x="910" y="621" on="0"/>
        <pt x="852" y="535" on="1"/>
        <pt x="949" y="458" on="1"/>
        <pt x="1054" y="357" on="1"/>
        <pt x="962" y="264" on="1"/>
        <pt x="860" y="369" on="1"/>
        <pt x="785" y="463" on="1"/>
        <pt x="699" y="397" on="0"/>
        <pt x="578" y="397" on="1"/>
        <pt x="457" y="397" on="0"/>
        <pt x="371" y="462" on="1"/>
        <pt x="297" y="369" on="1"/>
      </contour>
      <contour>
        <pt x="578" y="501" on="1"/>
        <pt x="677" y="501" on="0"/>
        <pt x="801" y="626" on="0"/>
        <pt x="801" y="740" on="1"/>
        <pt x="801" y="845" on="0"/>
        <pt x="686" y="979" on="0"/>
        <pt x="580" y="979" on="1"/>
        <pt x="480" y="979" on="0"/>
        <pt x="355" y="853" on="0"/>
        <pt x="355" y="740" on="1"/>
        <pt x="355" y="627" on="0"/>
        <pt x="480" y="501" on="0"/>
      </contour>
    </TTGlyph>
    <TTGlyph name="currency.tf" xMin="101" yMin="264" xMax="1056" yMax="1216">
      <contour>
        <pt x="195" y="264" on="1"/>
        <pt x="102" y="357" on="1"/>
        <pt x="207" y="458" on="1"/>
        <pt x="304" y="535" on="1"/>
        <pt x="247" y="621" on="0"/>
        <pt x="247" y="740" on="1"/>
        <pt x="247" y="858" on="0"/>
        <pt x="304" y="944" on="1"/>
        <pt x="207" y="1022" on="1"/>
        <pt x="101" y="1123" on="1"/>
        <pt x="193" y="1216" on="1"/>
        <pt x="295" y="1111" on="1"/>
        <pt x="371" y="1016" on="1"/>
        <pt x="457" y="1081" on="0"/>
        <pt x="578" y="1081" on="1"/>
        <pt x="699" y="1081" on="0"/>
        <pt x="785" y="1016" on="1"/>
        <pt x="862" y="1111" on="1"/>
        <pt x="963" y="1216" on="1"/>
        <pt x="1056" y="1123" on="1"/>
        <pt x="949" y="1022" on="1"/>
        <pt x="852" y="944" on="1"/>
        <pt x="910" y="858" on="0"/>
        <pt x="910" y="740" on="1"/>
        <pt x="910" y="621" on="0"/>
        <pt x="852" y="535" on="1"/>
        <pt x="949" y="458" on="1"/>
        <pt x="1054" y="357" on="1"/>
        <pt x="962" y="264" on="1"/>
        <pt x="860" y="369" on="1"/>
        <pt x="785" y="463" on="1"/>
        <pt x="699" y="397" on="0"/>
        <pt x="578" y="397" on="1"/>
        <pt x="457" y="397" on="0"/>
        <pt x="371" y="462" on="1"/>
        <pt x="297" y="369" on="1"/>
      </contour>
      <contour>
        <pt x="578" y="501" on="1"/>
        <pt x="677" y="501" on="0"/>
        <pt x="801" y="626" on="0"/>
        <pt x="801" y="740" on="1"/>
        <pt x="801" y="845" on="0"/>
        <pt x="686" y="979" on="0"/>
        <pt x="580" y="979" on="1"/>
        <pt x="480" y="979" on="0"/>
        <pt x="355" y="853" on="0"/>
        <pt x="355" y="740" on="1"/>
        <pt x="355" y="627" on="0"/>
        <pt x="480" y="501" on="0"/>
      </contour>
    </TTGlyph>
    <TTGlyph name="d" xMin="94" yMin="-19" xMax="978" yMax="1616">
      <contour>
        <pt x="521" y="-19" on="1"/>
        <pt x="403" y="-19" on="0"/>
        <pt x="209" y="88" on="0"/>
        <pt x="94" y="324" on="0"/>
        <pt x="94" y="520" on="1"/>
        <pt x="94" y="814" on="0"/>
        <pt x="373" y="1102" on="0"/>
        <pt x="641" y="1102" on="1"/>
        <pt x="687" y="1102" on="0"/>
        <pt x="779" y="1093" on="0"/>
        <pt x="818" y="1088" on="1"/>
        <pt x="818" y="1616" on="1"/>
        <pt x="978" y="1616" on="1"/>
        <pt x="978" y="0" on="1"/>
        <pt x="842" y="0" on="1"/>
        <pt x="831" y="117" on="1"/>
        <pt x="820" y="117" on="1"/>
        <pt x="772" y="57" on="0"/>
        <pt x="619" y="-19" on="0"/>
      </contour>
      <contour>
        <pt x="557" y="119" on="1"/>
        <pt x="630" y="119" on="0"/>
        <pt x="770" y="183" on="0"/>
        <pt x="818" y="253" on="1"/>
        <pt x="818" y="952" on="1"/>
        <pt x="737" y="971" on="0"/>
        <pt x="639" y="971" on="1"/>
        <pt x="450" y="971" on="0"/>
        <pt x="257" y="767" on="0"/>
        <pt x="257" y="535" on="1"/>
        <pt x="257" y="374" on="0"/>
        <pt x="334" y="193" on="0"/>
        <pt x="469" y="119" on="0"/>
      </contour>
    </TTGlyph>
    <TTGlyph name="d.sc" xMin="171" yMin="-10" xMax="1154" yMax="1203">
      <contour>
        <pt x="478" y="-10" on="1"/>
        <pt x="405" y="-10" on="0"/>
        <pt x="250" y="-2" on="0"/>
        <pt x="171" y="7" on="1"/>
        <pt x="171" y="1169" on="1"/>
        <pt x="249" y="1185" on="0"/>
        <pt x="428" y="1203" on="0"/>
        <pt x="511" y="1203" on="1"/>
        <pt x="829" y="1203" on="0"/>
        <pt x="1154" y="905" on="0"/>
        <pt x="1154" y="594" on="1"/>
        <pt x="1154" y="279" on="0"/>
        <pt x="813" y="-10" on="0"/>
      </contour>
      <contour>
        <pt x="514" y="121" on="1"/>
        <pt x="751" y="121" on="0"/>
        <pt x="989" y="343" on="0"/>
        <pt x="989" y="595" on="1"/>
        <pt x="989" y="846" on="0"/>
        <pt x="756" y="1072" on="0"/>
        <pt x="521" y="1072" on="1"/>
        <pt x="473" y="1072" on="0"/>
        <pt x="373" y="1063" on="0"/>
        <pt x="333" y="1056" on="1"/>
        <pt x="333" y="131" on="1"/>
        <pt x="375" y="125" on="0"/>
        <pt x="464" y="121" on="0"/>
      </contour>
    </TTGlyph>
    <TTGlyph name="dagger" xMin="76" yMin="160" xMax="914" yMax="1616">
      <contour>
        <pt x="451" y="160" on="1"/>
        <pt x="434" y="380" on="1"/>
        <pt x="434" y="994" on="1"/>
        <pt x="451" y="1195" on="1"/>
        <pt x="231" y="1179" on="1"/>
        <pt x="76" y="1179" on="1"/>
        <pt x="76" y="1297" on="1"/>
        <pt x="231" y="1297" on="1"/>
        <pt x="451" y="1280" on="1"/>
        <pt x="434" y="1481" on="1"/>
        <pt x="434" y="1616" on="1"/>
        <pt x="556" y="1616" on="1"/>
        <pt x="556" y="1481" on="1"/>
        <pt x="539" y="1280" on="1"/>
        <pt x="759" y="1297" on="1"/>
        <pt x="914" y="1297" on="1"/>
        <pt x="914" y="1179" on="1"/>
        <pt x="759" y="1179" on="1"/>
        <pt x="539" y="1195" on="1"/>
        <pt x="556" y="994" on="1"/>
        <pt x="556" y="380" on="1"/>
        <pt x="539" y="160" on="1"/>
      </contour>
    </TTGlyph>
    <TTGlyph name="daggerdbl" xMin="76" yMin="160" xMax="914" yMax="1616">
      <contour>
        <pt x="432" y="160" on="1"/>
        <pt x="432" y="295" on="1"/>
        <pt x="449" y="495" on="1"/>
        <pt x="186" y="479" on="1"/>
        <pt x="76" y="479" on="1"/>
        <pt x="76" y="597" on="1"/>
        <pt x="186" y="597" on="1"/>
        <pt x="449" y="582" on="1"/>
        <pt x="432" y="797" on="1"/>
        <pt x="432" y="994" on="1"/>
        <pt x="449" y="1194" on="1"/>
        <pt x="186" y="1179" on="1"/>
        <pt x="76" y="1179" on="1"/>
        <pt x="76" y="1297" on="1"/>
        <pt x="186" y="1297" on="1"/>
        <pt x="449" y="1281" on="1"/>
        <pt x="432" y="1481" on="1"/>
        <pt x="432" y="1616" on="1"/>
        <pt x="555" y="1616" on="1"/>
        <pt x="555" y="1481" on="1"/>
        <pt x="537" y="1281" on="1"/>
        <pt x="803" y="1297" on="1"/>
        <pt x="914" y="1297" on="1"/>
        <pt x="914" y="1179" on="1"/>
        <pt x="803" y="1179" on="1"/>
        <pt x="537" y="1194" on="1"/>
        <pt x="555" y="994" on="1"/>
        <pt x="555" y="797" on="1"/>
        <pt x="537" y="582" on="1"/>
        <pt x="803" y="597" on="1"/>
        <pt x="914" y="597" on="1"/>
        <pt x="914" y="479" on="1"/>
        <pt x="803" y="479" on="1"/>
        <pt x="537" y="495" on="1"/>
        <pt x="555" y="295" on="1"/>
        <pt x="555" y="160" on="1"/>
      </contour>
    </TTGlyph>
    <TTGlyph name="dcaron" xMin="94" yMin="-19" xMax="1209" yMax="1616">
      <component glyphName="d" x="0" y="0" flags="0x204"/>
      <component glyphName="uni030C.alt" x="565" y="0" flags="0x4"/>
    </TTGlyph>
    <TTGlyph name="dcaron.sc" xMin="171" yMin="-10" xMax="1154" yMax="1602">
      <component glyphName="d.sc" x="0" y="0" flags="0x204"/>
      <component glyphName="uni030C.sc" x="52" y="-290" flags="0x4"/>
    </TTGlyph>
    <TTGlyph name="dcroat" xMin="94" yMin="-19" xMax="1120" yMax="1616">
      <component glyphName="d" x="0" y="0" flags="0x204"/>
      <component glyphName="uni0335.d" x="308" y="270" flags="0x4"/>
    </TTGlyph>
    <TTGlyph name="dcroat.sc" xMin="3" yMin="-10" xMax="1154" yMax="1203">
      <component glyphName="eth.sc" x="0" y="0" flags="0x204"/>
    </TTGlyph>
    <TTGlyph name="degree" xMin="141" yMin="804" xMax="838" yMax="1497">
      <contour>
        <pt x="490" y="804" on="1"/>
        <pt x="388" y="804" on="0"/>
        <pt x="231" y="893" on="0"/>
        <pt x="141" y="1050" on="0"/>
        <pt x="141" y="1151" on="1"/>
        <pt x="141" y="1251" on="0"/>
        <pt x="231" y="1407" on="0"/>
        <pt x="388" y="1497" on="0"/>
        <pt x="490" y="1497" on="1"/>
        <pt x="591" y="1497" on="0"/>
        <pt x="748" y="1407" on="0"/>
        <pt x="838" y="1251" on="0"/>
        <pt x="838" y="1151" on="1"/>
        <pt x="838" y="1050" on="0"/>
        <pt x="748" y="893" on="0"/>
        <pt x="591" y="804" on="0"/>
      </contour>
      <contour>
        <pt x="490" y="912" on="1"/>
        <pt x="592" y="912" on="0"/>
        <pt x="723" y="1041" on="0"/>
        <pt x="723" y="1151" on="1"/>
        <pt x="723" y="1260" on="0"/>
        <pt x="591" y="1388" on="0"/>
        <pt x="490" y="1388" on="1"/>
        <pt x="388" y="1388" on="0"/>
        <pt x="256" y="1260" on="0"/>
        <pt x="256" y="1151" on="1"/>
        <pt x="256" y="1041" on="0"/>
        <pt x="388" y="912" on="0"/>
      </contour>
    </TTGlyph>
    <TTGlyph name="degree.tf" xMin="230" yMin="804" xMax="927" yMax="1497">
      <contour>
        <pt x="578" y="804" on="1"/>
        <pt x="477" y="804" on="0"/>
        <pt x="320" y="893" on="0"/>
        <pt x="230" y="1050" on="0"/>
        <pt x="230" y="1151" on="1"/>
        <pt x="230" y="1251" on="0"/>
        <pt x="320" y="1407" on="0"/>
        <pt x="477" y="1497" on="0"/>
        <pt x="578" y="1497" on="1"/>
        <pt x="680" y="1497" on="0"/>
        <pt x="837" y="1407" on="0"/>
        <pt x="927" y="1251" on="0"/>
        <pt x="927" y="1151" on="1"/>
        <pt x="927" y="1050" on="0"/>
        <pt x="837" y="893" on="0"/>
        <pt x="680" y="804" on="0"/>
      </contour>
      <contour>
        <pt x="578" y="912" on="1"/>
        <pt x="680" y="912" on="0"/>
        <pt x="812" y="1041" on="0"/>
        <pt x="812" y="1151" on="1"/>
        <pt x="812" y="1260" on="0"/>
        <pt x="680" y="1388" on="0"/>
        <pt x="578" y="1388" on="1"/>
        <pt x="477" y="1388" on="0"/>
        <pt x="345" y="1260" on="0"/>
        <pt x="345" y="1151" on="1"/>
        <pt x="345" y="1041" on="0"/>
        <pt x="476" y="912" on="0"/>
      </contour>
    </TTGlyph>
    <TTGlyph name="dieresis" xMin="207" yMin="1323" xMax="845" yMax="1521">
      <component glyphName="uni0308" x="0" y="0" flags="0x4"/>
    </TTGlyph>
    <TTGlyph name="divide" xMin="149" yMin="299" xMax="927" yMax="1221">
      <contour>
        <pt x="538" y="1012" on="1"/>
        <pt x="490" y="1012" on="0"/>
        <pt x="430" y="1068" on="0"/>
        <pt x="430" y="1116" on="1"/>
        <pt x="430" y="1164" on="0"/>
        <pt x="489" y="1221" on="0"/>
        <pt x="538" y="1221" on="1"/>
        <pt x="587" y="1221" on="0"/>
        <pt x="646" y="1163" on="0"/>
        <pt x="646" y="1116" on="1"/>
        <pt x="646" y="1069" on="0"/>
        <pt x="586" y="1012" on="0"/>
      </contour>
      <contour>
        <pt x="149" y="695" on="1"/>
        <pt x="149" y="825" on="1"/>
        <pt x="927" y="825" on="1"/>
        <pt x="927" y="695" on="1"/>
      </contour>
      <contour>
        <pt x="538" y="299" on="1"/>
        <pt x="490" y="299" on="0"/>
        <pt x="430" y="355" on="0"/>
        <pt x="430" y="403" on="1"/>
        <pt x="430" y="451" on="0"/>
        <pt x="489" y="508" on="0"/>
        <pt x="538" y="508" on="1"/>
        <pt x="587" y="508" on="0"/>
        <pt x="646" y="450" on="0"/>
        <pt x="646" y="403" on="1"/>
        <pt x="646" y="355" on="0"/>
        <pt x="586" y="299" on="0"/>
      </contour>
    </TTGlyph>
    <TTGlyph name="divide.osf" xMin="149" yMin="120" xMax="927" yMax="995">
      <contour>
        <pt x="538" y="801" on="1"/>
        <pt x="490" y="801" on="0"/>
        <pt x="431" y="854" on="0"/>
        <pt x="431" y="897" on="1"/>
        <pt x="431" y="940" on="0"/>
        <pt x="489" y="995" on="0"/>
        <pt x="538" y="995" on="1"/>
        <pt x="587" y="995" on="0"/>
        <pt x="645" y="940" on="0"/>
        <pt x="645" y="897" on="1"/>
        <pt x="645" y="855" on="0"/>
        <pt x="586" y="801" on="0"/>
      </contour>
      <contour>
        <pt x="149" y="496" on="1"/>
        <pt x="149" y="619" on="1"/>
        <pt x="927" y="619" on="1"/>
        <pt x="927" y="496" on="1"/>
      </contour>
      <contour>
        <pt x="538" y="120" on="1"/>
        <pt x="490" y="120" on="0"/>
        <pt x="431" y="173" on="0"/>
        <pt x="431" y="216" on="1"/>
        <pt x="431" y="259" on="0"/>
        <pt x="489" y="314" on="0"/>
        <pt x="538" y="314" on="1"/>
        <pt x="587" y="314" on="0"/>
        <pt x="645" y="259" on="0"/>
        <pt x="645" y="216" on="1"/>
        <pt x="645" y="174" on="0"/>
        <pt x="586" y="120" on="0"/>
      </contour>
    </TTGlyph>
    <TTGlyph name="divide.tf" xMin="189" yMin="299" xMax="968" yMax="1221">
      <contour>
        <pt x="578" y="1012" on="1"/>
        <pt x="530" y="1012" on="0"/>
        <pt x="470" y="1068" on="0"/>
        <pt x="470" y="1116" on="1"/>
        <pt x="470" y="1164" on="0"/>
        <pt x="529" y="1221" on="0"/>
        <pt x="578" y="1221" on="1"/>
        <pt x="628" y="1221" on="0"/>
        <pt x="687" y="1163" on="0"/>
        <pt x="687" y="1116" on="1"/>
        <pt x="687" y="1069" on="0"/>
        <pt x="627" y="1012" on="0"/>
      </contour>
      <contour>
        <pt x="189" y="695" on="1"/>
        <pt x="189" y="825" on="1"/>
        <pt x="968" y="825" on="1"/>
        <pt x="968" y="695" on="1"/>
      </contour>
      <contour>
        <pt x="578" y="299" on="1"/>
        <pt x="530" y="299" on="0"/>
        <pt x="470" y="355" on="0"/>
        <pt x="470" y="403" on="1"/>
        <pt x="470" y="451" on="0"/>
        <pt x="529" y="508" on="0"/>
        <pt x="578" y="508" on="1"/>
        <pt x="628" y="508" on="0"/>
        <pt x="687" y="450" on="0"/>
        <pt x="687" y="403" on="1"/>
        <pt x="687" y="355" on="0"/>
        <pt x="627" y="299" on="0"/>
      </contour>
    </TTGlyph>
    <TTGlyph name="divide.tosf" xMin="189" yMin="120" xMax="968" yMax="995">
      <contour>
        <pt x="578" y="801" on="1"/>
        <pt x="530" y="801" on="0"/>
        <pt x="472" y="854" on="0"/>
        <pt x="472" y="897" on="1"/>
        <pt x="472" y="940" on="0"/>
        <pt x="529" y="995" on="0"/>
        <pt x="578" y="995" on="1"/>
        <pt x="627" y="995" on="0"/>
        <pt x="685" y="940" on="0"/>
        <pt x="685" y="897" on="1"/>
        <pt x="685" y="855" on="0"/>
        <pt x="627" y="801" on="0"/>
      </contour>
      <contour>
        <pt x="189" y="496" on="1"/>
        <pt x="189" y="619" on="1"/>
        <pt x="968" y="619" on="1"/>
        <pt x="968" y="496" on="1"/>
      </contour>
      <contour>
        <pt x="578" y="120" on="1"/>
        <pt x="530" y="120" on="0"/>
        <pt x="472" y="173" on="0"/>
        <pt x="472" y="216" on="1"/>
        <pt x="472" y="259" on="0"/>
        <pt x="529" y="314" on="0"/>
        <pt x="578" y="314" on="1"/>
        <pt x="627" y="314" on="0"/>
        <pt x="685" y="259" on="0"/>
        <pt x="685" y="216" on="1"/>
        <pt x="685" y="174" on="0"/>
        <pt x="627" y="120" on="0"/>
      </contour>
    </TTGlyph>
    <TTGlyph name="dollar" xMin="74" yMin="-240" xMax="989" yMax="1720">
      <contour>
        <pt x="457" y="-240" on="1"/>
        <pt x="457" y="-19" on="1"/>
        <pt x="371" y="-18" on="0"/>
        <pt x="182" y="11" on="0"/>
        <pt x="97" y="40" on="1"/>
        <pt x="97" y="179" on="1"/>
        <pt x="190" y="149" on="0"/>
        <pt x="379" y="119" on="0"/>
        <pt x="460" y="119" on="1"/>
        <pt x="647" y="119" on="0"/>
        <pt x="824" y="258" on="0"/>
        <pt x="824" y="391" on="1"/>
        <pt x="824" y="504" on="0"/>
        <pt x="690" y="623" on="0"/>
        <pt x="531" y="665" on="1"/>
        <pt x="451" y="686" on="1"/>
        <pt x="262" y="734" on="0"/>
        <pt x="74" y="929" on="0"/>
        <pt x="74" y="1089" on="1"/>
        <pt x="74" y="1251" on="0"/>
        <pt x="266" y="1459" on="0"/>
        <pt x="457" y="1488" on="1"/>
        <pt x="457" y="1720" on="1"/>
        <pt x="607" y="1720" on="1"/>
        <pt x="607" y="1499" on="1"/>
        <pt x="689" y="1498" on="0"/>
        <pt x="855" y="1476" on="0"/>
        <pt x="924" y="1455" on="1"/>
        <pt x="924" y="1315" on="1"/>
        <pt x="848" y="1338" on="0"/>
        <pt x="688" y="1361" on="0"/>
        <pt x="610" y="1361" on="1"/>
        <pt x="416" y="1361" on="0"/>
        <pt x="238" y="1222" on="0"/>
        <pt x="238" y="1098" on="1"/>
        <pt x="238" y="989" on="0"/>
        <pt x="360" y="869" on="0"/>
        <pt x="510" y="829" on="1"/>
        <pt x="591" y="809" on="1"/>
        <pt x="796" y="757" on="0"/>
        <pt x="989" y="562" on="0"/>
        <pt x="989" y="401" on="1"/>
        <pt x="989" y="232" on="0"/>
        <pt x="791" y="22" on="0"/>
        <pt x="607" y="-7" on="1"/>
        <pt x="607" y="-240" on="1"/>
      </contour>
    </TTGlyph>
    <TTGlyph name="dollar.tf" xMin="85" yMin="-240" xMax="1071" yMax="1720">
      <contour>
        <pt x="500" y="-19" on="1"/>
        <pt x="407" y="-19" on="0"/>
        <pt x="203" y="10" on="0"/>
        <pt x="111" y="40" on="1"/>
        <pt x="111" y="179" on="1"/>
        <pt x="211" y="149" on="0"/>
        <pt x="415" y="119" on="0"/>
        <pt x="504" y="119" on="1"/>
        <pt x="906" y="119" on="0"/>
        <pt x="906" y="391" on="1"/>
        <pt x="906" y="504" on="0"/>
        <pt x="757" y="622" on="0"/>
        <pt x="578" y="665" on="1"/>
        <pt x="491" y="686" on="1"/>
        <pt x="288" y="734" on="0"/>
        <pt x="85" y="924" on="0"/>
        <pt x="85" y="1089" on="1"/>
        <pt x="85" y="1253" on="0"/>
        <pt x="295" y="1461" on="0"/>
        <pt x="504" y="1489" on="1"/>
        <pt x="504" y="1720" on="1"/>
        <pt x="654" y="1720" on="1"/>
        <pt x="654" y="1499" on="1"/>
        <pt x="658" y="1499" on="1"/>
        <pt x="746" y="1499" on="0"/>
        <pt x="926" y="1476" on="0"/>
        <pt x="1001" y="1455" on="1"/>
        <pt x="1001" y="1315" on="1"/>
        <pt x="919" y="1338" on="0"/>
        <pt x="746" y="1361" on="0"/>
        <pt x="660" y="1361" on="1"/>
        <pt x="445" y="1361" on="0"/>
        <pt x="250" y="1222" on="0"/>
        <pt x="250" y="1098" on="1"/>
        <pt x="250" y="989" on="0"/>
        <pt x="385" y="869" on="0"/>
        <pt x="555" y="827" on="1"/>
        <pt x="642" y="807" on="1"/>
        <pt x="863" y="755" on="0"/>
        <pt x="1071" y="566" on="0"/>
        <pt x="1071" y="401" on="1"/>
        <pt x="1071" y="231" on="0"/>
        <pt x="855" y="21" on="0"/>
        <pt x="654" y="-8" on="1"/>
        <pt x="654" y="-240" on="1"/>
        <pt x="504" y="-240" on="1"/>
        <pt x="504" y="-19" on="1"/>
      </contour>
    </TTGlyph>
    <TTGlyph name="dong" xMin="94" yMin="-292" xMax="1121" yMax="1616">
      <contour>
        <pt x="521" y="-19" on="1"/>
        <pt x="404" y="-19" on="0"/>
        <pt x="210" y="85" on="0"/>
        <pt x="94" y="322" on="0"/>
        <pt x="94" y="520" on="1"/>
        <pt x="94" y="814" on="0"/>
        <pt x="373" y="1102" on="0"/>
        <pt x="641" y="1102" on="1"/>
        <pt x="687" y="1102" on="0"/>
        <pt x="779" y="1094" on="0"/>
        <pt x="818" y="1088" on="1"/>
        <pt x="818" y="1299" on="1"/>
        <pt x="464" y="1299" on="1"/>
        <pt x="464" y="1411" on="1"/>
        <pt x="818" y="1411" on="1"/>
        <pt x="818" y="1616" on="1"/>
        <pt x="978" y="1616" on="1"/>
        <pt x="978" y="1411" on="1"/>
        <pt x="1121" y="1411" on="1"/>
        <pt x="1121" y="1299" on="1"/>
        <pt x="978" y="1299" on="1"/>
        <pt x="978" y="0" on="1"/>
        <pt x="842" y="0" on="1"/>
        <pt x="831" y="117" on="1"/>
        <pt x="820" y="117" on="1"/>
        <pt x="772" y="57" on="0"/>
        <pt x="619" y="-19" on="0"/>
      </contour>
      <contour>
        <pt x="557" y="119" on="1"/>
        <pt x="630" y="119" on="0"/>
        <pt x="770" y="183" on="0"/>
        <pt x="818" y="253" on="1"/>
        <pt x="818" y="952" on="1"/>
        <pt x="737" y="971" on="0"/>
        <pt x="639" y="971" on="1"/>
        <pt x="450" y="971" on="0"/>
        <pt x="257" y="767" on="0"/>
        <pt x="257" y="535" on="1"/>
        <pt x="257" y="372" on="0"/>
        <pt x="335" y="192" on="0"/>
        <pt x="471" y="119" on="0"/>
      </contour>
      <contour>
        <pt x="149" y="-292" on="1"/>
        <pt x="149" y="-170" on="1"/>
        <pt x="978" y="-170" on="1"/>
        <pt x="978" y="-292" on="1"/>
      </contour>
    </TTGlyph>
    <TTGlyph name="dong.tf" xMin="136" yMin="-292" xMax="1128" yMax="1616">
      <contour>
        <pt x="543" y="-19" on="1"/>
        <pt x="432" y="-19" on="0"/>
        <pt x="247" y="85" on="0"/>
        <pt x="136" y="322" on="0"/>
        <pt x="136" y="520" on="1"/>
        <pt x="136" y="814" on="0"/>
        <pt x="402" y="1102" on="0"/>
        <pt x="658" y="1102" on="1"/>
        <pt x="701" y="1102" on="0"/>
        <pt x="788" y="1094" on="0"/>
        <pt x="825" y="1088" on="1"/>
        <pt x="825" y="1299" on="1"/>
        <pt x="498" y="1299" on="1"/>
        <pt x="498" y="1411" on="1"/>
        <pt x="825" y="1411" on="1"/>
        <pt x="825" y="1616" on="1"/>
        <pt x="985" y="1616" on="1"/>
        <pt x="985" y="1411" on="1"/>
        <pt x="1128" y="1411" on="1"/>
        <pt x="1128" y="1299" on="1"/>
        <pt x="985" y="1299" on="1"/>
        <pt x="985" y="0" on="1"/>
        <pt x="849" y="0" on="1"/>
        <pt x="838" y="117" on="1"/>
        <pt x="827" y="117" on="1"/>
        <pt x="781" y="57" on="0"/>
        <pt x="636" y="-19" on="0"/>
      </contour>
      <contour>
        <pt x="580" y="119" on="1"/>
        <pt x="648" y="119" on="0"/>
        <pt x="778" y="183" on="0"/>
        <pt x="823" y="253" on="1"/>
        <pt x="823" y="952" on="1"/>
        <pt x="748" y="971" on="0"/>
        <pt x="657" y="971" on="1"/>
        <pt x="479" y="971" on="0"/>
        <pt x="299" y="767" on="0"/>
        <pt x="299" y="535" on="1"/>
        <pt x="299" y="372" on="0"/>
        <pt x="372" y="192" on="0"/>
        <pt x="499" y="119" on="0"/>
      </contour>
      <contour>
        <pt x="191" y="-292" on="1"/>
        <pt x="191" y="-170" on="1"/>
        <pt x="985" y="-170" on="1"/>
        <pt x="985" y="-292" on="1"/>
      </contour>
    </TTGlyph>
    <TTGlyph name="dotaccent" xMin="414" yMin="1321" xMax="637" yMax="1523">
      <component glyphName="uni0307" x="0" y="0" flags="0x4"/>
    </TTGlyph>
    <TTGlyph name="dotbelowcomb" xMin="423" yMin="-359" xMax="628" yMax="-163">
      <contour>
        <pt x="526" y="-359" on="1"/>
        <pt x="478" y="-359" on="0"/>
        <pt x="423" y="-307" on="0"/>
        <pt x="423" y="-262" on="1"/>
        <pt x="423" y="-217" on="0"/>
        <pt x="478" y="-163" on="0"/>
        <pt x="526" y="-163" on="1"/>
        <pt x="573" y="-163" on="0"/>
        <pt x="628" y="-217" on="0"/>
        <pt x="628" y="-262" on="1"/>
        <pt x="628" y="-307" on="0"/>
        <pt x="573" y="-359" on="0"/>
      </contour>
    </TTGlyph>
    <TTGlyph name="dotbelowcomb.case" xMin="415" yMin="-350" xMax="637" yMax="-163">
      <contour>
        <pt x="526" y="-350" on="1"/>
        <pt x="473" y="-350" on="0"/>
        <pt x="415" y="-300" on="0"/>
        <pt x="415" y="-257" on="1"/>
        <pt x="415" y="-214" on="0"/>
        <pt x="473" y="-163" on="0"/>
        <pt x="526" y="-163" on="1"/>
        <pt x="578" y="-163" on="0"/>
        <pt x="637" y="-214" on="0"/>
        <pt x="637" y="-257" on="1"/>
        <pt x="637" y="-300" on="0"/>
        <pt x="578" y="-350" on="0"/>
      </contour>
    </TTGlyph>
    <TTGlyph name="dotbelowcomb.sc" xMin="415" yMin="-350" xMax="637" yMax="-163">
      <component glyphName="dotbelowcomb.case" x="0" y="0" flags="0x204"/>
    </TTGlyph>
    <TTGlyph name="dotlessi" xMin="151" yMin="0" xMax="311" yMax="1085">
      <contour>
        <pt x="151" y="0" on="1"/>
        <pt x="151" y="1085" on="1"/>
        <pt x="311" y="1085" on="1"/>
        <pt x="311" y="0" on="1"/>
      </contour>
    </TTGlyph>
    <TTGlyph name="e" xMin="94" yMin="-19" xMax="951" yMax="1102">
      <contour>
        <pt x="608" y="-19" on="1"/>
        <pt x="354" y="-19" on="0"/>
        <pt x="94" y="244" on="0"/>
        <pt x="94" y="543" on="1"/>
        <pt x="94" y="829" on="0"/>
        <pt x="330" y="1102" on="0"/>
        <pt x="533" y="1102" on="1"/>
        <pt x="732" y="1102" on="0"/>
        <pt x="951" y="829" on="0"/>
        <pt x="951" y="539" on="1"/>
        <pt x="951" y="490" on="1"/>
        <pt x="256" y="490" on="1"/>
        <pt x="262" y="281" on="0"/>
        <pt x="444" y="111" on="0"/>
        <pt x="627" y="111" on="1"/>
        <pt x="745" y="111" on="0"/>
        <pt x="897" y="155" on="1"/>
        <pt x="897" y="24" on="1"/>
        <pt x="819" y="1" on="0"/>
        <pt x="678" y="-19" on="0"/>
      </contour>
      <contour>
        <pt x="531" y="986" on="1"/>
        <pt x="407" y="986" on="0"/>
        <pt x="260" y="814" on="0"/>
        <pt x="256" y="599" on="1"/>
        <pt x="797" y="599" on="1"/>
        <pt x="794" y="813" on="0"/>
        <pt x="655" y="986" on="0"/>
      </contour>
    </TTGlyph>
    <TTGlyph name="e.sc" xMin="171" yMin="0" xMax="979" yMax="1190">
      <contour>
        <pt x="171" y="0" on="1"/>
        <pt x="171" y="1190" on="1"/>
        <pt x="970" y="1190" on="1"/>
        <pt x="970" y="1063" on="1"/>
        <pt x="330" y="1063" on="1"/>
        <pt x="330" y="672" on="1"/>
        <pt x="887" y="672" on="1"/>
        <pt x="887" y="546" on="1"/>
        <pt x="330" y="546" on="1"/>
        <pt x="330" y="127" on="1"/>
        <pt x="979" y="127" on="1"/>
        <pt x="979" y="0" on="1"/>
      </contour>
    </TTGlyph>
    <TTGlyph name="eacute" xMin="94" yMin="-19" xMax="951" yMax="1616">
      <component glyphName="e" x="0" y="0" flags="0x204"/>
      <component glyphName="acutecomb" x="5" y="0" flags="0x4"/>
    </TTGlyph>
    <TTGlyph name="eacute.sc" xMin="171" yMin="0" xMax="979" yMax="1602">
      <component glyphName="e.sc" x="0" y="0" flags="0x204"/>
      <component glyphName="acutecomb.sc" x="63" y="-290" flags="0x4"/>
    </TTGlyph>
    <TTGlyph name="ebreve" xMin="94" yMin="-19" xMax="951" yMax="1590">
      <component glyphName="e" x="0" y="0" flags="0x204"/>
      <component glyphName="uni0306" x="5" y="0" flags="0x4"/>
    </TTGlyph>
    <TTGlyph name="ebreve.sc" xMin="171" yMin="0" xMax="979" yMax="1581">
      <component glyphName="e.sc" x="0" y="0" flags="0x204"/>
      <component glyphName="uni0306.sc" x="63" y="-290" flags="0x4"/>
    </TTGlyph>
    <TTGlyph name="ecaron" xMin="94" yMin="-19" xMax="951" yMax="1616">
      <component glyphName="e" x="0" y="0" flags="0x204"/>
      <component glyphName="uni030C" x="5" y="0" flags="0x4"/>
    </TTGlyph>
    <TTGlyph name="ecaron.sc" xMin="171" yMin="0" xMax="979" yMax="1602">
      <component glyphName="e.sc" x="0" y="0" flags="0x204"/>
      <component glyphName="uni030C.sc" x="63" y="-290" flags="0x4"/>
    </TTGlyph>
    <TTGlyph name="ecircumflex" xMin="94" yMin="-19" xMax="951" yMax="1616">
      <component glyphName="e" x="0" y="0" flags="0x204"/>
      <component glyphName="uni0302" x="5" y="0" flags="0x4"/>
    </TTGlyph>
    <TTGlyph name="ecircumflex.sc" xMin="171" yMin="0" xMax="979" yMax="1602">
      <component glyphName="e.sc" x="0" y="0" flags="0x204"/>
      <component glyphName="uni0302.sc" x="63" y="-290" flags="0x4"/>
    </TTGlyph>
    <TTGlyph name="edieresis" xMin="94" yMin="-19" xMax="951" yMax="1521">
      <component glyphName="e" x="0" y="0" flags="0x204"/>
      <component glyphName="uni0308" x="5" y="0" flags="0x4"/>
    </TTGlyph>
    <TTGlyph name="edieresis.sc" xMin="171" yMin="0" xMax="979" yMax="1555">
      <component glyphName="e.sc" x="0" y="0" flags="0x204"/>
      <component glyphName="uni0308.sc" x="63" y="-290" flags="0x4"/>
    </TTGlyph>
    <TTGlyph name="edotaccent" xMin="94" yMin="-19" xMax="951" yMax="1523">
      <component glyphName="e" x="0" y="0" flags="0x204"/>
      <component glyphName="uni0307" x="5" y="0" flags="0x4"/>
    </TTGlyph>
    <TTGlyph name="edotaccent.sc" xMin="171" yMin="0" xMax="979" yMax="1555">
      <component glyphName="e.sc" x="0" y="0" flags="0x204"/>
      <component glyphName="uni0307.sc" x="63" y="-290" flags="0x4"/>
    </TTGlyph>
    <TTGlyph name="egrave" xMin="94" yMin="-19" xMax="951" yMax="1616">
      <component glyphName="e" x="0" y="0" flags="0x204"/>
      <component glyphName="gravecomb" x="5" y="0" flags="0x4"/>
    </TTGlyph>
    <TTGlyph name="egrave.sc" xMin="171" yMin="0" xMax="979" yMax="1602">
      <component glyphName="e.sc" x="0" y="0" flags="0x204"/>
      <component glyphName="gravecomb.sc" x="63" y="-290" flags="0x4"/>
    </TTGlyph>
    <TTGlyph name="eight" xMin="99" yMin="-19" xMax="1149" yMax="1499">
      <contour>
        <pt x="633" y="-19" on="1"/>
        <pt x="369" y="-19" on="0"/>
        <pt x="99" y="189" on="0"/>
        <pt x="99" y="371" on="1"/>
        <pt x="99" y="505" on="0"/>
        <pt x="248" y="705" on="0"/>
        <pt x="382" y="758" on="1"/>
        <pt x="255" y="821" on="0"/>
        <pt x="147" y="995" on="0"/>
        <pt x="147" y="1113" on="1"/>
        <pt x="147" y="1289" on="0"/>
        <pt x="398" y="1499" on="0"/>
        <pt x="628" y="1499" on="1"/>
        <pt x="850" y="1499" on="0"/>
        <pt x="1101" y="1299" on="0"/>
        <pt x="1101" y="1125" on="1"/>
        <pt x="1101" y="1002" on="0"/>
        <pt x="974" y="813" on="0"/>
        <pt x="847" y="753" on="1"/>
        <pt x="1012" y="691" on="0"/>
        <pt x="1149" y="512" on="0"/>
        <pt x="1149" y="381" on="1"/>
        <pt x="1149" y="202" on="0"/>
        <pt x="883" y="-19" on="0"/>
      </contour>
      <contour>
        <pt x="681" y="804" on="1"/>
        <pt x="698" y="799" on="0"/>
        <pt x="714" y="795" on="1"/>
        <pt x="841" y="853" on="0"/>
        <pt x="955" y="1003" on="0"/>
        <pt x="955" y="1113" on="1"/>
        <pt x="955" y="1241" on="0"/>
        <pt x="783" y="1375" on="0"/>
        <pt x="626" y="1375" on="1"/>
        <pt x="466" y="1375" on="0"/>
        <pt x="305" y="1236" on="0"/>
        <pt x="305" y="1118" on="1"/>
        <pt x="305" y="1039" on="0"/>
        <pt x="371" y="924" on="0"/>
        <pt x="535" y="839" on="0"/>
      </contour>
      <contour>
        <pt x="255" y="386" on="1"/>
        <pt x="255" y="250" on="0"/>
        <pt x="446" y="105" on="0"/>
        <pt x="634" y="105" on="1"/>
        <pt x="809" y="105" on="0"/>
        <pt x="993" y="244" on="0"/>
        <pt x="993" y="371" on="1"/>
        <pt x="993" y="452" on="0"/>
        <pt x="923" y="564" on="0"/>
        <pt x="759" y="644" on="0"/>
        <pt x="618" y="678" on="1"/>
        <pt x="557" y="693" on="0"/>
        <pt x="505" y="710" on="1"/>
        <pt x="382" y="665" on="0"/>
        <pt x="255" y="494" on="0"/>
      </contour>
    </TTGlyph>
    <TTGlyph name="eight.dnom" xMin="53" yMin="-149" xMax="736" yMax="877">
      <contour>
        <pt x="400" y="-149" on="1"/>
        <pt x="226" y="-149" on="0"/>
        <pt x="53" y="-7" on="0"/>
        <pt x="53" y="115" on="1"/>
        <pt x="53" y="203" on="0"/>
        <pt x="145" y="336" on="0"/>
        <pt x="229" y="372" on="1"/>
        <pt x="149" y="415" on="0"/>
        <pt x="81" y="534" on="0"/>
        <pt x="81" y="613" on="1"/>
        <pt x="81" y="733" on="0"/>
        <pt x="246" y="877" on="0"/>
        <pt x="399" y="877" on="1"/>
        <pt x="544" y="877" on="0"/>
        <pt x="707" y="742" on="0"/>
        <pt x="707" y="624" on="1"/>
        <pt x="707" y="544" on="0"/>
        <pt x="630" y="418" on="0"/>
        <pt x="550" y="378" on="1"/>
        <pt x="652" y="334" on="0"/>
        <pt x="736" y="212" on="0"/>
        <pt x="736" y="126" on="1"/>
        <pt x="736" y="3" on="0"/>
        <pt x="564" y="-149" on="0"/>
      </contour>
      <contour>
        <pt x="438" y="415" on="1"/>
        <pt x="445" y="413" on="0"/>
        <pt x="452" y="411" on="1"/>
        <pt x="523" y="449" on="0"/>
        <pt x="589" y="545" on="0"/>
        <pt x="589" y="614" on="1"/>
        <pt x="589" y="694" on="0"/>
        <pt x="488" y="779" on="0"/>
        <pt x="397" y="779" on="1"/>
        <pt x="303" y="779" on="0"/>
        <pt x="208" y="691" on="0"/>
        <pt x="208" y="618" on="1"/>
        <pt x="208" y="542" on="0"/>
        <pt x="302" y="452" on="0"/>
      </contour>
      <contour>
        <pt x="179" y="127" on="1"/>
        <pt x="179" y="-50" on="0"/>
        <pt x="401" y="-50" on="1"/>
        <pt x="503" y="-50" on="0"/>
        <pt x="610" y="38" on="0"/>
        <pt x="610" y="118" on="1"/>
        <pt x="610" y="195" on="0"/>
        <pt x="511" y="281" on="0"/>
        <pt x="382" y="315" on="1"/>
        <pt x="350" y="323" on="0"/>
        <pt x="321" y="333" on="1"/>
        <pt x="250" y="303" on="0"/>
        <pt x="179" y="195" on="0"/>
      </contour>
    </TTGlyph>
    <TTGlyph name="eight.numr" xMin="53" yMin="603" xMax="736" yMax="1629">
      <contour>
        <pt x="400" y="603" on="1"/>
        <pt x="226" y="603" on="0"/>
        <pt x="53" y="745" on="0"/>
        <pt x="53" y="867" on="1"/>
        <pt x="53" y="955" on="0"/>
        <pt x="145" y="1088" on="0"/>
        <pt x="229" y="1124" on="1"/>
        <pt x="149" y="1167" on="0"/>
        <pt x="81" y="1286" on="0"/>
        <pt x="81" y="1365" on="1"/>
        <pt x="81" y="1485" on="0"/>
        <pt x="246" y="1629" on="0"/>
        <pt x="399" y="1629" on="1"/>
        <pt x="544" y="1629" on="0"/>
        <pt x="707" y="1494" on="0"/>
        <pt x="707" y="1376" on="1"/>
        <pt x="707" y="1296" on="0"/>
        <pt x="630" y="1170" on="0"/>
        <pt x="550" y="1130" on="1"/>
        <pt x="652" y="1086" on="0"/>
        <pt x="736" y="964" on="0"/>
        <pt x="736" y="878" on="1"/>
        <pt x="736" y="755" on="0"/>
        <pt x="564" y="603" on="0"/>
      </contour>
      <contour>
        <pt x="438" y="1167" on="1"/>
        <pt x="445" y="1165" on="0"/>
        <pt x="452" y="1163" on="1"/>
        <pt x="523" y="1201" on="0"/>
        <pt x="589" y="1297" on="0"/>
        <pt x="589" y="1366" on="1"/>
        <pt x="589" y="1446" on="0"/>
        <pt x="488" y="1531" on="0"/>
        <pt x="397" y="1531" on="1"/>
        <pt x="303" y="1531" on="0"/>
        <pt x="208" y="1443" on="0"/>
        <pt x="208" y="1370" on="1"/>
        <pt x="208" y="1294" on="0"/>
        <pt x="302" y="1204" on="0"/>
      </contour>
      <contour>
        <pt x="179" y="879" on="1"/>
        <pt x="179" y="702" on="0"/>
        <pt x="401" y="702" on="1"/>
        <pt x="503" y="702" on="0"/>
        <pt x="610" y="790" on="0"/>
        <pt x="610" y="870" on="1"/>
        <pt x="610" y="947" on="0"/>
        <pt x="511" y="1033" on="0"/>
        <pt x="382" y="1067" on="1"/>
        <pt x="350" y="1075" on="0"/>
        <pt x="321" y="1085" on="1"/>
        <pt x="250" y="1055" on="0"/>
        <pt x="179" y="947" on="0"/>
      </contour>
    </TTGlyph>
    <TTGlyph name="eight.osf" xMin="100" yMin="-19" xMax="1150" yMax="1499">
      <contour>
        <pt x="634" y="-19" on="1"/>
        <pt x="370" y="-19" on="0"/>
        <pt x="100" y="189" on="0"/>
        <pt x="100" y="371" on="1"/>
        <pt x="100" y="505" on="0"/>
        <pt x="249" y="705" on="0"/>
        <pt x="383" y="758" on="1"/>
        <pt x="256" y="821" on="0"/>
        <pt x="147" y="995" on="0"/>
        <pt x="147" y="1113" on="1"/>
        <pt x="147" y="1289" on="0"/>
        <pt x="399" y="1499" on="0"/>
        <pt x="629" y="1499" on="1"/>
        <pt x="851" y="1499" on="0"/>
        <pt x="1102" y="1299" on="0"/>
        <pt x="1102" y="1125" on="1"/>
        <pt x="1102" y="1002" on="0"/>
        <pt x="975" y="813" on="0"/>
        <pt x="848" y="753" on="1"/>
        <pt x="1012" y="691" on="0"/>
        <pt x="1150" y="512" on="0"/>
        <pt x="1150" y="381" on="1"/>
        <pt x="1150" y="202" on="0"/>
        <pt x="884" y="-19" on="0"/>
      </contour>
      <contour>
        <pt x="682" y="804" on="1"/>
        <pt x="699" y="799" on="0"/>
        <pt x="715" y="795" on="1"/>
        <pt x="842" y="853" on="0"/>
        <pt x="956" y="1003" on="0"/>
        <pt x="956" y="1113" on="1"/>
        <pt x="956" y="1241" on="0"/>
        <pt x="783" y="1375" on="0"/>
        <pt x="627" y="1375" on="1"/>
        <pt x="467" y="1375" on="0"/>
        <pt x="305" y="1236" on="0"/>
        <pt x="305" y="1118" on="1"/>
        <pt x="305" y="1039" on="0"/>
        <pt x="372" y="924" on="0"/>
        <pt x="536" y="839" on="0"/>
      </contour>
      <contour>
        <pt x="256" y="386" on="1"/>
        <pt x="256" y="250" on="0"/>
        <pt x="446" y="105" on="0"/>
        <pt x="635" y="105" on="1"/>
        <pt x="810" y="105" on="0"/>
        <pt x="993" y="244" on="0"/>
        <pt x="993" y="371" on="1"/>
        <pt x="993" y="452" on="0"/>
        <pt x="924" y="564" on="0"/>
        <pt x="760" y="644" on="0"/>
        <pt x="618" y="678" on="1"/>
        <pt x="558" y="693" on="0"/>
        <pt x="506" y="710" on="1"/>
        <pt x="383" y="665" on="0"/>
        <pt x="256" y="494" on="0"/>
      </contour>
    </TTGlyph>
    <TTGlyph name="eight.tf" xMin="82" yMin="-19" xMax="1074" yMax="1499">
      <contour>
        <pt x="587" y="-19" on="1"/>
        <pt x="338" y="-19" on="0"/>
        <pt x="82" y="189" on="0"/>
        <pt x="82" y="371" on="1"/>
        <pt x="82" y="505" on="0"/>
        <pt x="222" y="705" on="0"/>
        <pt x="349" y="758" on="1"/>
        <pt x="229" y="820" on="0"/>
        <pt x="127" y="995" on="0"/>
        <pt x="127" y="1113" on="1"/>
        <pt x="127" y="1289" on="0"/>
        <pt x="365" y="1499" on="0"/>
        <pt x="582" y="1499" on="1"/>
        <pt x="792" y="1499" on="0"/>
        <pt x="1029" y="1299" on="0"/>
        <pt x="1029" y="1125" on="1"/>
        <pt x="1029" y="872" on="0"/>
        <pt x="789" y="753" on="1"/>
        <pt x="945" y="691" on="0"/>
        <pt x="1074" y="512" on="0"/>
        <pt x="1074" y="381" on="1"/>
        <pt x="1074" y="202" on="0"/>
        <pt x="823" y="-19" on="0"/>
      </contour>
      <contour>
        <pt x="633" y="804" on="1"/>
        <pt x="648" y="800" on="0"/>
        <pt x="661" y="796" on="1"/>
        <pt x="778" y="853" on="0"/>
        <pt x="884" y="1003" on="0"/>
        <pt x="884" y="1113" on="1"/>
        <pt x="884" y="1241" on="0"/>
        <pt x="724" y="1375" on="0"/>
        <pt x="580" y="1375" on="1"/>
        <pt x="433" y="1375" on="0"/>
        <pt x="284" y="1236" on="0"/>
        <pt x="284" y="1118" on="1"/>
        <pt x="284" y="1039" on="0"/>
        <pt x="345" y="924" on="0"/>
        <pt x="497" y="839" on="0"/>
      </contour>
      <contour>
        <pt x="237" y="386" on="1"/>
        <pt x="237" y="250" on="0"/>
        <pt x="414" y="105" on="0"/>
        <pt x="588" y="105" on="1"/>
        <pt x="749" y="105" on="0"/>
        <pt x="918" y="245" on="0"/>
        <pt x="918" y="372" on="1"/>
        <pt x="918" y="453" on="0"/>
        <pt x="854" y="565" on="0"/>
        <pt x="702" y="645" on="0"/>
        <pt x="571" y="678" on="1"/>
        <pt x="515" y="692" on="0"/>
        <pt x="467" y="709" on="1"/>
        <pt x="354" y="664" on="0"/>
        <pt x="237" y="494" on="0"/>
      </contour>
    </TTGlyph>
    <TTGlyph name="eight.tosf" xMin="82" yMin="-19" xMax="1074" yMax="1499">
      <contour>
        <pt x="587" y="-19" on="1"/>
        <pt x="338" y="-19" on="0"/>
        <pt x="82" y="189" on="0"/>
        <pt x="82" y="371" on="1"/>
        <pt x="82" y="505" on="0"/>
        <pt x="222" y="705" on="0"/>
        <pt x="349" y="758" on="1"/>
        <pt x="229" y="820" on="0"/>
        <pt x="127" y="995" on="0"/>
        <pt x="127" y="1113" on="1"/>
        <pt x="127" y="1289" on="0"/>
        <pt x="365" y="1499" on="0"/>
        <pt x="582" y="1499" on="1"/>
        <pt x="792" y="1499" on="0"/>
        <pt x="1029" y="1299" on="0"/>
        <pt x="1029" y="1125" on="1"/>
        <pt x="1029" y="872" on="0"/>
        <pt x="789" y="753" on="1"/>
        <pt x="945" y="691" on="0"/>
        <pt x="1074" y="512" on="0"/>
        <pt x="1074" y="381" on="1"/>
        <pt x="1074" y="202" on="0"/>
        <pt x="823" y="-19" on="0"/>
      </contour>
      <contour>
        <pt x="633" y="804" on="1"/>
        <pt x="648" y="800" on="0"/>
        <pt x="661" y="796" on="1"/>
        <pt x="778" y="853" on="0"/>
        <pt x="884" y="1003" on="0"/>
        <pt x="884" y="1113" on="1"/>
        <pt x="884" y="1241" on="0"/>
        <pt x="724" y="1375" on="0"/>
        <pt x="580" y="1375" on="1"/>
        <pt x="433" y="1375" on="0"/>
        <pt x="284" y="1236" on="0"/>
        <pt x="284" y="1118" on="1"/>
        <pt x="284" y="1039" on="0"/>
        <pt x="345" y="924" on="0"/>
        <pt x="497" y="839" on="0"/>
      </contour>
      <contour>
        <pt x="237" y="386" on="1"/>
        <pt x="237" y="250" on="0"/>
        <pt x="414" y="105" on="0"/>
        <pt x="588" y="105" on="1"/>
        <pt x="749" y="105" on="0"/>
        <pt x="918" y="245" on="0"/>
        <pt x="918" y="372" on="1"/>
        <pt x="918" y="453" on="0"/>
        <pt x="854" y="565" on="0"/>
        <pt x="702" y="645" on="0"/>
        <pt x="571" y="678" on="1"/>
        <pt x="515" y="692" on="0"/>
        <pt x="467" y="709" on="1"/>
        <pt x="354" y="664" on="0"/>
        <pt x="237" y="494" on="0"/>
      </contour>
    </TTGlyph>
    <TTGlyph name="ellipsis" xMin="115" yMin="-13" xMax="1228" yMax="209">
      <component glyphName="period" x="0" y="0" flags="0x4"/>
      <component glyphName="period" x="441" y="0" flags="0x4"/>
      <component glyphName="period" x="882" y="0" flags="0x4"/>
    </TTGlyph>
    <TTGlyph name="emacron" xMin="94" yMin="-19" xMax="951" yMax="1476">
      <component glyphName="e" x="0" y="0" flags="0x204"/>
      <component glyphName="uni0304" x="5" y="0" flags="0x4"/>
    </TTGlyph>
    <TTGlyph name="emacron.sc" xMin="171" yMin="0" xMax="979" yMax="1514">
      <component glyphName="e.sc" x="0" y="0" flags="0x204"/>
      <component glyphName="uni0304.sc" x="63" y="-290" flags="0x4"/>
    </TTGlyph>
    <TTGlyph name="emdash" xMin="0" yMin="501" xMax="1800" yMax="624">
      <contour>
        <pt x="0" y="501" on="1"/>
        <pt x="0" y="624" on="1"/>
        <pt x="1800" y="624" on="1"/>
        <pt x="1800" y="501" on="1"/>
      </contour>
    </TTGlyph>
    <TTGlyph name="endash" xMin="0" yMin="501" xMax="900" yMax="624">
      <contour>
        <pt x="0" y="501" on="1"/>
        <pt x="0" y="624" on="1"/>
        <pt x="900" y="624" on="1"/>
        <pt x="900" y="501" on="1"/>
      </contour>
    </TTGlyph>
    <TTGlyph name="eng" xMin="151" yMin="-464" xMax="997" yMax="1102">
      <contour>
        <pt x="766" y="-464" on="1"/>
        <pt x="659" y="-392" on="1"/>
        <pt x="754" y="-262" on="0"/>
        <pt x="838" y="-4" on="0"/>
        <pt x="838" y="170" on="1"/>
        <pt x="838" y="712" on="1"/>
        <pt x="838" y="852" on="0"/>
        <pt x="713" y="960" on="0"/>
        <pt x="610" y="960" on="1"/>
        <pt x="535" y="960" on="0"/>
        <pt x="369" y="893" on="0"/>
        <pt x="311" y="815" on="1"/>
        <pt x="311" y="0" on="1"/>
        <pt x="151" y="0" on="1"/>
        <pt x="151" y="1085" on="1"/>
        <pt x="286" y="1085" on="1"/>
        <pt x="297" y="963" on="1"/>
        <pt x="308" y="963" on="1"/>
        <pt x="376" y="1032" on="0"/>
        <pt x="551" y="1102" on="0"/>
        <pt x="649" y="1102" on="1"/>
        <pt x="751" y="1102" on="0"/>
        <pt x="908" y="1027" on="0"/>
        <pt x="997" y="859" on="0"/>
        <pt x="997" y="718" on="1"/>
        <pt x="997" y="149" on="1"/>
        <pt x="991" y="-28" on="0"/>
        <pt x="889" y="-312" on="0"/>
      </contour>
    </TTGlyph>
    <TTGlyph name="eng.sc" xMin="171" yMin="-464" xMax="1158" yMax="1190">
      <contour>
        <pt x="171" y="0" on="1"/>
        <pt x="171" y="1190" on="1"/>
        <pt x="334" y="1190" on="1"/>
        <pt x="1006" y="234" on="1"/>
        <pt x="1006" y="1190" on="1"/>
        <pt x="1158" y="1190" on="1"/>
        <pt x="1158" y="36" on="1"/>
        <pt x="1153" y="-108" on="0"/>
        <pt x="1069" y="-341" on="0"/>
        <pt x="959" y="-464" on="1"/>
        <pt x="857" y="-394" on="1"/>
        <pt x="927" y="-304" on="0"/>
        <pt x="998" y="-127" on="0"/>
        <pt x="1004" y="-15" on="1"/>
        <pt x="322" y="955" on="1"/>
        <pt x="322" y="0" on="1"/>
      </contour>
    </TTGlyph>
    <TTGlyph name="eogonek" xMin="94" yMin="-415" xMax="951" yMax="1102">
      <contour>
        <pt x="740" y="-415" on="1"/>
        <pt x="636" y="-415" on="0"/>
        <pt x="524" y="-317" on="0"/>
        <pt x="524" y="-232" on="1"/>
        <pt x="524" y="-170" on="0"/>
        <pt x="585" y="-61" on="0"/>
        <pt x="650" y="-18" on="1"/>
        <pt x="629" y="-19" on="0"/>
        <pt x="608" y="-19" on="1"/>
        <pt x="354" y="-19" on="0"/>
        <pt x="94" y="244" on="0"/>
        <pt x="94" y="543" on="1"/>
        <pt x="94" y="829" on="0"/>
        <pt x="330" y="1102" on="0"/>
        <pt x="533" y="1102" on="1"/>
        <pt x="732" y="1102" on="0"/>
        <pt x="951" y="829" on="0"/>
        <pt x="951" y="539" on="1"/>
        <pt x="951" y="490" on="1"/>
        <pt x="256" y="490" on="1"/>
        <pt x="262" y="281" on="0"/>
        <pt x="444" y="111" on="0"/>
        <pt x="627" y="111" on="1"/>
        <pt x="745" y="111" on="0"/>
        <pt x="897" y="155" on="1"/>
        <pt x="897" y="24" on="1"/>
        <pt x="787" y="-12" on="0"/>
        <pt x="670" y="-95" on="0"/>
        <pt x="626" y="-182" on="0"/>
        <pt x="626" y="-222" on="1"/>
        <pt x="626" y="-276" on="0"/>
        <pt x="693" y="-336" on="0"/>
        <pt x="753" y="-336" on="1"/>
        <pt x="825" y="-336" on="0"/>
        <pt x="897" y="-296" on="1"/>
        <pt x="897" y="-377" on="1"/>
        <pt x="825" y="-415" on="0"/>
      </contour>
      <contour>
        <pt x="531" y="983" on="1"/>
        <pt x="407" y="983" on="0"/>
        <pt x="260" y="811" on="0"/>
        <pt x="256" y="596" on="1"/>
        <pt x="797" y="596" on="1"/>
        <pt x="794" y="811" on="0"/>
        <pt x="655" y="983" on="0"/>
      </contour>
    </TTGlyph>
    <TTGlyph name="eogonek.sc" xMin="171" yMin="-415" xMax="1078" yMax="1190">
      <component glyphName="e.sc" x="0" y="0" flags="0x204"/>
      <component glyphName="uni0328.sc" x="475" y="0" flags="0x4"/>
    </TTGlyph>
    <TTGlyph name="equal" xMin="149" yMin="498" xMax="927" yMax="1022">
      <contour>
        <pt x="149" y="892" on="1"/>
        <pt x="149" y="1022" on="1"/>
        <pt x="927" y="1022" on="1"/>
        <pt x="927" y="892" on="1"/>
      </contour>
      <contour>
        <pt x="149" y="498" on="1"/>
        <pt x="149" y="628" on="1"/>
        <pt x="927" y="628" on="1"/>
        <pt x="927" y="498" on="1"/>
      </contour>
    </TTGlyph>
    <TTGlyph name="equal.osf" xMin="149" yMin="298" xMax="927" yMax="822">
      <contour>
        <pt x="149" y="692" on="1"/>
        <pt x="149" y="822" on="1"/>
        <pt x="927" y="822" on="1"/>
        <pt x="927" y="692" on="1"/>
      </contour>
      <contour>
        <pt x="149" y="298" on="1"/>
        <pt x="149" y="428" on="1"/>
        <pt x="927" y="428" on="1"/>
        <pt x="927" y="298" on="1"/>
      </contour>
    </TTGlyph>
    <TTGlyph name="equal.tf" xMin="189" yMin="498" xMax="968" yMax="1022">
      <contour>
        <pt x="189" y="892" on="1"/>
        <pt x="189" y="1022" on="1"/>
        <pt x="968" y="1022" on="1"/>
        <pt x="968" y="892" on="1"/>
      </contour>
      <contour>
        <pt x="189" y="498" on="1"/>
        <pt x="189" y="628" on="1"/>
        <pt x="968" y="628" on="1"/>
        <pt x="968" y="498" on="1"/>
      </contour>
    </TTGlyph>
    <TTGlyph name="equal.tosf" xMin="189" yMin="298" xMax="968" yMax="822">
      <contour>
        <pt x="189" y="692" on="1"/>
        <pt x="189" y="822" on="1"/>
        <pt x="968" y="822" on="1"/>
        <pt x="968" y="692" on="1"/>
      </contour>
      <contour>
        <pt x="189" y="298" on="1"/>
        <pt x="189" y="428" on="1"/>
        <pt x="968" y="428" on="1"/>
        <pt x="968" y="298" on="1"/>
      </contour>
    </TTGlyph>
    <TTGlyph name="estimated" xMin="105" yMin="-18" xMax="1499" yMax="1498">
      <contour>
        <pt x="801" y="-18" on="1"/>
        <pt x="652" y="-18" on="0"/>
        <pt x="398" y="96" on="0"/>
        <pt x="210" y="300" on="0"/>
        <pt x="105" y="576" on="0"/>
        <pt x="105" y="738" on="1"/>
        <pt x="105" y="962" on="0"/>
        <pt x="283" y="1305" on="0"/>
        <pt x="596" y="1498" on="0"/>
        <pt x="801" y="1498" on="1"/>
        <pt x="1003" y="1498" on="0"/>
        <pt x="1310" y="1312" on="0"/>
        <pt x="1488" y="970" on="0"/>
        <pt x="1499" y="738" on="1"/>
        <pt x="371" y="738" on="1"/>
        <pt x="371" y="246" on="1"/>
        <pt x="443" y="154" on="0"/>
        <pt x="673" y="46" on="0"/>
        <pt x="801" y="46" on="1"/>
        <pt x="977" y="46" on="0"/>
        <pt x="1245" y="207" on="0"/>
        <pt x="1369" y="390" on="1"/>
        <pt x="1425" y="352" on="1"/>
        <pt x="1291" y="155" on="0"/>
        <pt x="996" y="-18" on="0"/>
      </contour>
      <contour>
        <pt x="371" y="802" on="1"/>
        <pt x="1219" y="802" on="1"/>
        <pt x="1219" y="1238" on="1"/>
        <pt x="1152" y="1333" on="0"/>
        <pt x="932" y="1434" on="0"/>
        <pt x="799" y="1434" on="1"/>
        <pt x="713" y="1434" on="0"/>
        <pt x="545" y="1384" on="0"/>
        <pt x="409" y="1296" on="0"/>
        <pt x="371" y="1238" on="1"/>
      </contour>
    </TTGlyph>
    <TTGlyph name="eth" xMin="94" yMin="-20" xMax="1017" yMax="1616">
      <contour>
        <pt x="557" y="-20" on="1"/>
        <pt x="346" y="-20" on="0"/>
        <pt x="94" y="247" on="0"/>
        <pt x="94" y="542" on="1"/>
        <pt x="94" y="737" on="0"/>
        <pt x="207" y="984" on="0"/>
        <pt x="410" y="1099" on="0"/>
        <pt x="545" y="1099" on="1"/>
        <pt x="607" y="1099" on="0"/>
        <pt x="722" y="1068" on="0"/>
        <pt x="772" y="1029" on="1"/>
        <pt x="745" y="1097" on="0"/>
        <pt x="673" y="1231" on="0"/>
        <pt x="626" y="1295" on="1"/>
        <pt x="204" y="1224" on="1"/>
        <pt x="186" y="1325" on="1"/>
        <pt x="554" y="1387" on="1"/>
        <pt x="503" y="1447" on="0"/>
        <pt x="379" y="1562" on="0"/>
        <pt x="307" y="1616" on="1"/>
        <pt x="505" y="1616" on="1"/>
        <pt x="616" y="1535" on="0"/>
        <pt x="713" y="1414" on="1"/>
        <pt x="974" y="1458" on="1"/>
        <pt x="992" y="1357" on="1"/>
        <pt x="780" y="1321" on="1"/>
        <pt x="888" y="1161" on="0"/>
        <pt x="1017" y="775" on="0"/>
        <pt x="1017" y="583" on="1"/>
        <pt x="1017" y="267" on="0"/>
        <pt x="768" y="-20" on="0"/>
      </contour>
      <contour>
        <pt x="557" y="111" on="1"/>
        <pt x="693" y="111" on="0"/>
        <pt x="855" y="306" on="0"/>
        <pt x="855" y="539" on="1"/>
        <pt x="855" y="702" on="0"/>
        <pt x="782" y="891" on="0"/>
        <pt x="648" y="971" on="0"/>
        <pt x="556" y="971" on="1"/>
        <pt x="464" y="971" on="0"/>
        <pt x="330" y="891" on="0"/>
        <pt x="257" y="704" on="0"/>
        <pt x="257" y="544" on="1"/>
        <pt x="257" y="381" on="0"/>
        <pt x="330" y="191" on="0"/>
        <pt x="464" y="111" on="0"/>
      </contour>
    </TTGlyph>
    <TTGlyph name="eth.sc" xMin="3" yMin="-10" xMax="1154" yMax="1203">
      <component glyphName="d.sc" x="0" y="0" flags="0x204"/>
      <component glyphName="uni0335.dsc" x="2" y="-4" flags="0x4"/>
    </TTGlyph>
    <TTGlyph name="exclam" xMin="135" yMin="-13" xMax="366" yMax="1480">
      <contour>
        <pt x="200" y="372" on="1"/>
        <pt x="166" y="917" on="1"/>
        <pt x="166" y="1480" on="1"/>
        <pt x="336" y="1480" on="1"/>
        <pt x="336" y="917" on="1"/>
        <pt x="302" y="372" on="1"/>
      </contour>
      <contour>
        <pt x="251" y="-13" on="1"/>
        <pt x="199" y="-13" on="0"/>
        <pt x="135" y="45" on="0"/>
        <pt x="135" y="94" on="1"/>
        <pt x="135" y="143" on="0"/>
        <pt x="198" y="203" on="0"/>
        <pt x="251" y="203" on="1"/>
        <pt x="303" y="203" on="0"/>
        <pt x="366" y="143" on="0"/>
        <pt x="366" y="94" on="1"/>
        <pt x="366" y="46" on="0"/>
        <pt x="302" y="-13" on="0"/>
      </contour>
    </TTGlyph>
    <TTGlyph name="exclamdown" xMin="135" yMin="-380" xMax="366" yMax="1098">
      <contour>
        <pt x="251" y="1098" on="1"/>
        <pt x="302" y="1098" on="0"/>
        <pt x="366" y="1038" on="0"/>
        <pt x="366" y="988" on="1"/>
        <pt x="366" y="937" on="0"/>
        <pt x="303" y="876" on="0"/>
        <pt x="251" y="876" on="1"/>
        <pt x="198" y="876" on="0"/>
        <pt x="135" y="937" on="0"/>
        <pt x="135" y="988" on="1"/>
        <pt x="135" y="1038" on="0"/>
        <pt x="199" y="1098" on="0"/>
      </contour>
      <contour>
        <pt x="200" y="707" on="1"/>
        <pt x="302" y="707" on="1"/>
        <pt x="336" y="164" on="1"/>
        <pt x="336" y="-380" on="1"/>
        <pt x="166" y="-380" on="1"/>
        <pt x="166" y="164" on="1"/>
      </contour>
    </TTGlyph>
    <TTGlyph name="f" xMin="19" yMin="0" xMax="765" yMax="1636">
      <contour>
        <pt x="223" y="0" on="1"/>
        <pt x="223" y="953" on="1"/>
        <pt x="19" y="953" on="1"/>
        <pt x="19" y="1085" on="1"/>
        <pt x="223" y="1085" on="1"/>
        <pt x="223" y="1249" on="1"/>
        <pt x="223" y="1439" on="0"/>
        <pt x="423" y="1636" on="0"/>
        <pt x="617" y="1636" on="1"/>
        <pt x="693" y="1636" on="0"/>
        <pt x="765" y="1624" on="1"/>
        <pt x="765" y="1490" on="1"/>
        <pt x="695" y="1501" on="0"/>
        <pt x="633" y="1501" on="1"/>
        <pt x="506" y="1501" on="0"/>
        <pt x="382" y="1388" on="0"/>
        <pt x="382" y="1256" on="1"/>
        <pt x="382" y="1085" on="1"/>
        <pt x="723" y="1085" on="1"/>
        <pt x="723" y="953" on="1"/>
        <pt x="382" y="953" on="1"/>
        <pt x="382" y="0" on="1"/>
      </contour>
    </TTGlyph>
    <TTGlyph name="f.sc" xMin="171" yMin="0" xMax="964" yMax="1190">
      <contour>
        <pt x="171" y="0" on="1"/>
        <pt x="171" y="1190" on="1"/>
        <pt x="964" y="1190" on="1"/>
        <pt x="964" y="1061" on="1"/>
        <pt x="333" y="1061" on="1"/>
        <pt x="333" y="660" on="1"/>
        <pt x="880" y="660" on="1"/>
        <pt x="880" y="530" on="1"/>
        <pt x="333" y="530" on="1"/>
        <pt x="333" y="0" on="1"/>
      </contour>
    </TTGlyph>
    <TTGlyph name="f.short" xMin="19" yMin="0" xMax="752" yMax="1636">
      <contour>
        <pt x="223" y="0" on="1"/>
        <pt x="223" y="953" on="1"/>
        <pt x="19" y="953" on="1"/>
        <pt x="19" y="1085" on="1"/>
        <pt x="223" y="1085" on="1"/>
        <pt x="223" y="1253" on="1"/>
        <pt x="223" y="1440" on="0"/>
        <pt x="420" y="1636" on="0"/>
        <pt x="608" y="1636" on="1"/>
        <pt x="643" y="1636" on="0"/>
        <pt x="718" y="1630" on="0"/>
        <pt x="752" y="1623" on="1"/>
        <pt x="752" y="1488" on="1"/>
        <pt x="688" y="1501" on="0"/>
        <pt x="623" y="1501" on="1"/>
        <pt x="503" y="1501" on="0"/>
        <pt x="382" y="1390" on="0"/>
        <pt x="382" y="1261" on="1"/>
        <pt x="382" y="1085" on="1"/>
        <pt x="723" y="1085" on="1"/>
        <pt x="723" y="953" on="1"/>
        <pt x="382" y="953" on="1"/>
        <pt x="382" y="0" on="1"/>
      </contour>
    </TTGlyph>
    <TTGlyph name="f_i" xMin="19" yMin="0" xMax="1060" yMax="1636">
      <component glyphName="f.short" x="0" y="0" flags="0x4"/>
      <component glyphName="i" x="717" y="0" flags="0x4"/>
    </TTGlyph>
    <TTGlyph name="f_j" xMin="19" yMin="-464" xMax="1058" yMax="1636">
      <component glyphName="f.short" x="0" y="0" flags="0x4"/>
      <component glyphName="j" x="717" y="0" flags="0x4"/>
    </TTGlyph>
    <TTGlyph name="f_l" xMin="19" yMin="0" xMax="1028" yMax="1636">
      <component glyphName="f.short" x="0" y="0" flags="0x4"/>
      <component glyphName="l" x="717" y="0" flags="0x4"/>
    </TTGlyph>
    <TTGlyph name="fi" xMin="19" yMin="0" xMax="1060" yMax="1636">
      <component glyphName="f.short" x="0" y="0" flags="0x4"/>
      <component glyphName="i" x="717" y="0" flags="0x4"/>
    </TTGlyph>
    <TTGlyph name="figuredash" xMin="130" yMin="501" xMax="1027" yMax="624">
      <contour>
        <pt x="130" y="501" on="1"/>
        <pt x="130" y="624" on="1"/>
        <pt x="1027" y="624" on="1"/>
        <pt x="1027" y="501" on="1"/>
      </contour>
    </TTGlyph>
    <TTGlyph name="five" xMin="78" yMin="-19" xMax="967" yMax="1480">
      <contour>
        <pt x="436" y="-19" on="1"/>
        <pt x="342" y="-19" on="0"/>
        <pt x="158" y="12" on="0"/>
        <pt x="78" y="39" on="1"/>
        <pt x="78" y="171" on="1"/>
        <pt x="254" y="113" on="0"/>
        <pt x="433" y="113" on="1"/>
        <pt x="810" y="113" on="0"/>
        <pt x="810" y="415" on="1"/>
        <pt x="810" y="512" on="0"/>
        <pt x="717" y="641" on="0"/>
        <pt x="503" y="713" on="0"/>
        <pt x="319" y="723" on="1"/>
        <pt x="133" y="734" on="1"/>
        <pt x="183" y="1480" on="1"/>
        <pt x="905" y="1480" on="1"/>
        <pt x="905" y="1348" on="1"/>
        <pt x="329" y="1348" on="1"/>
        <pt x="295" y="857" on="1"/>
        <pt x="374" y="853" on="1"/>
        <pt x="688" y="834" on="0"/>
        <pt x="967" y="622" on="0"/>
        <pt x="966" y="418" on="1"/>
        <pt x="966" y="205" on="0"/>
        <pt x="697" y="-19" on="0"/>
      </contour>
    </TTGlyph>
    <TTGlyph name="five.dnom" xMin="84" yMin="-149" xMax="718" yMax="864">
      <contour>
        <pt x="337" y="-149" on="1"/>
        <pt x="202" y="-149" on="0"/>
        <pt x="84" y="-110" on="1"/>
        <pt x="84" y="-2" on="1"/>
        <pt x="205" y="-42" on="0"/>
        <pt x="334" y="-42" on="1"/>
        <pt x="590" y="-42" on="0"/>
        <pt x="590" y="146" on="1"/>
        <pt x="590" y="239" on="0"/>
        <pt x="445" y="332" on="0"/>
        <pt x="263" y="342" on="1"/>
        <pt x="121" y="350" on="1"/>
        <pt x="157" y="864" on="1"/>
        <pt x="676" y="864" on="1"/>
        <pt x="676" y="757" on="1"/>
        <pt x="274" y="757" on="1"/>
        <pt x="253" y="450" on="1"/>
        <pt x="300" y="447" on="1"/>
        <pt x="521" y="434" on="0"/>
        <pt x="718" y="289" on="0"/>
        <pt x="718" y="151" on="1"/>
        <pt x="718" y="5" on="0"/>
        <pt x="524" y="-149" on="0"/>
      </contour>
    </TTGlyph>
    <TTGlyph name="five.numr" xMin="84" yMin="603" xMax="718" yMax="1616">
      <contour>
        <pt x="337" y="603" on="1"/>
        <pt x="202" y="603" on="0"/>
        <pt x="84" y="642" on="1"/>
        <pt x="84" y="750" on="1"/>
        <pt x="205" y="710" on="0"/>
        <pt x="334" y="710" on="1"/>
        <pt x="590" y="710" on="0"/>
        <pt x="590" y="898" on="1"/>
        <pt x="590" y="991" on="0"/>
        <pt x="445" y="1084" on="0"/>
        <pt x="263" y="1094" on="1"/>
        <pt x="121" y="1102" on="1"/>
        <pt x="157" y="1616" on="1"/>
        <pt x="676" y="1616" on="1"/>
        <pt x="676" y="1509" on="1"/>
        <pt x="274" y="1509" on="1"/>
        <pt x="253" y="1202" on="1"/>
        <pt x="300" y="1199" on="1"/>
        <pt x="521" y="1186" on="0"/>
        <pt x="718" y="1041" on="0"/>
        <pt x="718" y="903" on="1"/>
        <pt x="718" y="757" on="0"/>
        <pt x="524" y="603" on="0"/>
      </contour>
    </TTGlyph>
    <TTGlyph name="five.osf" xMin="65" yMin="-419" xMax="950" yMax="1085">
      <contour>
        <pt x="422" y="-419" on="1"/>
        <pt x="232" y="-419" on="0"/>
        <pt x="65" y="-361" on="1"/>
        <pt x="65" y="-229" on="1"/>
        <pt x="241" y="-287" on="0"/>
        <pt x="418" y="-287" on="1"/>
        <pt x="793" y="-287" on="0"/>
        <pt x="793" y="17" on="1"/>
        <pt x="793" y="115" on="0"/>
        <pt x="702" y="245" on="0"/>
        <pt x="488" y="316" on="0"/>
        <pt x="306" y="327" on="1"/>
        <pt x="120" y="338" on="1"/>
        <pt x="170" y="1085" on="1"/>
        <pt x="892" y="1085" on="1"/>
        <pt x="892" y="953" on="1"/>
        <pt x="316" y="953" on="1"/>
        <pt x="282" y="461" on="1"/>
        <pt x="361" y="456" on="1"/>
        <pt x="673" y="438" on="0"/>
        <pt x="950" y="225" on="0"/>
        <pt x="950" y="20" on="1"/>
        <pt x="950" y="-194" on="0"/>
        <pt x="681" y="-419" on="0"/>
      </contour>
    </TTGlyph>
    <TTGlyph name="five.tf" xMin="127" yMin="-19" xMax="1051" yMax="1480">
      <contour>
        <pt x="499" y="-19" on="1"/>
        <pt x="400" y="-19" on="0"/>
        <pt x="209" y="12" on="0"/>
        <pt x="127" y="39" on="1"/>
        <pt x="127" y="171" on="1"/>
        <pt x="308" y="113" on="0"/>
        <pt x="495" y="113" on="1"/>
        <pt x="894" y="113" on="0"/>
        <pt x="894" y="415" on="1"/>
        <pt x="894" y="512" on="0"/>
        <pt x="796" y="641" on="0"/>
        <pt x="569" y="713" on="0"/>
        <pt x="377" y="723" on="1"/>
        <pt x="184" y="734" on="1"/>
        <pt x="235" y="1480" on="1"/>
        <pt x="987" y="1480" on="1"/>
        <pt x="987" y="1348" on="1"/>
        <pt x="380" y="1348" on="1"/>
        <pt x="345" y="858" on="1"/>
        <pt x="434" y="853" on="1"/>
        <pt x="761" y="834" on="0"/>
        <pt x="1051" y="622" on="0"/>
        <pt x="1051" y="418" on="1"/>
        <pt x="1051" y="205" on="0"/>
        <pt x="770" y="-19" on="0"/>
      </contour>
    </TTGlyph>
    <TTGlyph name="five.tosf" xMin="121" yMin="-419" xMax="1047" yMax="1085">
      <contour>
        <pt x="494" y="-419" on="1"/>
        <pt x="293" y="-419" on="0"/>
        <pt x="121" y="-361" on="1"/>
        <pt x="121" y="-229" on="1"/>
        <pt x="306" y="-287" on="0"/>
        <pt x="490" y="-287" on="1"/>
        <pt x="890" y="-287" on="0"/>
        <pt x="890" y="17" on="1"/>
        <pt x="890" y="115" on="0"/>
        <pt x="791" y="245" on="0"/>
        <pt x="565" y="316" on="0"/>
        <pt x="373" y="327" on="1"/>
        <pt x="178" y="338" on="1"/>
        <pt x="232" y="1085" on="1"/>
        <pt x="986" y="1085" on="1"/>
        <pt x="986" y="953" on="1"/>
        <pt x="376" y="953" on="1"/>
        <pt x="341" y="461" on="1"/>
        <pt x="430" y="456" on="1"/>
        <pt x="756" y="438" on="0"/>
        <pt x="1047" y="225" on="0"/>
        <pt x="1047" y="20" on="1"/>
        <pt x="1046" y="-194" on="0"/>
        <pt x="766" y="-419" on="0"/>
      </contour>
    </TTGlyph>
    <TTGlyph name="fiveeighths" xMin="84" yMin="-149" xMax="1800" yMax="1616">
      <component glyphName="five.numr" x="0" y="0" flags="0x4"/>
      <component glyphName="fraction" x="788" y="0" flags="0x4"/>
      <component glyphName="eight.dnom" x="1064" y="0" flags="0x4"/>
    </TTGlyph>
    <TTGlyph name="fl" xMin="19" yMin="0" xMax="1028" yMax="1636">
      <component glyphName="f.short" x="0" y="0" flags="0x4"/>
      <component glyphName="l" x="717" y="0" flags="0x4"/>
    </TTGlyph>
    <TTGlyph name="florin" xMin="-159" yMin="-460" xMax="765" yMax="1636">
      <contour>
        <pt x="-10" y="-460" on="1"/>
        <pt x="-46" y="-460" on="0"/>
        <pt x="-121" y="-455" on="0"/>
        <pt x="-159" y="-448" on="1"/>
        <pt x="-159" y="-314" on="1"/>
        <pt x="-120" y="-319" on="0"/>
        <pt x="-59" y="-325" on="0"/>
        <pt x="-26" y="-325" on="1"/>
        <pt x="100" y="-325" on="0"/>
        <pt x="223" y="-217" on="0"/>
        <pt x="223" y="-96" on="1"/>
        <pt x="223" y="951" on="1"/>
        <pt x="19" y="951" on="1"/>
        <pt x="19" y="1085" on="1"/>
        <pt x="223" y="1085" on="1"/>
        <pt x="223" y="1261" on="1"/>
        <pt x="223" y="1445" on="0"/>
        <pt x="423" y="1636" on="0"/>
        <pt x="616" y="1636" on="1"/>
        <pt x="651" y="1636" on="0"/>
        <pt x="727" y="1631" on="0"/>
        <pt x="765" y="1624" on="1"/>
        <pt x="765" y="1490" on="1"/>
        <pt x="725" y="1495" on="0"/>
        <pt x="665" y="1501" on="0"/>
        <pt x="631" y="1501" on="1"/>
        <pt x="506" y="1501" on="0"/>
        <pt x="382" y="1393" on="0"/>
        <pt x="382" y="1272" on="1"/>
        <pt x="382" y="1085" on="1"/>
        <pt x="723" y="1085" on="1"/>
        <pt x="723" y="951" on="1"/>
        <pt x="382" y="951" on="1"/>
        <pt x="382" y="-85" on="1"/>
        <pt x="382" y="-269" on="0"/>
        <pt x="183" y="-460" on="0"/>
      </contour>
    </TTGlyph>
    <TTGlyph name="florin.tf" xMin="70" yMin="-460" xMax="994" yMax="1636">
      <contour>
        <pt x="219" y="-460" on="1"/>
        <pt x="183" y="-460" on="0"/>
        <pt x="108" y="-455" on="0"/>
        <pt x="70" y="-448" on="1"/>
        <pt x="70" y="-314" on="1"/>
        <pt x="109" y="-319" on="0"/>
        <pt x="170" y="-325" on="0"/>
        <pt x="204" y="-325" on="1"/>
        <pt x="329" y="-325" on="0"/>
        <pt x="452" y="-217" on="0"/>
        <pt x="452" y="-96" on="1"/>
        <pt x="452" y="951" on="1"/>
        <pt x="248" y="951" on="1"/>
        <pt x="248" y="1085" on="1"/>
        <pt x="452" y="1085" on="1"/>
        <pt x="452" y="1261" on="1"/>
        <pt x="452" y="1445" on="0"/>
        <pt x="652" y="1636" on="0"/>
        <pt x="845" y="1636" on="1"/>
        <pt x="881" y="1636" on="0"/>
        <pt x="956" y="1631" on="0"/>
        <pt x="994" y="1624" on="1"/>
        <pt x="994" y="1490" on="1"/>
        <pt x="955" y="1495" on="0"/>
        <pt x="894" y="1501" on="0"/>
        <pt x="860" y="1501" on="1"/>
        <pt x="735" y="1501" on="0"/>
        <pt x="612" y="1393" on="0"/>
        <pt x="612" y="1272" on="1"/>
        <pt x="612" y="1085" on="1"/>
        <pt x="952" y="1085" on="1"/>
        <pt x="952" y="951" on="1"/>
        <pt x="612" y="951" on="1"/>
        <pt x="612" y="-85" on="1"/>
        <pt x="612" y="-269" on="0"/>
        <pt x="412" y="-460" on="0"/>
      </contour>
    </TTGlyph>
    <TTGlyph name="four" xMin="48" yMin="0" xMax="1140" yMax="1480">
      <contour>
        <pt x="48" y="355" on="1"/>
        <pt x="48" y="445" on="1"/>
        <pt x="622" y="1480" on="1"/>
        <pt x="785" y="1480" on="1"/>
        <pt x="235" y="487" on="1"/>
        <pt x="781" y="487" on="1"/>
        <pt x="801" y="980" on="1"/>
        <pt x="931" y="980" on="1"/>
        <pt x="931" y="487" on="1"/>
        <pt x="1140" y="487" on="1"/>
        <pt x="1140" y="355" on="1"/>
        <pt x="931" y="355" on="1"/>
        <pt x="931" y="0" on="1"/>
        <pt x="781" y="0" on="1"/>
        <pt x="781" y="355" on="1"/>
      </contour>
    </TTGlyph>
    <TTGlyph name="four.dnom" xMin="30" yMin="-136" xMax="762" yMax="864">
      <contour>
        <pt x="30" y="96" on="1"/>
        <pt x="30" y="171" on="1"/>
        <pt x="390" y="864" on="1"/>
        <pt x="520" y="864" on="1"/>
        <pt x="178" y="204" on="1"/>
        <pt x="504" y="204" on="1"/>
        <pt x="528" y="526" on="1"/>
        <pt x="625" y="526" on="1"/>
        <pt x="625" y="204" on="1"/>
        <pt x="762" y="204" on="1"/>
        <pt x="762" y="96" on="1"/>
        <pt x="625" y="96" on="1"/>
        <pt x="625" y="-136" on="1"/>
        <pt x="504" y="-136" on="1"/>
        <pt x="504" y="96" on="1"/>
      </contour>
    </TTGlyph>
    <TTGlyph name="four.numr" xMin="30" yMin="616" xMax="762" yMax="1616">
      <contour>
        <pt x="504" y="616" on="1"/>
        <pt x="504" y="848" on="1"/>
        <pt x="30" y="848" on="1"/>
        <pt x="30" y="923" on="1"/>
        <pt x="390" y="1616" on="1"/>
        <pt x="520" y="1616" on="1"/>
        <pt x="178" y="956" on="1"/>
        <pt x="504" y="956" on="1"/>
        <pt x="528" y="1278" on="1"/>
        <pt x="625" y="1278" on="1"/>
        <pt x="625" y="956" on="1"/>
        <pt x="762" y="956" on="1"/>
        <pt x="762" y="848" on="1"/>
        <pt x="625" y="848" on="1"/>
        <pt x="625" y="616" on="1"/>
      </contour>
    </TTGlyph>
    <TTGlyph name="four.osf" xMin="36" yMin="-400" xMax="1104" yMax="1085">
      <contour>
        <pt x="36" y="0" on="1"/>
        <pt x="36" y="90" on="1"/>
        <pt x="597" y="1085" on="1"/>
        <pt x="760" y="1085" on="1"/>
        <pt x="224" y="133" on="1"/>
        <pt x="764" y="133" on="1"/>
        <pt x="786" y="625" on="1"/>
        <pt x="914" y="625" on="1"/>
        <pt x="914" y="133" on="1"/>
        <pt x="1104" y="133" on="1"/>
        <pt x="1104" y="0" on="1"/>
        <pt x="914" y="0" on="1"/>
        <pt x="914" y="-400" on="1"/>
        <pt x="764" y="-400" on="1"/>
        <pt x="764" y="0" on="1"/>
      </contour>
    </TTGlyph>
    <TTGlyph name="four.tf" xMin="46" yMin="0" xMax="1117" yMax="1480">
      <contour>
        <pt x="46" y="355" on="1"/>
        <pt x="46" y="445" on="1"/>
        <pt x="599" y="1480" on="1"/>
        <pt x="759" y="1480" on="1"/>
        <pt x="230" y="487" on="1"/>
        <pt x="758" y="487" on="1"/>
        <pt x="779" y="980" on="1"/>
        <pt x="908" y="980" on="1"/>
        <pt x="908" y="487" on="1"/>
        <pt x="1117" y="487" on="1"/>
        <pt x="1117" y="355" on="1"/>
        <pt x="908" y="355" on="1"/>
        <pt x="908" y="0" on="1"/>
        <pt x="758" y="0" on="1"/>
        <pt x="758" y="355" on="1"/>
      </contour>
    </TTGlyph>
    <TTGlyph name="four.tosf" xMin="54" yMin="-400" xMax="1101" yMax="1085">
      <contour>
        <pt x="54" y="0" on="1"/>
        <pt x="54" y="90" on="1"/>
        <pt x="605" y="1085" on="1"/>
        <pt x="767" y="1085" on="1"/>
        <pt x="241" y="133" on="1"/>
        <pt x="761" y="133" on="1"/>
        <pt x="782" y="625" on="1"/>
        <pt x="911" y="625" on="1"/>
        <pt x="911" y="133" on="1"/>
        <pt x="1101" y="133" on="1"/>
        <pt x="1101" y="0" on="1"/>
        <pt x="911" y="0" on="1"/>
        <pt x="911" y="-400" on="1"/>
        <pt x="761" y="-400" on="1"/>
        <pt x="761" y="0" on="1"/>
      </contour>
    </TTGlyph>
    <TTGlyph name="fraction" xMin="-328" yMin="-136" xMax="604" yMax="1616">
      <contour>
        <pt x="-328" y="-136" on="1"/>
        <pt x="466" y="1616" on="1"/>
        <pt x="604" y="1616" on="1"/>
        <pt x="-189" y="-136" on="1"/>
      </contour>
    </TTGlyph>
    <TTGlyph name="franc" xMin="75" yMin="0" xMax="1203" yMax="1480">
      <contour>
        <pt x="295" y="0" on="1"/>
        <pt x="295" y="310" on="1"/>
        <pt x="75" y="310" on="1"/>
        <pt x="75" y="437" on="1"/>
        <pt x="295" y="437" on="1"/>
        <pt x="295" y="1480" on="1"/>
        <pt x="1203" y="1480" on="1"/>
        <pt x="1203" y="1341" on="1"/>
        <pt x="457" y="1341" on="1"/>
        <pt x="457" y="867" on="1"/>
        <pt x="1106" y="867" on="1"/>
        <pt x="1106" y="728" on="1"/>
        <pt x="457" y="728" on="1"/>
        <pt x="457" y="437" on="1"/>
        <pt x="790" y="437" on="1"/>
        <pt x="790" y="310" on="1"/>
        <pt x="457" y="310" on="1"/>
        <pt x="457" y="0" on="1"/>
      </contour>
    </TTGlyph>
    <TTGlyph name="franc.tf" xMin="75" yMin="0" xMax="1108" yMax="1480">
      <contour>
        <pt x="295" y="0" on="1"/>
        <pt x="295" y="310" on="1"/>
        <pt x="75" y="310" on="1"/>
        <pt x="75" y="437" on="1"/>
        <pt x="295" y="437" on="1"/>
        <pt x="295" y="1480" on="1"/>
        <pt x="1108" y="1480" on="1"/>
        <pt x="1108" y="1341" on="1"/>
        <pt x="457" y="1341" on="1"/>
        <pt x="457" y="867" on="1"/>
        <pt x="1011" y="867" on="1"/>
        <pt x="1011" y="728" on="1"/>
        <pt x="457" y="728" on="1"/>
        <pt x="457" y="437" on="1"/>
        <pt x="710" y="437" on="1"/>
        <pt x="710" y="310" on="1"/>
        <pt x="457" y="310" on="1"/>
        <pt x="457" y="0" on="1"/>
      </contour>
    </TTGlyph>
    <TTGlyph name="g" xMin="94" yMin="-460" xMax="978" yMax="1102">
      <contour>
        <pt x="483" y="-460" on="1"/>
        <pt x="408" y="-460" on="0"/>
        <pt x="237" y="-436" on="0"/>
        <pt x="163" y="-411" on="1"/>
        <pt x="163" y="-277" on="1"/>
        <pt x="247" y="-304" on="0"/>
        <pt x="403" y="-328" on="0"/>
        <pt x="474" y="-328" on="1"/>
        <pt x="650" y="-328" on="0"/>
        <pt x="818" y="-177" on="0"/>
        <pt x="818" y="9" on="1"/>
        <pt x="818" y="115" on="1"/>
        <pt x="809" y="115" on="1"/>
        <pt x="759" y="58" on="0"/>
        <pt x="607" y="-14" on="0"/>
        <pt x="509" y="-14" on="1"/>
        <pt x="396" y="-14" on="0"/>
        <pt x="208" y="91" on="0"/>
        <pt x="94" y="326" on="0"/>
        <pt x="94" y="521" on="1"/>
        <pt x="94" y="813" on="0"/>
        <pt x="373" y="1101" on="0"/>
        <pt x="644" y="1102" on="1"/>
        <pt x="728" y="1102" on="0"/>
        <pt x="905" y="1076" on="0"/>
        <pt x="978" y="1053" on="1"/>
        <pt x="978" y="33" on="1"/>
        <pt x="978" y="-231" on="0"/>
        <pt x="730" y="-460" on="0"/>
      </contour>
      <contour>
        <pt x="556" y="123" on="1"/>
        <pt x="629" y="123" on="0"/>
        <pt x="770" y="184" on="0"/>
        <pt x="818" y="249" on="1"/>
        <pt x="818" y="949" on="1"/>
        <pt x="782" y="958" on="0"/>
        <pt x="684" y="971" on="0"/>
        <pt x="631" y="971" on="1"/>
        <pt x="449" y="971" on="0"/>
        <pt x="257" y="767" on="0"/>
        <pt x="257" y="536" on="1"/>
        <pt x="257" y="375" on="0"/>
        <pt x="335" y="195" on="0"/>
        <pt x="470" y="123" on="0"/>
      </contour>
    </TTGlyph>
    <TTGlyph name="g.sc" xMin="95" yMin="-11" xMax="1045" yMax="1205">
      <contour>
        <pt x="758" y="-11" on="1"/>
        <pt x="430" y="-11" on="0"/>
        <pt x="96" y="279" on="0"/>
        <pt x="96" y="593" on="1"/>
        <pt x="95" y="912" on="0"/>
        <pt x="436" y="1205" on="0"/>
        <pt x="731" y="1205" on="1"/>
        <pt x="885" y="1205" on="0"/>
        <pt x="1015" y="1171" on="1"/>
        <pt x="1015" y="1035" on="1"/>
        <pt x="942" y="1055" on="0"/>
        <pt x="809" y="1072" on="0"/>
        <pt x="742" y="1072" on="1"/>
        <pt x="515" y="1072" on="0"/>
        <pt x="264" y="855" on="0"/>
        <pt x="264" y="592" on="1"/>
        <pt x="265" y="342" on="0"/>
        <pt x="506" y="121" on="0"/>
        <pt x="746" y="121" on="1"/>
        <pt x="822" y="121" on="0"/>
        <pt x="892" y="129" on="1"/>
        <pt x="892" y="578" on="1"/>
        <pt x="1045" y="578" on="1"/>
        <pt x="1045" y="13" on="1"/>
        <pt x="969" y="1" on="0"/>
        <pt x="825" y="-11" on="0"/>
      </contour>
    </TTGlyph>
    <TTGlyph name="gbreve" xMin="94" yMin="-460" xMax="978" yMax="1590">
      <component glyphName="g" x="0" y="0" flags="0x204"/>
      <component glyphName="uni0306" x="59" y="0" flags="0x4"/>
    </TTGlyph>
    <TTGlyph name="gbreve.sc" xMin="95" yMin="-11" xMax="1045" yMax="1581">
      <component glyphName="g.sc" x="0" y="0" flags="0x204"/>
      <component glyphName="uni0306.sc" x="127" y="-290" flags="0x4"/>
    </TTGlyph>
    <TTGlyph name="gcaron" xMin="94" yMin="-460" xMax="978" yMax="1616">
      <component glyphName="g" x="0" y="0" flags="0x204"/>
      <component glyphName="uni030C" x="59" y="0" flags="0x4"/>
    </TTGlyph>
    <TTGlyph name="gcaron.sc" xMin="95" yMin="-11" xMax="1045" yMax="1602">
      <component glyphName="g.sc" x="0" y="0" flags="0x204"/>
      <component glyphName="uni030C.sc" x="127" y="-290" flags="0x4"/>
    </TTGlyph>
    <TTGlyph name="gcircumflex" xMin="94" yMin="-460" xMax="978" yMax="1616">
      <component glyphName="g" x="0" y="0" flags="0x204"/>
      <component glyphName="uni0302" x="59" y="0" flags="0x4"/>
    </TTGlyph>
    <TTGlyph name="gcircumflex.sc" xMin="95" yMin="-11" xMax="1045" yMax="1602">
      <component glyphName="g.sc" x="0" y="0" flags="0x204"/>
      <component glyphName="uni0302.sc" x="127" y="-290" flags="0x4"/>
    </TTGlyph>
    <TTGlyph name="gdotaccent" xMin="94" yMin="-460" xMax="978" yMax="1523">
      <component glyphName="g" x="0" y="0" flags="0x204"/>
      <component glyphName="uni0307" x="59" y="0" flags="0x4"/>
    </TTGlyph>
    <TTGlyph name="gdotaccent.sc" xMin="95" yMin="-11" xMax="1045" yMax="1555">
      <component glyphName="g.sc" x="0" y="0" flags="0x204"/>
      <component glyphName="uni0307.sc" x="127" y="-290" flags="0x4"/>
    </TTGlyph>
</ttFont>
